SplineFontDB: 3.0
FontName: JzuyinSans-Regular
FullName: Jzuyin Sans Regular
FamilyName: Jzuyin Sans
Weight: Regular
Copyright: Copyright (c) 2017, U-DELL-PC\\DELL,S-1-5-21-786944470-929993176-992857
UComments: "2017-5-21: Created with FontForge (http://fontforge.org)"
Version: Beta0.1
ItalicAngle: 0
UnderlinePosition: -100
UnderlineWidth: 50
Ascent: 800
Descent: 200
InvalidEm: 0
LayerCount: 2
Layer: 0 0 "+gMxmbwAA" 1
Layer: 1 0 "+Uk1mbwAA" 0
XUID: [1021 719 821916804 13317465]
StyleMap: 0x0040
FSType: 0
OS2Version: 0
OS2_WeightWidthSlopeOnly: 0
OS2_UseTypoMetrics: 1
CreationTime: 1495332163
ModificationTime: 1495354411
PfmFamily: 33
TTFWeight: 400
TTFWidth: 5
LineGap: 90
VLineGap: 90
OS2TypoAscent: 0
OS2TypoAOffset: 1
OS2TypoDescent: 0
OS2TypoDOffset: 1
OS2TypoLinegap: 90
OS2WinAscent: 0
OS2WinAOffset: 1
OS2WinDescent: 0
OS2WinDOffset: 1
HheadAscent: 0
HheadAOffset: 1
HheadDescent: 0
HheadDOffset: 1
OS2Vendor: 'PfEd'
Lookup: 5 0 0 "+X8WJgXJ5X7UA +Z+VifgAA 1" { "+X8WJgXJ5X7UA +Z+VifgAA 1-1"  } [' RQD' ('DFLT' <'dflt' > 'bopo' <'dflt' > 'latn' <'dflt' > ) ]
Lookup: 4 0 0 "'liga' Standard Ligatures in Bopomofo lookup 0" { "'liga' Standard Ligatures in Bopomofo lookup 0-1"  "'liga' Standard Ligatures in Bopomofo lookup 0-2"  } ['liga' ('DFLT' <'dflt' > 'bopo' <'dflt' > ) ]
MarkAttachClasses: 1
DEI: 91125
ContextSub2: class "+X8WJgXJ5X7UA +Z+VifgAA 1-1" 4 4 4 1
  Class: 215 uni3105 uni3106 uni3107 uni3108 uni3109 uni310A uni310B uni310C uni310D uni310E uni310F uni3110 uni3111 uni3112 uni3113 uni3114 uni3115 uni3116 uni3117 uni3118 uni3119 uni312A uni312B uni31A0 uni31A1 uni31A2 uni31A3
  Class: 23 uni3127 uni3128 uni3129
  Class: 231 uni311A uni311B uni311C uni311D uni311E uni311F uni3120 uni3121 uni3122 uni3123 uni3124 uni3125 uni3126 uni312C uni31A4 uni31A5 uni31A6 uni31A7 uni31A8 uni31A9 uni31AA uni31AB uni31AC uni31AD uni31AE uni31AF uni31B0 uni31B1 uni31B2

StartChar: exclam
Encoding: 0 33 0
Width: 311
VWidth: 1024
Flags: W
HStem: -9.5 115.5<115.79 199.912> 754.5 20G<110.5 198>
VStem: 98 115<8.0327 88.4669> 110.5 87.5<363.342 774.5> 120 68.5<216.5 627.658>
LayerCount: 2
Fore
SplineSet
198 774.5 m 1xd0
 188.5 216.5 l 1
 120 216.5 l 1xc8
 110.5 774.5 l 1
 198 774.5 l 1xd0
98 47.5 m 0xe0
 98 63.8330078125 103.75 77.6669921875 115.25 89 c 0
 126.75 100.333007812 140.166992188 106 155.5 106 c 0
 170.5 106 183.833007812 100.333007812 195.5 89 c 0
 207.166992188 77.6669921875 213 63.8330078125 213 47.5 c 0
 213 32.1669921875 207.5 18.8330078125 196.5 7.5 c 0
 185.5 -3.8330078125 172.666992188 -9.5 158 -9.5 c 0
 140.333007812 -9.5 125.916992188 -3.8330078125 114.75 7.5 c 0
 103.583007812 18.8330078125 98 32.1669921875 98 47.5 c 0xe0
EndSplineSet
EndChar

StartChar: quotedbl
Encoding: 1 34 1
Width: 426
VWidth: 1024
Flags: W
HStem: 533 241.5<95 154 272.5 331>
VStem: 95 59<533 635.455> 272.5 58.5<533 635.455>
LayerCount: 2
Fore
SplineSet
170.5 774.5 m 1
 154 533 l 1
 95 533 l 1
 79 774.5 l 1
 170.5 774.5 l 1
347 774.5 m 1
 331 533 l 1
 272.5 533 l 1
 256 774.5 l 1
 347 774.5 l 1
EndSplineSet
EndChar

StartChar: numbersign
Encoding: 2 35 2
Width: 653
VWidth: 1024
Flags: W
HStem: 283 54.5<27.5 162 236.5 362.5 439.5 580> 501.5 54.5<65.5 206.5 283 410 484.5 617> 755 20G<259.299 328.5 462.208 530>
LayerCount: 2
Fore
SplineSet
629 556 m 1
 617 501.5 l 1
 474 501.5 l 1
 439.5 337.5 l 1
 594 337.5 l 1
 580 283 l 1
 429 283 l 1
 381 67 l 1
 315.5 67 l 1
 362.5 283 l 1
 227 283 l 1
 181 67 l 1
 116 67 l 1
 162 283 l 1
 18 283 l 1
 27.5 337.5 l 1
 173.5 337.5 l 1
 206.5 501.5 l 1
 54.5 501.5 l 1
 65.5 556 l 1
 217.5 556 l 1
 263.5 775 l 1
 328.5 775 l 1
 283 556 l 1
 419.5 556 l 1
 466.5 775 l 1
 530 775 l 1
 484.5 556 l 1
 629 556 l 1
410 501.5 m 1
 272.5 501.5 l 1
 236.5 337.5 l 1
 375 337.5 l 1
 410 501.5 l 1
EndSplineSet
EndChar

StartChar: dollar
Encoding: 3 36 3
Width: 593
VWidth: 1024
Flags: W
HStem: 0 72<166.23 276 330.5 377.636> 705.5 72<330.5 434.68>
VStem: 89 87<509.805 653.368> 276 54.5<-113 0 76.5 326 445 702.5 777.5 872.5> 436.5 87<122.324 256.606>
LayerCount: 2
Fore
SplineSet
330.5 -113 m 1
 276 -113 l 1
 276 0 l 1
 199.333007812 0 137.333007812 15.3330078125 90 46 c 1
 90 136.5 l 1
 110.333007812 118.166992188 139 102.666992188 176 90 c 0
 213 77.3330078125 246.333007812 71.3330078125 276 72 c 1
 276 354 l 1
 194.666992188 393.333007812 143.166992188 428.75 121.5 460.25 c 0
 99.8330078125 491.75 89 529.166992188 89 572.5 c 0
 89 621.833007812 106.5 666.25 141.5 705.75 c 0
 176.5 745.25 221.333007812 768.5 276 775.5 c 1
 276 872.5 l 1
 330.5 872.5 l 1
 330.5 777.5 l 1
 401.166992188 775.5 449.5 765.666992188 475.5 748 c 1
 475.5 659.5 l 1
 440.5 688.166992188 392.166992188 703.5 330.5 705.5 c 1
 330.5 415 l 1
 397.5 381.333007812 446.416992188 348.75 477.25 317.25 c 0
 508.083007812 285.75 523.5 246.333007812 523.5 199 c 0
 523.5 147.666992188 506.166992188 104.666992188 471.5 70 c 0
 436.833007812 35.3330078125 389.833007812 13.5 330.5 4.5 c 1
 330.5 -113 l 1
276 702.5 m 1
 244 695.5 219.333007812 681.25 202 659.75 c 0
 184.666992188 638.25 176 613 176 584 c 256
 176 555 181.75 531 193.25 512 c 0
 204.75 493 232.333007812 470.666992188 276 445 c 1
 276 702.5 l 1
330.5 76.5 m 1
 401.166992188 92.1669921875 436.5 130.333007812 436.5 191 c 0
 436.5 242 401.166992188 287 330.5 326 c 1
 330.5 76.5 l 1
EndSplineSet
EndChar

StartChar: percent
Encoding: 4 37 4
Width: 901
VWidth: 1024
Flags: W
HStem: -12 58<617.654 746.911> 330.5 59<617.972 749.963> 386.5 57.5<157.134 287.644> 729.5 56.5<160.23 288.861> 754.5 20G<645.79 732.5>
VStem: 42.5 69.5<492.554 676.832> 332.5 69<493.204 681.43> 503 68.5<96.0025 278.55> 792 69<95.7878 284.159>
LayerCount: 2
Fore
SplineSet
42.5 580 m 0xb780
 42.5 643.333007812 59.25 693.5 92.75 730.5 c 0
 126.25 767.5 171.333007812 786 228 786 c 0
 282.666992188 786 325.25 768.75 355.75 734.25 c 0
 386.25 699.75 401.5 652 401.5 591 c 0
 401.5 530.333007812 384.583007812 481.083007812 350.75 443.25 c 0
 316.916992188 405.416992188 272.333007812 386.5 217 386.5 c 0
 163.666992188 386.5 121.25 404.25 89.75 439.75 c 0
 58.25 475.25 42.5 522 42.5 580 c 0xb780
112 585 m 0
 112 540.666992188 121.916992188 506.083007812 141.75 481.25 c 0
 161.583007812 456.416992188 188.5 444 222.5 444 c 0
 257.166992188 444 284.166992188 456.75 303.5 482.25 c 0
 322.833007812 507.75 332.5 543.166992188 332.5 588.5 c 0
 332.5 633.166992188 322.916992188 667.833007812 303.75 692.5 c 0
 284.583007812 717.166992188 258.166992188 729.5 224.5 729.5 c 0
 190.166992188 729.5 162.833007812 716.333007812 142.5 690 c 0
 122.166992188 663.666992188 112 628.666992188 112 585 c 0
732.5 774.5 m 1x8f80
 236.5 -6 l 1
 162.5 -6 l 1
 658.5 774.5 l 1
 732.5 774.5 l 1x8f80
503 181.5 m 0
 503 244.5 519.666992188 294.916992188 553 332.75 c 0
 586.333007812 370.583007812 631.166992188 389.5 687.5 389.5 c 0xc780
 741.833007812 389.5 784.333007812 372 815 337 c 0
 845.666992188 302 861 253.5 861 191.5 c 0
 861 130.5 843.916992188 81.3330078125 809.75 44 c 0
 775.583007812 6.6669921875 731.333007812 -12 677 -12 c 0
 624.666992188 -12 582.583007812 5.6669921875 550.75 41 c 0
 518.916992188 76.3330078125 503 123.166992188 503 181.5 c 0
571.5 186 m 0
 571.5 142.666992188 581.583007812 108.5 601.75 83.5 c 0
 621.916992188 58.5 648.666992188 46 682 46 c 0
 716.666992188 46 743.666992188 58.9169921875 763 84.75 c 0
 782.333007812 110.583007812 792 146 792 191 c 256
 792 236 782.5 270.5 763.5 294.5 c 0
 744.5 318.5 718.166992188 330.5 684.5 330.5 c 0
 649.166992188 330.5 621.5 317.583007812 601.5 291.75 c 0
 581.5 265.916992188 571.5 230.666992188 571.5 186 c 0
EndSplineSet
EndChar

StartChar: ampersand
Encoding: 5 38 5
Width: 881
VWidth: 1024
Flags: W
HStem: -12.5 73.5<227.454 441.957 734.527 857.706> 719.5 68<277.467 423.827>
VStem: 66 84.5<132.774 302.482> 156 79.5<538.911 678.537> 463.5 79<549.732 681.05> 699 79.5<385.742 604.452>
LayerCount: 2
Fore
SplineSet
604.5 109 m 1
 528.5 28 435.833007812 -12.5 326.5 -12.5 c 0
 245.833007812 -12.5 182.25 7.3330078125 135.75 47 c 0
 89.25 86.6669921875 66 140.833007812 66 209.5 c 0
 66 316.5 125.666992188 395.833007812 245 447.5 c 1
 185.666992188 491.833007812 156 546 156 610 c 0
 156 663.333007812 174.166992188 706.25 210.5 738.75 c 0
 246.833007812 771.25 294.833007812 787.5 354.5 787.5 c 0
 410.166992188 787.5 455.416992188 772.416992188 490.25 742.25 c 0
 525.083007812 712.083007812 542.5 672.5 542.5 623.5 c 0
 542.5 542.5 492.833007812 482.166992188 393.5 442.5 c 1
 468.166992188 414.833007812 540.666992188 347.333007812 611 240 c 1
 669.666992188 324 699 421 699 531 c 0
 699 555.333007812 695.833007812 580.166992188 689.5 605.5 c 1
 772 605.5 l 1
 776.333007812 586.166992188 778.5 562.166992188 778.5 533.5 c 0
 778.5 412.833007812 736.833007812 292.5 653.5 172.5 c 1
 683.833007812 129.833007812 708.5 101.5 727.5 87.5 c 0
 746.5 73.5 768.5 66.5 793.5 66.5 c 0
 808.166992188 66.5 830 71.5 859 81.5 c 1
 859 2 l 1
 832.666992188 -7.6669921875 806.166992188 -12.5 779.5 -12.5 c 0
 746.166992188 -12.5 717.416992188 -4.5830078125 693.25 11.25 c 0
 669.083007812 27.0830078125 639.5 59.6669921875 604.5 109 c 1
325.5 478.5 m 1
 372.166992188 494.833007812 406.833007812 513.75 429.5 535.25 c 0
 452.166992188 556.75 463.5 583.666992188 463.5 616 c 0
 463.5 648 453 673.25 432 691.75 c 0
 411 710.25 385.166992188 719.5 354.5 719.5 c 0
 317.5 719.5 288.416992188 709.583007812 267.25 689.75 c 0
 246.083007812 669.916992188 235.5 643.5 235.5 610.5 c 0
 235.5 555.5 265.5 511.5 325.5 478.5 c 1
564 172 m 1
 516.333007812 246.666992188 475 299.416992188 440 330.25 c 0
 405 361.083007812 361.666992188 386.166992188 310 405.5 c 1
 252.666992188 383.166992188 211.75 356.666992188 187.25 326 c 0
 162.75 295.333007812 150.5 257.5 150.5 212.5 c 0
 150.5 165.166992188 166.833007812 128.083007812 199.5 101.25 c 0
 232.166992188 74.4169921875 274.333007812 61 326 61 c 0
 420.666992188 61 500 98 564 172 c 1
EndSplineSet
EndChar

StartChar: quotesingle
Encoding: 6 39 6
Width: 250
VWidth: 1024
Flags: W
HStem: 533 241.5<95 154>
VStem: 95 59<533 635.455>
LayerCount: 2
Fore
SplineSet
170.5 774.5 m 1
 154 533 l 1
 95 533 l 1
 79 774.5 l 1
 170.5 774.5 l 1
EndSplineSet
EndChar

StartChar: parenleft
Encoding: 7 40 7
Width: 328
VWidth: 1024
Flags: W
HStem: 754.5 20G<186.333 318>
VStem: 75 73<111.963 481.519>
LayerCount: 2
Fore
SplineSet
242 -176 m 1
 130.666992188 -48.6669921875 75 108.5 75 295.5 c 0
 75 483.5 130.666992188 643.166992188 242 774.5 c 1
 318 774.5 l 1
 204.666992188 637.5 148 478.166992188 148 296.5 c 0
 148 115.833007812 204.333007812 -41.6669921875 317 -176 c 1
 242 -176 l 1
EndSplineSet
EndChar

StartChar: parenright
Encoding: 8 41 8
Width: 328
VWidth: 1024
Flags: W
HStem: 754.5 20G<12 144.5>
VStem: 182 74.5<111.846 481.749>
LayerCount: 2
Fore
SplineSet
13.5 -176 m 1
 125.833007812 -42.3330078125 182 115.166992188 182 296.5 c 0
 182 478.833007812 125.333007812 638.166992188 12 774.5 c 1
 88.5 774.5 l 1
 200.5 643.166992188 256.5 483.5 256.5 295.5 c 0
 256.5 108.833007812 200.5 -48.3330078125 88.5 -176 c 1
 13.5 -176 l 1
EndSplineSet
EndChar

StartChar: asterisk
Encoding: 9 42 9
Width: 458
VWidth: 1024
Flags: W
HStem: 754.5 20G<195 266>
LayerCount: 2
Fore
SplineSet
418 598 m 1
 270 567 l 1
 373 434.5 l 1
 316 395 l 1
 230.5 539 l 1
 145 395 l 1
 88 434.5 l 1
 190.5 567 l 1
 41 598 l 1
 65 662.5 l 1
 206.5 609.5 l 1
 195 774.5 l 1
 266 774.5 l 1
 254 609.5 l 1
 396.5 662.5 l 1
 418 598 l 1
EndSplineSet
EndChar

StartChar: plus
Encoding: 10 43 10
Width: 755
VWidth: 1024
Flags: W
HStem: 287.5 70<125.5 343.5 412.5 631.5>
VStem: 343.5 69<69.5 287.5 357.5 575.5>
LayerCount: 2
Fore
SplineSet
631.5 287.5 m 1
 412.5 287.5 l 1
 412.5 69.5 l 1
 343.5 69.5 l 1
 343.5 287.5 l 1
 125.5 287.5 l 1
 125.5 357.5 l 1
 343.5 357.5 l 1
 343.5 575.5 l 1
 412.5 575.5 l 1
 412.5 357.5 l 1
 631.5 357.5 l 1
 631.5 287.5 l 1
EndSplineSet
EndChar

StartChar: comma
Encoding: 11 44 11
Width: 236
VWidth: 1024
Flags: W
HStem: -143 265
VStem: 21 145.5
LayerCount: 2
Fore
SplineSet
166.5 122 m 1
 79.5 -143 l 1
 21 -143 l 1
 84.5 122 l 1
 166.5 122 l 1
EndSplineSet
EndChar

StartChar: hyphen
Encoding: 12 45 12
Width: 442
VWidth: 1024
Flags: W
HStem: 275.5 66.5<78 372.5>
VStem: 78 294.5<275.5 342>
LayerCount: 2
Fore
SplineSet
372.5 275.5 m 1
 78 275.5 l 1
 78 342 l 1
 372.5 342 l 1
 372.5 275.5 l 1
EndSplineSet
EndChar

StartChar: period
Encoding: 13 46 13
Width: 236
VWidth: 1024
Flags: W
HStem: -12 117.5<78.0482 158.467>
VStem: 60 116<5.27547 87.7092>
LayerCount: 2
Fore
SplineSet
60 46.5 m 0
 60 62.8330078125 65.8330078125 76.75 77.5 88.25 c 0
 89.1669921875 99.75 102.666992188 105.5 118 105.5 c 0
 134 105.5 147.666992188 99.75 159 88.25 c 0
 170.333007812 76.75 176 62.8330078125 176 46.5 c 0
 176 30.5 170.25 16.75 158.75 5.25 c 0
 147.25 -6.25 133.666992188 -12 118 -12 c 0
 102.666992188 -12 89.1669921875 -6.4169921875 77.5 4.75 c 0
 65.8330078125 15.9169921875 60 29.8330078125 60 46.5 c 0
EndSplineSet
EndChar

StartChar: slash
Encoding: 14 47 14
Width: 427
VWidth: 1024
Flags: W
HStem: 754.5 20G<347.805 435>
LayerCount: 2
Fore
SplineSet
435 774.5 m 1
 63.5 -128.5 l 1
 -14 -128.5 l 1
 356 774.5 l 1
 435 774.5 l 1
EndSplineSet
EndChar

StartChar: zero
Encoding: 15 48 15
Width: 593
VWidth: 1024
Flags: W
HStem: -13 71<224.624 371.055> 716 71.5<227.251 370.932>
VStem: 47 85<188.116 570.109> 462.5 85.5<202.361 580.36>
LayerCount: 2
Fore
SplineSet
47 371.5 m 0
 47 508.166992188 69.25 611.666992188 113.75 682 c 0
 158.25 752.333007812 222.5 787.5 306.5 787.5 c 0
 467.5 787.5 548 655.166992188 548 390.5 c 0
 548 261.833007812 525.916992188 162.416992188 481.75 92.25 c 0
 437.583007812 22.0830078125 373.333007812 -13 289 -13 c 0
 210.333007812 -13 150.333007812 20.6669921875 109 88 c 0
 67.6669921875 155.333007812 47 249.833007812 47 371.5 c 0
132 376 m 0
 132 164 187.333007812 58 298 58 c 0
 407.666992188 58 462.5 165.5 462.5 380.5 c 0
 462.5 604.166992188 409 716 302 716 c 0
 188.666992188 716 132 602.666992188 132 376 c 0
EndSplineSet
EndChar

StartChar: one
Encoding: 16 49 16
Width: 593
VWidth: 1024
Flags: W
HStem: 0 74.5<95 271 354.5 530>
VStem: 271 83.5<74.5 683.5>
LayerCount: 2
Fore
SplineSet
530 0 m 1
 95 0 l 1
 95 74.5 l 1
 271 74.5 l 1
 271 683.5 l 1
 90.5 629 l 1
 90.5 709.5 l 1
 354.5 792 l 1
 354.5 74.5 l 1
 530 74.5 l 1
 530 0 l 1
EndSplineSet
EndChar

StartChar: two
Encoding: 17 50 17
Width: 593
VWidth: 1024
Flags: W
HStem: 0 76<151.5 515> 716.5 71<192.075 381.562>
VStem: 440.5 81.5<474.856 658.048>
LayerCount: 2
Fore
SplineSet
515 0 m 1
 51.5 0 l 1
 51.5 75.5 l 1
 277 302.5 l 2
 351.666992188 377.833007812 397.583007812 432.416992188 414.75 466.25 c 0
 431.916992188 500.083007812 440.5 536 440.5 574 c 0
 440.5 619.666992188 427.583007812 654.833007812 401.75 679.5 c 0
 375.916992188 704.166992188 338.833007812 716.5 290.5 716.5 c 0
 221.5 716.5 155.166992188 686.666992188 91.5 627 c 1
 91.5 716 l 1
 151.166992188 763.666992188 221.166992188 787.5 301.5 787.5 c 0
 368.166992188 787.5 421.583007812 769 461.75 732 c 0
 501.916992188 695 522 644.833007812 522 581.5 c 0
 522 532.833007812 508.75 484.916992188 482.25 437.75 c 0
 455.75 390.583007812 405.666992188 330.166992188 332 256.5 c 2
 151.5 78 l 1
 151.5 76 l 1
 515 76 l 1
 515 0 l 1
EndSplineSet
EndChar

StartChar: three
Encoding: 18 51 18
Width: 593
VWidth: 1024
Flags: W
HStem: -13 71<140.622 349.67> 365 71.5<147 326.219> 716 71.5<157.225 348.232>
VStem: 402 85.5<504.541 663.33> 429.5 85.5<130.857 292.216>
LayerCount: 2
Fore
SplineSet
70 121 m 1xe8
 123 79 182.666992188 58 249 58 c 0
 302.333007812 58 345.75 71.5 379.25 98.5 c 0
 412.75 125.5 429.5 162.666992188 429.5 210 c 0xe8
 429.5 313.333007812 356.666992188 365 211 365 c 2
 147 365 l 1
 147 436.5 l 1
 208 436.5 l 2
 337.333007812 436.5 402 484.833007812 402 581.5 c 0
 402 671.166992188 352.666992188 716 254 716 c 0
 199.333007812 716 148 697.166992188 100 659.5 c 1
 100 743 l 1
 149.333007812 772.666992188 207.666992188 787.5 275 787.5 c 0
 336.333007812 787.5 387.083007812 770.666992188 427.25 737 c 0
 467.416992188 703.333007812 487.5 658.666992188 487.5 603 c 0xf0
 487.5 501.666992188 435.666992188 436 332 406 c 1
 332 404 l 1
 387 399.333007812 431.25 380 464.75 346 c 0
 498.25 312 515 269.666992188 515 219 c 0
 515 148.333007812 489.583007812 92 438.75 50 c 0
 387.916992188 8 323 -13 244 -13 c 0
 171.333007812 -13 113.333007812 0.8330078125 70 28.5 c 1
 70 121 l 1xe8
EndSplineSet
EndChar

StartChar: four
Encoding: 19 52 19
Width: 593
VWidth: 1024
Flags: W
HStem: 0 21G<372.5 455.5> 208 69<99.5 372.5 455.5 555.5> 754.5 20G<338.971 455.5>
VStem: 372.5 83<0 208 277 698.5>
LayerCount: 2
Fore
SplineSet
555.5 208 m 1
 455.5 208 l 1
 455.5 0 l 1
 372.5 0 l 1
 372.5 208 l 1
 6.5 208 l 1
 6.5 263 l 1
 352.5 774.5 l 1
 455.5 774.5 l 1
 455.5 277 l 1
 555.5 277 l 1
 555.5 208 l 1
372.5 277 m 1
 372.5 618 l 2
 372.5 641.666992188 373.166992188 668.5 374.5 698.5 c 1
 372.5 698.5 l 1
 369.833007812 691.166992188 360 671.333007812 343 639 c 1
 99.5 277 l 1
 372.5 277 l 1
EndSplineSet
EndChar

StartChar: five
Encoding: 20 53 20
Width: 593
VWidth: 1024
Flags: W
HStem: -13 71<144.927 345.337> 395 74<192.613 348.412> 698.5 76<192.5 484>
VStem: 113 79.5<466.5 698.5> 434.5 84.5<143.499 316.993>
LayerCount: 2
Fore
SplineSet
88.5 109.5 m 1
 141.166992188 75.1669921875 194.833007812 58 249.5 58 c 256
 304.166992188 58 348.666992188 73.75 383 105.25 c 0
 417.333007812 136.75 434.5 178.5 434.5 230.5 c 0
 434.5 282.833007812 417.333007812 323.333007812 383 352 c 0
 348.666992188 380.666992188 299.166992188 395 234.5 395 c 0
 214.166992188 395 173.666992188 393 113 389 c 1
 113 774.5 l 1
 484 774.5 l 1
 484 698.5 l 1
 192.5 698.5 l 1
 192.5 466.5 l 1
 221.5 468.166992188 243.5 469 258.5 469 c 0
 339.833007812 469 403.583007812 448.583007812 449.75 407.75 c 0
 495.916992188 366.916992188 519 309.5 519 235.5 c 0
 519 158.5 494 97.8330078125 444 53.5 c 0
 394 9.1669921875 328.333007812 -13 247 -13 c 0
 175.666992188 -13 122.833007812 -2.3330078125 88.5 19 c 1
 88.5 109.5 l 1
EndSplineSet
EndChar

StartChar: six
Encoding: 21 54 21
Width: 593
VWidth: 1024
Flags: W
HStem: -13 71<234.411 388.012> 412 71.5<230.947 391.623> 716 71.5<283.132 483.004>
VStem: 60 92.5<172.484 521.321> 463 86<139.046 335.63>
LayerCount: 2
Fore
SplineSet
502 685.5 m 1
 461.333007812 705.833007812 419.166992188 716 375.5 716 c 0
 304.5 716 248.5 684.916992188 207.5 622.75 c 0
 166.5 560.583007812 146.166992188 477.166992188 146.5 372.5 c 1
 149 372.5 l 1
 184.666992188 446.5 243.833007812 483.5 326.5 483.5 c 0
 394.166992188 483.5 448.166992188 461.5 488.5 417.5 c 0
 528.833007812 373.5 549 315.666992188 549 244 c 0
 549 170.333007812 526.333007812 109.083007812 481 60.25 c 0
 435.666992188 11.4169921875 377.833007812 -13 307.5 -13 c 0
 226.833007812 -13 165.416992188 18.5 123.25 81.5 c 0
 81.0830078125 144.5 60 230.666992188 60 340 c 0
 60 471 87.5 578.333007812 142.5 662 c 0
 197.5 745.666992188 274.666992188 787.5 374 787.5 c 0
 428 787.5 470.666992188 780 502 765 c 1
 502 685.5 l 1
152.5 253.5 m 0
 152.5 198.833007812 167.083007812 152.583007812 196.25 114.75 c 0
 225.416992188 76.9169921875 263.5 58 310.5 58 c 0
 356.166992188 58 393 74.6669921875 421 108 c 0
 449 141.333007812 463 183.166992188 463 233.5 c 0
 463 289.833007812 449.333007812 333.666992188 422 365 c 0
 394.666992188 396.333007812 357.166992188 412 309.5 412 c 0
 265.833007812 412 228.75 396.666992188 198.25 366 c 0
 167.75 335.333007812 152.5 297.833007812 152.5 253.5 c 0
EndSplineSet
EndChar

StartChar: seven
Encoding: 22 55 22
Width: 593
VWidth: 1024
Flags: W
HStem: 0 21G<147.5 241.74> 698.5 76<46 438.5>
LayerCount: 2
Fore
SplineSet
542.5 750 m 1
 233.5 0 l 1
 147.5 0 l 1
 438.5 698.5 l 1
 46 698.5 l 1
 46 774.5 l 1
 542.5 774.5 l 1
 542.5 750 l 1
EndSplineSet
EndChar

StartChar: eight
Encoding: 23 56 23
Width: 593
VWidth: 1024
Flags: W
HStem: -13 71.5<206.847 389.952> 715.5 72<223.445 379.655>
VStem: 54.5 86<118.932 269.835> 83 86.5<525.169 665.25> 427.5 86.5<526.098 669.183> 454 85.5<117.661 265.002>
LayerCount: 2
Fore
SplineSet
223 408 m 1xe4
 129.666992188 452 83 515 83 597 c 0
 83 653.666992188 104.666992188 699.583007812 148 734.75 c 0
 191.333007812 769.916992188 245 787.5 309 787.5 c 0
 366.333007812 787.5 414.833007812 771.083007812 454.5 738.25 c 0
 494.166992188 705.416992188 514 662.333007812 514 609 c 0xd8
 514 523 466 456 370 408 c 1
 370 406 l 1
 483 363.333007812 539.5 293.333007812 539.5 196 c 0
 539.5 130 516 78.6669921875 469 42 c 0
 422 5.3330078125 359.166992188 -13 280.5 -13 c 0
 216.166992188 -13 162.416992188 5.5830078125 119.25 42.75 c 0
 76.0830078125 79.9169921875 54.5 128.5 54.5 188.5 c 0
 54.5 287.833007812 110.666992188 360.333007812 223 406 c 1
 223 408 l 1xe4
427.5 598 m 0
 427.5 634.666992188 415.916992188 663.416992188 392.75 684.25 c 0
 369.583007812 705.083007812 338.833007812 715.5 300.5 715.5 c 0
 265.166992188 715.5 234.5 704.583007812 208.5 682.75 c 0
 182.5 660.916992188 169.5 633.333007812 169.5 600 c 0
 169.5 531.333007812 212 479.5 297 444.5 c 1
 384 481.166992188 427.5 532.333007812 427.5 598 c 0
291 365.5 m 1
 190.666992188 325.5 140.5 267.833007812 140.5 192.5 c 0
 140.5 150.833007812 155.5 118.083007812 185.5 94.25 c 0
 215.5 70.4169921875 253.666992188 58.5 300 58.5 c 0
 344.666992188 58.5 381.5 70.4169921875 410.5 94.25 c 0
 439.5 118.083007812 454 149.666992188 454 189 c 0xe4
 454 267.666992188 399.666992188 326.5 291 365.5 c 1
EndSplineSet
EndChar

StartChar: nine
Encoding: 24 57 24
Width: 593
VWidth: 1024
Flags: W
HStem: -13 71<124.521 322.75> 288.5 75<211.919 376.873> 716 71.5<213.792 366.782>
VStem: 51.5 85.5<442.381 633.441> 449 90<241.132 608.44>
LayerCount: 2
Fore
SplineSet
93.5 94.5 m 1
 137.166992188 70.1669921875 182.666992188 58 230 58 c 0
 300.333007812 58 355.333007812 86.75 395 144.25 c 0
 434.666992188 201.75 454.5 283.5 454.5 389.5 c 1
 453.833007812 388.833007812 453.166992188 388.833007812 452.5 389.5 c 1
 419.166992188 322.166992188 361.166992188 288.5 278.5 288.5 c 0
 211.833007812 288.5 157.333007812 311.333007812 115 357 c 0
 72.6669921875 402.666992188 51.5 460.166992188 51.5 529.5 c 0
 51.5 603.166992188 74.0830078125 664.583007812 119.25 713.75 c 0
 164.416992188 762.916992188 224.166992188 787.5 298.5 787.5 c 0
 376.166992188 787.5 435.666992188 757.083007812 477 696.25 c 0
 518.333007812 635.416992188 539 548 539 434 c 0
 539 293.333007812 511.916992188 183.666992188 457.75 105 c 0
 403.583007812 26.3330078125 326.5 -13 226.5 -13 c 0
 174.833007812 -13 130.5 -4.3330078125 93.5 13 c 1
 93.5 94.5 l 1
137 542 m 0
 137 488 151.166992188 444.75 179.5 412.25 c 0
 207.833007812 379.75 246.833007812 363.5 296.5 363.5 c 0
 340.5 363.5 376.916992188 378.083007812 405.75 407.25 c 0
 434.583007812 436.416992188 449 471.666992188 449 513 c 0
 449 570.666992188 434.583007812 618.916992188 405.75 657.75 c 0
 376.916992188 696.583007812 338.5 716 290.5 716 c 0
 245.5 716 208.666992188 699.083007812 180 665.25 c 0
 151.333007812 631.416992188 137 590.333007812 137 542 c 0
EndSplineSet
EndChar

StartChar: colon
Encoding: 25 58 25
Width: 236
VWidth: 1024
Flags: W
HStem: -12 117.5<78.0482 158.467> 448 117.5<78.0482 158.209>
VStem: 60 116<5.27547 87.7092 465.533 547.709>
LayerCount: 2
Fore
SplineSet
60 506.5 m 0
 60 522.833007812 65.8330078125 536.75 77.5 548.25 c 0
 89.1669921875 559.75 102.666992188 565.5 118 565.5 c 0
 134 565.5 147.666992188 559.75 159 548.25 c 0
 170.333007812 536.75 176 522.833007812 176 506.5 c 256
 176 490.166992188 170.25 476.333007812 158.75 465 c 0
 147.25 453.666992188 133.666992188 448 118 448 c 0
 102.666992188 448 89.1669921875 453.583007812 77.5 464.75 c 0
 65.8330078125 475.916992188 60 489.833007812 60 506.5 c 0
60 46.5 m 0
 60 62.8330078125 65.8330078125 76.75 77.5 88.25 c 0
 89.1669921875 99.75 102.666992188 105.5 118 105.5 c 0
 134 105.5 147.666992188 99.75 159 88.25 c 0
 170.333007812 76.75 176 62.8330078125 176 46.5 c 0
 176 30.5 170.25 16.75 158.75 5.25 c 0
 147.25 -6.25 133.666992188 -12 118 -12 c 0
 102.666992188 -12 89.1669921875 -6.4169921875 77.5 4.75 c 0
 65.8330078125 15.9169921875 60 29.8330078125 60 46.5 c 0
EndSplineSet
EndChar

StartChar: semicolon
Encoding: 26 59 26
Width: 236
VWidth: 1024
Flags: W
HStem: 448 117.5<79.2906 159.452>
VStem: 61.5 116<465.533 547.709>
LayerCount: 2
Fore
SplineSet
61.5 506.5 m 256
 61.5 522.833007812 67.1669921875 536.75 78.5 548.25 c 0
 89.8330078125 559.75 103.5 565.5 119.5 565.5 c 0
 134.833007812 565.5 148.333007812 559.75 160 548.25 c 0
 171.666992188 536.75 177.5 522.833007812 177.5 506.5 c 0
 177.5 489.833007812 171.666992188 475.916992188 160 464.75 c 0
 148.333007812 453.583007812 134.833007812 448 119.5 448 c 0
 103.833007812 448 90.25 453.666992188 78.75 465 c 0
 67.25 476.333007812 61.5 490.166992188 61.5 506.5 c 256
166.5 122 m 1
 79.5 -143 l 1
 21 -143 l 1
 84.5 122 l 1
 166.5 122 l 1
EndSplineSet
EndChar

StartChar: less
Encoding: 27 60 27
Width: 755
VWidth: 1024
Flags: W
LayerCount: 2
Fore
SplineSet
609.5 70.5 m 1
 147.5 304.5 l 1
 147.5 332.5 l 1
 609.5 594 l 1
 609.5 516 l 1
 263 321.5 l 1
 263 319 l 1
 609.5 148 l 1
 609.5 70.5 l 1
EndSplineSet
EndChar

StartChar: equal
Encoding: 28 61 28
Width: 755
VWidth: 1024
Flags: W
HStem: 173.5 69<125.5 631.5> 403.5 68.5<125.5 631.5>
LayerCount: 2
Fore
SplineSet
631.5 403.5 m 1
 125.5 403.5 l 1
 125.5 472 l 1
 631.5 472 l 1
 631.5 403.5 l 1
631.5 173.5 m 1
 125.5 173.5 l 1
 125.5 242.5 l 1
 631.5 242.5 l 1
 631.5 173.5 l 1
EndSplineSet
EndChar

StartChar: greater
Encoding: 29 62 29
Width: 755
VWidth: 1024
Flags: W
LayerCount: 2
Fore
SplineSet
609.5 304 m 1
 147.5 70.5 l 1
 147.5 147.5 l 1
 494 318 l 1
 494 321.5 l 1
 147.5 516 l 1
 147.5 593.5 l 1
 609.5 332 l 1
 609.5 304 l 1
EndSplineSet
EndChar

StartChar: question
Encoding: 30 63 30
Width: 496
VWidth: 1024
Flags: W
HStem: -9.5 115.5<189.518 274.576> 717 70.5<138.37 311.069>
VStem: 171 77.5<215.781 361.684> 172.5 115<8.54799 92.4101> 358 81.5<539.205 672.828>
LayerCount: 2
Fore
SplineSet
183.5 214.5 m 1xe8
 175.166992188 239.5 171 266.833007812 171 296.5 c 0
 171 322.5 177.5 346.75 190.5 369.25 c 0
 203.5 391.75 228.333007812 421.333007812 265 458 c 0
 301 493 325.5 521.083007812 338.5 542.25 c 0
 351.5 563.416992188 358 585.5 358 608.5 c 0
 358 642.166992188 345.916992188 668.666992188 321.75 688 c 0
 297.583007812 707.333007812 267.166992188 717 230.5 717 c 0
 169.5 717 117 693 73 645 c 1
 73 735.5 l 1
 128.666992188 770.166992188 185.333007812 787.5 243 787.5 c 0
 301.333007812 787.5 348.666992188 772.333007812 385 742 c 0
 421.333007812 711.666992188 439.5 670.5 439.5 618.5 c 0
 439.5 586.833007812 432.25 557.916992188 417.75 531.75 c 0
 403.25 505.583007812 377.333007812 474.333007812 340 438 c 0
 303 402.333007812 278.5 375 266.5 356 c 0
 254.5 337 248.5 317 248.5 296 c 0
 248.5 271.333007812 254.666992188 244.166992188 267 214.5 c 1
 183.5 214.5 l 1xe8
172.5 47.5 m 0xd8
 172.5 62.8330078125 178.25 76.4169921875 189.75 88.25 c 0
 201.25 100.083007812 214.666992188 106 230 106 c 0
 245 106 258.333007812 100.333007812 270 89 c 0
 281.666992188 77.6669921875 287.5 63.8330078125 287.5 47.5 c 0
 287.5 33.1669921875 282.083007812 20.0830078125 271.25 8.25 c 0
 260.416992188 -3.5830078125 247.5 -9.5 232.5 -9.5 c 0
 214.5 -9.5 200 -3.6669921875 189 8 c 0
 178 19.6669921875 172.5 32.8330078125 172.5 47.5 c 0xd8
EndSplineSet
EndChar

StartChar: at
Encoding: 31 64 31
Width: 1056
VWidth: 1024
Flags: W
HStem: -101.5 60.5<394.516 703.233> 98.5 61<421.67 551.12 710.717 819.569> 523 60<463.022 598.315> 726 59<408.007 677.525>
VStem: 94.5 70.5<188.733 473.165> 307 73<205.252 420.846> 631 58<181.051 228.5 266.623 488.462> 645 69.5<513 575.5> 893 71.5<257.624 513.962>
LayerCount: 2
Fore
SplineSet
714.5 575.5 m 1xfd80
 697.5 374.166992188 689 273 689 272 c 0xfe80
 689 196.333007812 711 158.5 755 158.5 c 0
 795.666992188 158.5 828.833007812 179.916992188 854.5 222.75 c 0
 880.166992188 265.583007812 893 320 893 386 c 0
 893 486 861.333007812 567.666992188 798 631 c 0
 734.666992188 694.333007812 647.333007812 726 536 726 c 0
 429.333007812 726 340.833007812 688.666992188 270.5 614 c 0
 200.166992188 539.333007812 165 445.166992188 165 331.5 c 0
 165 219.833007812 198.333007812 129.833007812 265 61.5 c 0
 331.666992188 -6.8330078125 421.666992188 -41 535 -41 c 0
 623.666992188 -41 699.666992188 -26.3330078125 763 3 c 1
 763 -61.5 l 1
 700.333007812 -88.1669921875 622.666992188 -101.5 530 -101.5 c 0
 399.333007812 -101.5 294.083007812 -62 214.25 17 c 0
 134.416992188 96 94.5 199.5 94.5 327.5 c 0
 94.5 460.166992188 136.416992188 569.583007812 220.25 655.75 c 0
 304.083007812 741.916992188 410.833007812 785 540.5 785 c 0
 661.833007812 785 762.833007812 748.666992188 843.5 676 c 0
 924.166992188 603.333007812 964.5 508.166992188 964.5 390.5 c 0
 964.5 305.5 943.5 235.583007812 901.5 180.75 c 0
 859.5 125.916992188 808.5 98.5 748.5 98.5 c 0
 670.166992188 98.5 630.666992188 141.833007812 630 228.5 c 1
 627.5 228.5 l 1
 600.833007812 141.833007812 548.833007812 98.5 471.5 98.5 c 0
 421.833007812 98.5 382 116.666992188 352 153 c 0
 322 189.333007812 307 238.166992188 307 299.5 c 0
 307 380.833007812 327.916992188 448.416992188 369.75 502.25 c 0
 411.583007812 556.083007812 466.333007812 583 534 583 c 0
 557.666992188 583 580.25 576.583007812 601.75 563.75 c 0
 623.25 550.916992188 637 534 643 513 c 1
 645 513 l 2
 645.333007812 513.666992188 647.166992188 534.5 650.5 575.5 c 1
 714.5 575.5 l 1xfd80
380 298.5 m 0
 380 256.5 388.916992188 222.833007812 406.75 197.5 c 0
 424.583007812 172.166992188 450.166992188 159.5 483.5 159.5 c 0
 529.5 159.5 565.583007812 182.166992188 591.75 227.5 c 0
 617.916992188 272.833007812 631 332.333007812 631 406 c 0
 631 484 598 523 532 523 c 0
 487.333007812 523 450.833007812 501.833007812 422.5 459.5 c 0
 394.166992188 417.166992188 380 363.5 380 298.5 c 0
EndSplineSet
EndChar

StartChar: A
Encoding: 32 65 32
Width: 709
VWidth: 1024
Flags: W
HStem: 0 21G<12.5 114.636 594.364 696.5> 220 78<216 489> 754.5 20G<302.805 404.734>
LayerCount: 2
Fore
SplineSet
696.5 0 m 1
 602 0 l 1
 518 220 l 1
 186 220 l 1
 107.5 0 l 1
 12.5 0 l 1
 310.5 774.5 l 1
 397 774.5 l 1
 696.5 0 l 1
489 298 m 1
 365 632.5 l 2
 361.666992188 641.833007812 357.833007812 658.833007812 353.5 683.5 c 1
 351 683.5 l 1
 347.333007812 660.833007812 343.166992188 643.833007812 338.5 632.5 c 2
 216 298 l 1
 489 298 l 1
EndSplineSet
EndChar

StartChar: B
Encoding: 33 66 33
Width: 629
VWidth: 1024
Flags: W
HStem: 0 79<187.5 413.227> 362.5 78.5<187.5 376.062> 695.5 79<187.5 394.366>
VStem: 102.5 85<79 362.5 441 695.5> 444.5 89<505.36 650.755> 483.5 89<144.722 300.301>
LayerCount: 2
Fore
SplineSet
102.5 0 m 1xf4
 102.5 774.5 l 1
 319 774.5 l 2
 383.333007812 774.5 435.166992188 758.333007812 474.5 726 c 0
 513.833007812 693.666992188 533.5 650.833007812 533.5 597.5 c 0xf8
 533.5 554.166992188 521.916992188 516.166992188 498.75 483.5 c 0
 475.583007812 450.833007812 442.833007812 427.333007812 400.5 413 c 1
 400.5 411 l 1
 452.166992188 406 493.75 386.666992188 525.25 353 c 0
 556.75 319.333007812 572.5 275.666992188 572.5 222 c 0
 572.5 156.333007812 548.916992188 102.916992188 501.75 61.75 c 0
 454.583007812 20.5830078125 395 0 323 0 c 2
 102.5 0 l 1xf4
187.5 695.5 m 1
 187.5 441 l 1
 281.5 441 l 2
 332.833007812 441 372.833007812 453.25 401.5 477.75 c 0
 430.166992188 502.25 444.5 536.5 444.5 580.5 c 0
 444.5 657.166992188 394.5 695.5 294.5 695.5 c 2
 187.5 695.5 l 1
187.5 362.5 m 1
 187.5 79 l 1
 313 79 l 2
 366.333007812 79 408.083007812 91.75 438.25 117.25 c 0
 468.416992188 142.75 483.5 178 483.5 223 c 0xf4
 483.5 316 419.833007812 362.5 292.5 362.5 c 2
 187.5 362.5 l 1
EndSplineSet
EndChar

StartChar: C
Encoding: 34 67 34
Width: 684
VWidth: 1024
Flags: W
HStem: -13 77<308.768 561.121> 709.5 78<323.177 573.581>
VStem: 51.5 89.5<244.552 513.323>
LayerCount: 2
Fore
SplineSet
627.5 33 m 1
 570.5 2.3330078125 499.333007812 -13 414 -13 c 0
 305.333007812 -13 217.75 22.8330078125 151.25 94.5 c 0
 84.75 166.166992188 51.5 258.833007812 51.5 372.5 c 0
 51.5 491.833007812 88 590.833007812 161 669.5 c 0
 234 748.166992188 328.833007812 787.5 445.5 787.5 c 0
 518.833007812 787.5 579.5 776.833007812 627.5 755.5 c 1
 627.5 663.5 l 1
 571.833007812 694.166992188 510.5 709.5 443.5 709.5 c 0
 351.5 709.5 278.083007812 678.5 223.25 616.5 c 0
 168.416992188 554.5 141 474.833007812 141 377.5 c 0
 141 285.166992188 166.666992188 209.833007812 218 151.5 c 0
 269.333007812 93.1669921875 338.166992188 64 424.5 64 c 0
 502.5 64 570.166992188 81.3330078125 627.5 116 c 1
 627.5 33 l 1
EndSplineSet
EndChar

StartChar: D
Encoding: 35 68 35
Width: 773
VWidth: 1024
Flags: W
HStem: 0 78<187.5 442.875> 696.5 78<187.5 451.326>
VStem: 102.5 85<78 696.5> 632 89<261.43 525.958>
LayerCount: 2
Fore
SplineSet
102.5 0 m 1
 102.5 774.5 l 1
 312.5 774.5 l 2
 584.833007812 774.5 721 648.666992188 721 397 c 0
 721 276.333007812 684.333007812 180 611 108 c 0
 537.666992188 36 435.5 0 304.5 0 c 2
 102.5 0 l 1
187.5 696.5 m 1
 187.5 78 l 1
 305.5 78 l 2
 408.5 78 488.666992188 105.666992188 546 161 c 0
 603.333007812 216.333007812 632 294.166992188 632 394.5 c 0
 632 595.833007812 524.833007812 696.5 310.5 696.5 c 2
 187.5 696.5 l 1
EndSplineSet
EndChar

StartChar: E
Encoding: 36 69 36
Width: 557
VWidth: 1024
Flags: W
HStem: 0 78<187.5 509.5> 355 78<187.5 469> 696.5 78<187.5 492>
VStem: 102.5 85<78 355 433 696.5>
LayerCount: 2
Fore
SplineSet
509.5 0 m 1
 102.5 0 l 1
 102.5 774.5 l 1
 492 774.5 l 1
 492 696.5 l 1
 187.5 696.5 l 1
 187.5 433 l 1
 469 433 l 1
 469 355 l 1
 187.5 355 l 1
 187.5 78 l 1
 509.5 78 l 1
 509.5 0 l 1
EndSplineSet
EndChar

StartChar: F
Encoding: 37 70 37
Width: 537
VWidth: 1024
Flags: W
HStem: 0 21G<102.5 187.5> 345.5 78<187.5 469.5> 696.5 78<187.5 492>
VStem: 102.5 85<0 345.5 423.5 696.5>
LayerCount: 2
Fore
SplineSet
492 696.5 m 1
 187.5 696.5 l 1
 187.5 423.5 l 1
 469.5 423.5 l 1
 469.5 345.5 l 1
 187.5 345.5 l 1
 187.5 0 l 1
 102.5 0 l 1
 102.5 774.5 l 1
 492 774.5 l 1
 492 696.5 l 1
EndSplineSet
EndChar

StartChar: G
Encoding: 38 71 38
Width: 756
VWidth: 1024
Flags: W
HStem: -13 77.5<309.935 559.082> 323.5 78<421.5 592> 709 78.5<324.921 581.458>
VStem: 51.5 89.5<245.062 515.793> 592 85.5<91.1968 323.5>
LayerCount: 2
Fore
SplineSet
677.5 53 m 1
 600.166992188 9 514.166992188 -13 419.5 -13 c 0
 309.833007812 -13 221.083007812 22.9169921875 153.25 94.75 c 0
 85.4169921875 166.583007812 51.5 260.666992188 51.5 377 c 0
 51.5 496.333007812 89.25 594.583007812 164.75 671.75 c 0
 240.25 748.916992188 335.833007812 787.5 451.5 787.5 c 0
 536.833007812 787.5 607.333007812 773.666992188 663 746 c 1
 663 649.5 l 1
 601 689.166992188 527 709 441 709 c 0
 353.333007812 709 281.416992188 678.916992188 225.25 618.75 c 0
 169.083007812 558.583007812 141 480.166992188 141 383.5 c 0
 141 284.833007812 166.833007812 207 218.5 150 c 0
 270.166992188 93 341.166992188 64.5 431.5 64.5 c 0
 493.833007812 64.5 547.333007812 77 592 102 c 1
 592 323.5 l 1
 421.5 323.5 l 1
 421.5 401.5 l 1
 677.5 401.5 l 1
 677.5 53 l 1
EndSplineSet
EndChar

StartChar: H
Encoding: 39 72 39
Width: 781
VWidth: 1024
Flags: W
HStem: 0 21G<102.5 187.5 593.5 678.5> 355.5 77<187.5 593.5> 754.5 20G<102.5 187.5 593.5 678.5>
VStem: 102.5 85<0 355.5 432.5 774.5> 593.5 85<0 355.5 432.5 774.5>
LayerCount: 2
Fore
SplineSet
678.5 0 m 1
 593.5 0 l 1
 593.5 355.5 l 1
 187.5 355.5 l 1
 187.5 0 l 1
 102.5 0 l 1
 102.5 774.5 l 1
 187.5 774.5 l 1
 187.5 432.5 l 1
 593.5 432.5 l 1
 593.5 774.5 l 1
 678.5 774.5 l 1
 678.5 0 l 1
EndSplineSet
EndChar

StartChar: I
Encoding: 40 73 40
Width: 291
VWidth: 1024
Flags: W
HStem: 0 74.5<26 102.5 187.5 264> 700 74.5<26 102.5 187.5 264>
VStem: 26 238<0 74.5 700 774.5>
LayerCount: 2
Fore
SplineSet
264 700 m 1
 187.5 700 l 1
 187.5 74.5 l 1
 264 74.5 l 1
 264 0 l 1
 26 0 l 1
 26 74.5 l 1
 102.5 74.5 l 1
 102.5 700 l 1
 26 700 l 1
 26 774.5 l 1
 264 774.5 l 1
 264 700 l 1
EndSplineSet
EndChar

StartChar: J
Encoding: 41 74 41
Width: 388
VWidth: 1024
Flags: W
HStem: -13 77<12.4099 150.175> 754.5 20G<208 293>
VStem: 208 85<137.201 774.5>
LayerCount: 2
Fore
SplineSet
293 275.5 m 2
 293 177.166992188 274.166992188 104.5 236.5 57.5 c 0
 198.833007812 10.5 147.833007812 -13 83.5 -13 c 0
 54.8330078125 -13 30.8330078125 -8.8330078125 11.5 -0.5 c 1
 11.5 84 l 1
 30.8330078125 70.6669921875 55.5 64 85.5 64 c 0
 167.166992188 64 208 134.5 208 275.5 c 2
 208 774.5 l 1
 293 774.5 l 1
 293 275.5 l 2
EndSplineSet
EndChar

StartChar: K
Encoding: 42 75 42
Width: 636
VWidth: 1024
Flags: W
HStem: 0 21G<102.5 187.5 496.901 634.5> 381 29.5<187.5 200.716> 754.5 20G<102.5 187.5 487.6 611>
VStem: 102.5 85<0 381 410.5 774.5>
LayerCount: 2
Fore
SplineSet
634.5 0 m 1
 514 0 l 1
 210.5 355 l 2
 200.166992188 367.333007812 193.333007812 376 190 381 c 1
 187.5 381 l 1
 187.5 0 l 1
 102.5 0 l 1
 102.5 774.5 l 1
 187.5 774.5 l 1
 187.5 410.5 l 1
 190 410.5 l 1
 194.666992188 417.833007812 201.5 426.333007812 210.5 436 c 2
 505 774.5 l 1
 611 774.5 l 1
 275 403 l 1
 634.5 0 l 1
EndSplineSet
EndChar

StartChar: L
Encoding: 43 76 43
Width: 517
VWidth: 1024
Flags: W
HStem: 0 78<187.5 500.5> 754.5 20G<102.5 187.5>
VStem: 102.5 85<78 774.5>
LayerCount: 2
Fore
SplineSet
500.5 0 m 1
 102.5 0 l 1
 102.5 774.5 l 1
 187.5 774.5 l 1
 187.5 78 l 1
 500.5 78 l 1
 500.5 0 l 1
EndSplineSet
EndChar

StartChar: M
Encoding: 44 77 44
Width: 988
VWidth: 1024
Flags: W
HStem: 0 21G<102.5 185.5 466.449 522.508 801 886> 754.5 20G<102.5 222.391 771.866 886>
VStem: 102.5 83<0 671.203> 801 85<0 669.695>
LayerCount: 2
Fore
SplineSet
801 0 m 1
 801 523 l 2
 801 562.666992188 803.666992188 612.5 809 672.5 c 1
 806.5 672.5 l 1
 797.166992188 635.833007812 789.5 611.5 783.5 599.5 c 2
 513.5 0 l 1
 475.5 0 l 1
 206 595.5 l 2
 199 611.166992188 191.5 636.833007812 183.5 672.5 c 1
 181 672.5 l 1
 184 645.166992188 185.5 595.833007812 185.5 524.5 c 2
 185.5 0 l 1
 102.5 0 l 1
 102.5 774.5 l 1
 213.5 774.5 l 1
 456 229 l 2
 475 186 487 155.5 492 137.5 c 1
 495.5 137.5 l 1
 505.5 164.5 518 195.833007812 533 231.5 c 2
 781 774.5 l 1
 886 774.5 l 1
 886 0 l 1
 801 0 l 1
EndSplineSet
EndChar

StartChar: N
Encoding: 45 78 45
Width: 824
VWidth: 1024
Flags: W
HStem: 0 21G<102.5 188 602.082 722> 754.5 20G<102.5 228.198 636.5 722>
VStem: 102.5 85.5<0 671.236> 636.5 85.5<103.713 774.5>
LayerCount: 2
Fore
SplineSet
722 0 m 1
 615 0 l 1
 211 625.5 l 2
 202 640.166992188 194 655.666992188 187 672 c 1
 184 672 l 1
 186.666992188 656 188 621.333007812 188 568 c 2
 188 0 l 1
 102.5 0 l 1
 102.5 774.5 l 1
 215.5 774.5 l 1
 608.5 155.5 l 2
 628.5 123.5 639 105.833007812 640 102.5 c 1
 642 102.5 l 1
 638.333007812 128.166992188 636.5 167 636.5 219 c 2
 636.5 774.5 l 1
 722 774.5 l 1
 722 0 l 1
EndSplineSet
EndChar

StartChar: O
Encoding: 46 79 46
Width: 833
VWidth: 1024
Flags: W
HStem: -13 77<304.444 531.201> 709.5 78<310.326 534.574>
VStem: 51.5 89.5<249.982 521.572> 693 89<244.528 531.609>
LayerCount: 2
Fore
SplineSet
51.5 378 m 0
 51.5 502.333007812 85.25 601.666992188 152.75 676 c 0
 220.25 750.333007812 311.5 787.5 426.5 787.5 c 0
 533.166992188 787.5 619.083007812 751.166992188 684.25 678.5 c 0
 749.416992188 605.833007812 782 512.166992188 782 397.5 c 0
 782 273.833007812 749.083007812 174.5 683.25 99.5 c 0
 617.416992188 24.5 527.5 -13 413.5 -13 c 0
 304.5 -13 216.916992188 23.5 150.75 96.5 c 0
 84.5830078125 169.5 51.5 263.333007812 51.5 378 c 0
141 386 m 0
 141 293 165.666992188 216.083007812 215 155.25 c 0
 264.333007812 94.4169921875 330.333007812 64 413 64 c 0
 501.333007812 64 570.083007812 92.75 619.25 150.25 c 0
 668.416992188 207.75 693 285.833007812 693 384.5 c 0
 693 486.5 669.25 566.166992188 621.75 623.5 c 0
 574.25 680.833007812 507 709.5 420 709.5 c 0
 335.333007812 709.5 267.666992188 678.916992188 217 617.75 c 0
 166.333007812 556.583007812 141 479.333007812 141 386 c 0
EndSplineSet
EndChar

StartChar: P
Encoding: 47 80 47
Width: 615
VWidth: 1024
Flags: W
HStem: 0 21G<102.5 187.5> 294 79.5<187.5 396.426> 696 78.5<187.5 407.668>
VStem: 102.5 85<0 294 373.5 696> 480.5 89.5<451.749 628.243>
LayerCount: 2
Fore
SplineSet
187.5 294 m 1
 187.5 0 l 1
 102.5 0 l 1
 102.5 774.5 l 1
 311.5 774.5 l 2
 392.5 774.5 455.833007812 754.333007812 501.5 714 c 0
 547.166992188 673.666992188 570 617 570 544 c 0
 570 468 543.166992188 406.666992188 489.5 360 c 0
 435.833007812 313.333007812 369.666992188 291.333007812 291 294 c 1
 187.5 294 l 1
187.5 696 m 1
 187.5 373.5 l 1
 284.5 373.5 l 2
 348.166992188 373.5 396.75 387.916992188 430.25 416.75 c 0
 463.75 445.583007812 480.5 486.666992188 480.5 540 c 0
 480.5 644 419.166992188 696 296.5 696 c 2
 187.5 696 l 1
EndSplineSet
EndChar

StartChar: Q
Encoding: 48 81 48
Width: 833
VWidth: 1024
Flags: W
HStem: -208 81<629.157 796.981> -13 77<306.456 426.719> 709.5 78<311.656 534.149>
VStem: 51.5 89.5<247.338 523.747> 693 89<243.016 532.56>
LayerCount: 2
Fore
SplineSet
798 -197 m 1
 776 -204.333007812 749 -208 717 -208 c 0
 671 -208 627.416992188 -197.416992188 586.25 -176.25 c 0
 545.083007812 -155.083007812 486 -100.666992188 409 -13 c 1
 302 -13.6669921875 215.666992188 23.5 150 98.5 c 0
 84.3330078125 173.5 51.5 266.666992188 51.5 378 c 0
 51.5 503.666992188 85.0830078125 603.333007812 152.25 677 c 0
 219.416992188 750.666992188 311.666992188 787.5 429 787.5 c 0
 534 787.5 619.083007812 751.25 684.25 678.75 c 0
 749.416992188 606.25 782 512.5 782 397.5 c 0
 782 291.5 758.25 203.25 710.75 132.75 c 0
 663.25 62.25 596.166992188 17.6669921875 509.5 -1 c 1
 556.166992188 -51.6669921875 594.083007812 -85.3330078125 623.25 -102 c 0
 652.416992188 -118.666992188 684.666992188 -127 720 -127 c 0
 750.666992188 -127 776.666992188 -122.5 798 -113.5 c 1
 798 -197 l 1
141 386 m 256
 141 289.333007812 166.166992188 211.5 216.5 152.5 c 0
 266.833007812 93.5 332.333007812 64 413 64 c 0
 500 64 568.416992188 92.1669921875 618.25 148.5 c 0
 668.083007812 204.833007812 693 283.5 693 384.5 c 0
 693 488.166992188 668.75 568.25 620.25 624.75 c 0
 571.75 681.25 505 709.5 420 709.5 c 0
 337.666992188 709.5 270.583007812 679.75 218.75 620.25 c 0
 166.916992188 560.75 141 482.666992188 141 386 c 256
EndSplineSet
EndChar

StartChar: R
Encoding: 49 82 49
Width: 657
VWidth: 1024
Flags: W
HStem: 0 21G<102.5 187.5 537.073 651> 331.5 79<187.5 343.493> 695.5 79<187.5 412.617>
VStem: 102.5 85<0 331.5 410.5 695.5> 473.5 89.5<478.909 638.36>
LayerCount: 2
Fore
SplineSet
651 0 m 1
 549 0 l 1
 419 218 l 2
 391.333007812 264.666992188 366.166992188 295.25 343.5 309.75 c 0
 320.833007812 324.25 294.333007812 331.5 264 331.5 c 2
 187.5 331.5 l 1
 187.5 0 l 1
 102.5 0 l 1
 102.5 774.5 l 1
 330.5 774.5 l 2
 401.5 774.5 458 756.25 500 719.75 c 0
 542 683.25 563 632.833007812 563 568.5 c 0
 563 461.5 505.833007812 392 391.5 360 c 1
 391.5 358 l 1
 412.833007812 348.666992188 430.416992188 336.5 444.25 321.5 c 0
 458.083007812 306.5 478.833007812 276.833007812 506.5 232.5 c 2
 651 0 l 1
187.5 695.5 m 1
 187.5 410.5 l 1
 314 410.5 l 2
 361 410.5 399.333007812 424.25 429 451.75 c 0
 458.666992188 479.25 473.5 515.833007812 473.5 561.5 c 0
 473.5 603.5 460 636.333007812 433 660 c 0
 406 683.666992188 366.666992188 695.5 315 695.5 c 2
 187.5 695.5 l 1
EndSplineSet
EndChar

StartChar: S
Encoding: 50 83 50
Width: 585
VWidth: 1024
Flags: W
HStem: -13 78<154.917 385.755> 708.5 79<220.332 450.466>
VStem: 67.5 89.5<521.057 654.735> 442.5 89<115.734 255.375>
LayerCount: 2
Fore
SplineSet
66.5 134 m 1
 88.1669921875 114.333007812 119.416992188 97.9169921875 160.25 84.75 c 0
 201.083007812 71.5830078125 238.833007812 65 273.5 65 c 0
 386.166992188 65 442.5 106 442.5 188 c 0
 442.5 211 436.666992188 231.5 425 249.5 c 0
 413.333007812 267.5 397.583007812 283.083007812 377.75 296.25 c 0
 357.916992188 309.416992188 318.833007812 331 260.5 361 c 0
 176.5 404 123.333007812 441.5 101 473.5 c 0
 78.6669921875 505.5 67.5 541.666992188 67.5 582 c 0
 67.5 644.333007812 92.8330078125 694.166992188 143.5 731.5 c 0
 194.166992188 768.833007812 257.833007812 787.5 334.5 787.5 c 0
 411.833007812 787.5 466.666992188 778.333007812 499 760 c 1
 499 661.5 l 1
 453.666992188 692.833007812 395.166992188 708.5 323.5 708.5 c 0
 274.5 708.5 234.5 698.083007812 203.5 677.25 c 0
 172.5 656.416992188 157 627.166992188 157 589.5 c 0
 157 566.166992188 162.416992188 545.916992188 173.25 528.75 c 0
 184.083007812 511.583007812 198.833007812 496.666992188 217.5 484 c 0
 236.166992188 471.333007812 272.5 451.5 326.5 424.5 c 0
 402.5 386.833007812 455.666992188 350.083007812 486 314.25 c 0
 516.333007812 278.416992188 531.5 238.333007812 531.5 194 c 0
 531.5 128 507.5 77 459.5 41 c 0
 411.5 5 344.333007812 -13 258 -13 c 0
 231.666992188 -13 197.416992188 -8.6669921875 155.25 0 c 0
 113.083007812 8.6669921875 83.5 19.1669921875 66.5 31.5 c 1
 66.5 134 l 1
EndSplineSet
EndChar

StartChar: T
Encoding: 51 84 51
Width: 575
VWidth: 1024
Flags: W
HStem: 0 21G<245.5 331> 696.5 78<22.5 245.5 331 554.5>
VStem: 245.5 85.5<0 696.5>
LayerCount: 2
Fore
SplineSet
554.5 696.5 m 1
 331 696.5 l 1
 331 0 l 1
 245.5 0 l 1
 245.5 696.5 l 1
 22.5 696.5 l 1
 22.5 774.5 l 1
 554.5 774.5 l 1
 554.5 696.5 l 1
EndSplineSet
EndChar

StartChar: U
Encoding: 52 85 52
Width: 757
VWidth: 1024
Flags: W
HStem: -13 77<281.719 480.433> 754.5 20G<93 178 579.5 664.5>
VStem: 93 85<178.146 774.5> 579.5 85<169.531 774.5>
LayerCount: 2
Fore
SplineSet
664.5 311.5 m 2
 664.5 95.1669921875 567 -13 372 -13 c 0
 186 -13 93 91.1669921875 93 299.5 c 2
 93 774.5 l 1
 178 774.5 l 1
 178 305.5 l 2
 178 144.5 246.166992188 64 382.5 64 c 0
 513.833007812 64 579.5 141.666992188 579.5 297 c 2
 579.5 774.5 l 1
 664.5 774.5 l 1
 664.5 311.5 l 2
EndSplineSet
EndChar

StartChar: V
Encoding: 53 86 53
Width: 683
VWidth: 1024
Flags: W
HStem: 0 21G<284.718 392.937> 754.5 20G<10 112.044 574.283 673.5>
LayerCount: 2
Fore
SplineSet
673.5 774.5 m 1
 385.5 0 l 1
 292 0 l 1
 10 774.5 l 1
 105 774.5 l 1
 323 155.5 l 2
 329.666992188 136.5 334.833007812 113.833007812 338.5 87.5 c 1
 341 87.5 l 1
 343.333007812 108.5 349.166992188 131.5 358.5 156.5 c 2
 581.5 774.5 l 1
 673.5 774.5 l 1
EndSplineSet
EndChar

StartChar: W
Encoding: 54 87 54
Width: 1028
VWidth: 1024
Flags: W
HStem: 0 21G<237.099 347.187 688.338 800.168> 754.5 20G<14.5 114.109 476.224 568.034 915.147 1014>
LayerCount: 2
Fore
SplineSet
1014 774.5 m 1
 794.5 0 l 1
 694 0 l 1
 532.5 570.5 l 2
 525.5 595.5 521.333007812 621.666992188 520 649 c 1
 518 649 l 1
 516 622.333007812 511.333007812 596.5 504 571.5 c 2
 341.5 0 l 1
 243 0 l 1
 14.5 774.5 l 1
 108.5 774.5 l 1
 276.5 175.5 l 2
 283.833007812 149.166992188 288.166992188 123.333007812 289.5 98 c 1
 292.5 98 l 1
 294.166992188 116.666992188 299.666992188 142.5 309 175.5 c 2
 482 774.5 l 1
 562.5 774.5 l 1
 729.5 171 l 2
 734.833007812 152.333007812 739.166992188 128.333007812 742.5 99 c 1
 744.5 99 l 1
 745.833007812 119.666992188 750.833007812 144.333007812 759.5 173 c 2
 920.5 774.5 l 1
 1014 774.5 l 1
EndSplineSet
EndChar

StartChar: X
Encoding: 55 88 55
Width: 648
VWidth: 1024
Flags: W
HStem: 0 21G<14.5 132.454 514.38 630.5> 754.5 20G<35 151.709 516.743 627.5>
LayerCount: 2
Fore
SplineSet
630.5 0 m 1
 526.5 0 l 1
 345 299.5 l 2
 340 307.833007812 334 320.333007812 327 337 c 1
 324.5 337 l 1
 324.166992188 335.333007812 318.166992188 322.833007812 306.5 299.5 c 1
 120 0 l 1
 14.5 0 l 1
 274.5 389.5 l 1
 35 774.5 l 1
 140 774.5 l 1
 301 499.5 l 2
 311.666992188 481.166992188 321 463.333007812 329 446 c 1
 331 446 l 1
 343 470.666992188 353.333007812 489.333007812 362 502 c 2
 529 774.5 l 1
 627.5 774.5 l 1
 383.5 390.5 l 1
 630.5 0 l 1
EndSplineSet
EndChar

StartChar: Y
Encoding: 56 89 56
Width: 607
VWidth: 1024
Flags: W
HStem: 0 21G<259.5 345> 754.5 20G<10 117.444 499.548 600.5>
VStem: 259.5 85.5<0 285>
LayerCount: 2
Fore
SplineSet
600.5 774.5 m 1
 345 286.5 l 1
 345 0 l 1
 259.5 0 l 1
 259.5 285 l 1
 10 774.5 l 1
 107.5 774.5 l 1
 283.5 420.5 l 2
 286.166992188 415.166992188 292.5 399.666992188 302.5 374 c 1
 304 374 l 1
 307.666992188 385.666992188 314.666992188 401.166992188 325 420.5 c 2
 510 774.5 l 1
 600.5 774.5 l 1
EndSplineSet
EndChar

StartChar: Z
Encoding: 57 90 57
Width: 628
VWidth: 1024
Flags: W
HStem: 0 78<147 593> 696.5 78<54 470.5>
LayerCount: 2
Fore
SplineSet
604.5 758 m 1
 147 78 l 1
 593 78 l 1
 593 0 l 1
 18 0 l 1
 18 20.5 l 1
 470.5 696.5 l 1
 54 696.5 l 1
 54 774.5 l 1
 604.5 774.5 l 1
 604.5 758 l 1
EndSplineSet
EndChar

StartChar: bracketleft
Encoding: 58 91 58
Width: 328
VWidth: 1024
Flags: W
HStem: -176 61<182.5 302.5> 713 61.5<182.5 302.5>
VStem: 107.5 195<-176 -115 713 774.5> 107.5 75<-115 713>
LayerCount: 2
Fore
SplineSet
302.5 -176 m 1xe0
 107.5 -176 l 1
 107.5 774.5 l 1
 302.5 774.5 l 1
 302.5 713 l 1xe0
 182.5 713 l 1
 182.5 -115 l 1xd0
 302.5 -115 l 1
 302.5 -176 l 1xe0
EndSplineSet
EndChar

StartChar: backslash
Encoding: 59 92 59
Width: 415
VWidth: 1024
Flags: W
HStem: 754.5 20G<-15 71.9867>
LayerCount: 2
Fore
SplineSet
425 -129.5 m 1
 348.5 -129.5 l 1
 -15 774.5 l 1
 64 774.5 l 1
 425 -129.5 l 1
EndSplineSet
EndChar

StartChar: bracketright
Encoding: 60 93 60
Width: 328
VWidth: 1024
Flags: W
HStem: -176 61<28 148> 713 61.5<28 148>
VStem: 28 194.5<-176 -115 713 774.5> 148 74.5<-115 713>
LayerCount: 2
Fore
SplineSet
222.5 -176 m 1xe0
 28 -176 l 1
 28 -115 l 1xe0
 148 -115 l 1
 148 713 l 1xd0
 28 713 l 1
 28 774.5 l 1
 222.5 774.5 l 1
 222.5 -176 l 1xe0
EndSplineSet
EndChar

StartChar: asciicircum
Encoding: 61 94 61
Width: 755
VWidth: 1024
Flags: W
HStem: 767.5 20G<342.389 395>
LayerCount: 2
Fore
SplineSet
631.5 337.5 m 1
 553.5 337.5 l 1
 372.5 672.5 l 1
 369.5 672.5 l 1
 201 337.5 l 1
 125 337.5 l 1
 352.5 787.5 l 1
 384 787.5 l 1
 631.5 337.5 l 1
EndSplineSet
EndChar

StartChar: underscore
Encoding: 62 95 62
Width: 459
VWidth: 1024
Flags: W
HStem: -160.5 64.5<0 459>
LayerCount: 2
Fore
SplineSet
459 -160.5 m 1
 0 -160.5 l 1
 0 -96 l 1
 459 -96 l 1
 459 -160.5 l 1
EndSplineSet
EndChar

StartChar: grave
Encoding: 63 96 63
Width: 293
VWidth: 1024
Flags: W
HStem: 640.5 174.5
VStem: 45.5 204.5
LayerCount: 2
Fore
SplineSet
250 640.5 m 1
 185 640.5 l 1
 45.5 815 l 1
 132 815 l 1
 250 640.5 l 1
EndSplineSet
EndChar

StartChar: a
Encoding: 64 97 64
Width: 560
VWidth: 1024
Flags: W
HStem: -13 71.5<171.769 318.86> 0 21G<399 482.5> 494 72<176.765 355.608>
VStem: 49.5 87<92.3907 220.348> 399 83.5<0 87 137.983 280.5 350 445.871>
LayerCount: 2
Fore
SplineSet
103.5 513.5 m 1xb8
 157.833007812 548.5 220 566 290 566 c 0
 418.333007812 566 482.5 497.833007812 482.5 361.5 c 2
 482.5 0 l 1
 399 0 l 1x78
 399 87 l 1
 396 87 l 1
 357.666992188 20.3330078125 301 -13 226 -13 c 0
 171.333007812 -13 128.25 1.5830078125 96.75 30.75 c 0
 65.25 59.9169921875 49.5 98.5 49.5 146.5 c 0
 49.5 248.833007812 110.166992188 308.666992188 231.5 326 c 2
 398.5 350 l 1
 398.5 446 360.166992188 494 283.5 494 c 0
 216.5 494 156.5 471.166992188 103.5 425.5 c 1
 103.5 513.5 l 1xb8
263 262.5 m 2
 215.666992188 256.166992188 182.75 244.75 164.25 228.25 c 0
 145.75 211.75 136.5 186.333007812 136.5 152 c 0
 136.5 124.333007812 146.416992188 101.833007812 166.25 84.5 c 0
 186.083007812 67.1669921875 212 58.5 244 58.5 c 0xb8
 288.333007812 58.5 325.166992188 74.3330078125 354.5 106 c 0
 383.833007812 137.666992188 398.5 177.166992188 398.5 224.5 c 2
 398.5 280.5 l 1
 263 262.5 l 2
EndSplineSet
EndChar

StartChar: b
Encoding: 65 98 65
Width: 647
VWidth: 1024
Flags: W
HStem: -13 71<253.906 417.256> 0 21G<90.5 174> 495 71<269.492 429.589> 798.5 20G<90.5 174>
VStem: 90.5 83.5<0 81 139.922 400.056 455 818.5> 510 85.5<167.787 405.21>
LayerCount: 2
Fore
SplineSet
174 81 m 1xbc
 174 0 l 1
 90.5 0 l 1x7c
 90.5 818.5 l 1
 174 818.5 l 1
 174 455 l 1
 176.5 455 l 1
 220.166992188 529 284 566 368 566 c 0
 438.333007812 566 493.833007812 541.166992188 534.5 491.5 c 0
 575.166992188 441.833007812 595.5 375.5 595.5 292.5 c 0
 595.5 200.5 572.75 126.583007812 527.25 70.75 c 0
 481.75 14.9169921875 420.166992188 -13 342.5 -13 c 0
 269.5 -13 214.166992188 18.3330078125 176.5 81 c 1
 174 81 l 1xbc
174 224.5 m 2
 174 177.5 189.583007812 138 220.75 106 c 0
 251.916992188 74 290 58 335 58 c 0xbc
 389.333007812 58 432.083007812 79 463.25 121 c 0
 494.416992188 163 510 221 510 295 c 0
 510 356.666992188 495.5 405.416992188 466.5 441.25 c 0
 437.5 477.083007812 398.333007812 495 349 495 c 0
 298 495 256.083007812 476.916992188 223.25 440.75 c 0
 190.416992188 404.583007812 174 358.833007812 174 303.5 c 2
 174 224.5 l 2
EndSplineSet
EndChar

StartChar: c
Encoding: 66 99 66
Width: 509
VWidth: 1024
Flags: W
HStem: -13 71<235.771 421.331> 495 71<244.118 428.01>
VStem: 53 85<161.46 381.237>
LayerCount: 2
Fore
SplineSet
465 26 m 1
 422 0 372 -13 315 -13 c 0
 236.666992188 -13 173.416992188 12.5830078125 125.25 63.75 c 0
 77.0830078125 114.916992188 53 181.5 53 263.5 c 0
 53 355.166992188 79 428.5 131 483.5 c 0
 183 538.5 252.166992188 566 338.5 566 c 0
 386.166992188 566 428.666992188 557 466 539 c 1
 466 451.5 l 1
 424.666992188 480.5 380.5 495 333.5 495 c 0
 276.833007812 495 230.083007812 474.583007812 193.25 433.75 c 0
 156.416992188 392.916992188 138 338.666992188 138 271 c 0
 138 205 155.166992188 153 189.5 115 c 0
 223.833007812 77 270 58 328 58 c 0
 377 58 422.666992188 74.1669921875 465 106.5 c 1
 465 26 l 1
EndSplineSet
EndChar

StartChar: d
Encoding: 67 100 67
Width: 649
VWidth: 1024
Flags: W
HStem: -13 71<223.408 382.838> 0 21G<475 558> 495 71<229.675 396.476> 798.5 20G<475 558>
VStem: 53 85<155.342 389.312> 475 83<0 95 150.226 416.574 475.5 818.5>
LayerCount: 2
Fore
SplineSet
558 0 m 1x7c
 475 0 l 1x7c
 475 95 l 1
 473 95 l 1
 432 23 368.333007812 -13 282 -13 c 0xbc
 212 -13 156.333007812 11.9169921875 115 61.75 c 0
 73.6669921875 111.583007812 53 178.833007812 53 263.5 c 0
 53 354.166992188 76.1669921875 427.25 122.5 482.75 c 0
 168.833007812 538.25 230 566 306 566 c 256
 382 566 437.666992188 535.833007812 473 475.5 c 1
 475 475.5 l 1
 475 818.5 l 1
 558 818.5 l 1
 558 0 l 1x7c
475 333 m 2
 475 378.333007812 459.583007812 416.666992188 428.75 448 c 0
 397.916992188 479.333007812 360.166992188 495 315.5 495 c 0
 260.166992188 495 216.75 474.583007812 185.25 433.75 c 0
 153.75 392.916992188 138 337.666992188 138 268 c 0
 138 204.333007812 153.083007812 153.416992188 183.25 115.25 c 0
 213.416992188 77.0830078125 254 58 305 58 c 0xbc
 354 58 394.583007812 75.9169921875 426.75 111.75 c 0
 458.916992188 147.583007812 475 193.333007812 475 249 c 2
 475 333 l 2
EndSplineSet
EndChar

StartChar: e
Encoding: 68 101 68
Width: 577
VWidth: 1024
Flags: W
HStem: -13 71.5<227.774 426.05> 256 73.5<140.5 445.5> 494 72<226.74 382.731>
VStem: 53 86.5<153.375 256 329.5 396.598> 445.5 86<329.5 426.953>
LayerCount: 2
Fore
SplineSet
531.5 256 m 1
 139.5 256 l 1
 141.166992188 192.333007812 158 143.5 190 109.5 c 0
 222 75.5 265.833007812 58.5 321.5 58.5 c 0
 383.833007812 58.5 441.333007812 79.3330078125 494 121 c 1
 494 41 l 1
 445.666992188 5 381.666992188 -13 302 -13 c 0
 225 -13 164.25 12.1669921875 119.75 62.5 c 0
 75.25 112.833007812 53 183.666992188 53 275 c 0
 53 359 77.0830078125 428.5 125.25 483.5 c 0
 173.416992188 538.5 233.666992188 566 306 566 c 0
 377 566 432.333007812 542.666992188 472 496 c 0
 511.666992188 449.333007812 531.5 384.333007812 531.5 301 c 2
 531.5 256 l 1
445.5 329.5 m 1
 445.166992188 381.5 432.666992188 421.916992188 408 450.75 c 0
 383.333007812 479.583007812 348.833007812 494 304.5 494 c 0
 264.166992188 494 228.75 479.5 198.25 450.5 c 0
 167.75 421.5 148.5 381.166992188 140.5 329.5 c 1
 445.5 329.5 l 1
EndSplineSet
EndChar

StartChar: f
Encoding: 69 102 69
Width: 341
VWidth: 1024
Flags: W
HStem: 0 21G<123.5 206> 481 72<29 123.5 206 335.5> 759 71.5<236.834 357.731>
VStem: 123.5 82.5<0 481 553 726.244>
LayerCount: 2
Fore
SplineSet
358.5 744.5 m 1
 340.833007812 754.166992188 321.166992188 759 299.5 759 c 0
 237.166992188 759 206 719.333007812 206 640 c 2
 206 553 l 1
 335.5 553 l 1
 335.5 481 l 1
 206 481 l 1
 206 0 l 1
 123.5 0 l 1
 123.5 481 l 1
 29 481 l 1
 29 553 l 1
 123.5 553 l 1
 123.5 644 l 2
 123.5 702.333007812 140.083007812 748 173.25 781 c 0
 206.416992188 814 247.166992188 830.5 295.5 830.5 c 0
 322.5 830.5 343.5 827.333007812 358.5 821 c 1
 358.5 744.5 l 1
EndSplineSet
EndChar

StartChar: g
Encoding: 70 103 70
Width: 649
VWidth: 1024
Flags: W
HStem: -260.5 72.5<157.091 376.493> -13 71<223.138 383.233> 495 71<231.114 395.992> 533 20G<475 558>
VStem: 53 85<153.648 388.861> 475 83<-82.3009 94 150.226 416.241 475.5 553>
LayerCount: 2
Fore
SplineSet
558 43.5 m 2xdc
 558 -159.166992188 462 -260.5 270 -260.5 c 0
 202 -260.5 142.166992188 -247.333007812 90.5 -221 c 1
 90.5 -136 l 1
 152.833007812 -170.666992188 212.5 -188 269.5 -188 c 0
 406.5 -188 475 -114.5 475 32.5 c 2
 475 94 l 1
 473 94 l 1
 429.666992188 22.6669921875 366 -13 282 -13 c 0
 212.666992188 -13 157.166992188 11.8330078125 115.5 61.5 c 0
 73.8330078125 111.166992188 53 176.833007812 53 258.5 c 0
 53 352.833007812 75.8330078125 427.666992188 121.5 483 c 0
 167.166992188 538.333007812 228.666992188 566 306 566 c 0xec
 381 566 436.666992188 535.833007812 473 475.5 c 1
 475 475.5 l 1
 475 553 l 1
 558 553 l 1
 558 43.5 l 2xdc
475 333 m 2
 475 378 459.5 416.25 428.5 447.75 c 0
 397.5 479.25 360.166992188 495 316.5 495 c 0
 261.166992188 495 217.583007812 474.666992188 185.75 434 c 0
 153.916992188 393.333007812 138 336.833007812 138 264.5 c 0
 138 201.833007812 153.333007812 151.75 184 114.25 c 0
 214.666992188 76.75 254.5 58 303.5 58 c 0
 353.166992188 58 394.166992188 75.9169921875 426.5 111.75 c 0
 458.833007812 147.583007812 475 193.333007812 475 249 c 2
 475 333 l 2
EndSplineSet
EndChar

StartChar: h
Encoding: 71 104 71
Width: 623
VWidth: 1024
Flags: W
HStem: 0 21G<90.5 174 462 545> 495 71<262.446 403.789> 798.5 20G<90.5 174>
VStem: 90.5 83.5<0 409.293 460.5 818.5> 462 83<0 428.366>
LayerCount: 2
Fore
SplineSet
545 0 m 1
 462 0 l 1
 462 319 l 2
 462 436.333007812 418.166992188 495 330.5 495 c 0
 286.166992188 495 249 478 219 444 c 0
 189 410 174 366.333007812 174 313 c 2
 174 0 l 1
 90.5 0 l 1
 90.5 818.5 l 1
 174 818.5 l 1
 174 460.5 l 1
 176.5 460.5 l 1
 218.833007812 530.833007812 279.5 566 358.5 566 c 0
 482.833007812 566 545 490.833007812 545 340.5 c 2
 545 0 l 1
EndSplineSet
EndChar

StartChar: i
Encoding: 72 105 72
Width: 265
VWidth: 1024
Flags: W
HStem: 0 21G<91 174> 533 20G<91 174> 697 111<95.7438 172.74>
VStem: 79.5 110<714.017 790.983> 91 83<0 553>
LayerCount: 2
Fore
SplineSet
79.5 752 m 0xf0
 79.5 767.666992188 84.75 780.916992188 95.25 791.75 c 0
 105.75 802.583007812 118.5 808 133.5 808 c 0
 149.166992188 808 162.416992188 802.5 173.25 791.5 c 0
 184.083007812 780.5 189.5 767.333007812 189.5 752 c 0
 189.5 737.333007812 184.083007812 724.5 173.25 713.5 c 0
 162.416992188 702.5 149.166992188 697 133.5 697 c 256
 117.833007812 697 104.916992188 702.333007812 94.75 713 c 0
 84.5830078125 723.666992188 79.5 736.666992188 79.5 752 c 0xf0
91 0 m 1xe8
 91 553 l 1
 174 553 l 1
 174 0 l 1
 91 0 l 1xe8
EndSplineSet
EndChar

StartChar: j
Encoding: 73 106 73
Width: 265
VWidth: 1024
Flags: W
HStem: -260.5 72.5<-105.355 34.8924> 533 20G<90.5 173.5> 697 111<94.9863 172.74>
VStem: 79 110.5<714.017 790.983> 90.5 83<-121.879 553>
LayerCount: 2
Fore
SplineSet
79 752 m 0xf0
 79 767.666992188 84.1669921875 780.916992188 94.5 791.75 c 0
 104.833007812 802.583007812 117.833007812 808 133.5 808 c 256
 149.166992188 808 162.416992188 802.5 173.25 791.5 c 0
 184.083007812 780.5 189.5 767.333007812 189.5 752 c 0
 189.5 737.333007812 184.083007812 724.5 173.25 713.5 c 0
 162.416992188 702.5 149.166992188 697 133.5 697 c 0
 117.5 697 104.416992188 702.333007812 94.25 713 c 0
 84.0830078125 723.666992188 79 736.666992188 79 752 c 0xf0
173.5 24 m 2xe8
 173.5 -66.6669921875 155.25 -136.75 118.75 -186.25 c 0
 82.25 -235.75 30.5 -260.5 -36.5 -260.5 c 0
 -61.1669921875 -260.5 -85.5 -254.666992188 -109.5 -243 c 1
 -109.5 -164 l 1
 -82.5 -180 -57 -188 -33 -188 c 0
 49.3330078125 -188 90.5 -122.333007812 90.5 9 c 2
 90.5 553 l 1
 173.5 553 l 1
 173.5 24 l 2xe8
EndSplineSet
EndChar

StartChar: k
Encoding: 74 107 74
Width: 545
VWidth: 1024
Flags: W
HStem: 0 21G<90.5 174 406.245 543.5> 533 20G<393.881 523> 798.5 20G<90.5 174>
VStem: 90.5 83.5<0 265 299.5 818.5>
LayerCount: 2
Fore
SplineSet
543.5 0 m 1
 425 0 l 1
 176.5 265 l 1
 174 265 l 1
 174 0 l 1
 90.5 0 l 1
 90.5 818.5 l 1
 174 818.5 l 1
 174 299.5 l 1
 176.5 299.5 l 1
 412.5 553 l 1
 523 553 l 1
 263 285.5 l 1
 543.5 0 l 1
EndSplineSet
EndChar

StartChar: l
Encoding: 75 108 75
Width: 265
VWidth: 1024
Flags: W
HStem: 0 21G<91 174> 798.5 20G<91 174>
VStem: 91 83<0 818.5>
LayerCount: 2
Fore
SplineSet
91 0 m 1
 91 818.5 l 1
 174 818.5 l 1
 174 0 l 1
 91 0 l 1
EndSplineSet
EndChar

StartChar: m
Encoding: 76 109 76
Width: 948
VWidth: 1024
Flags: W
HStem: 0 21G<90.5 174 439 522 786.5 870> 495 71<255.713 386.376 594.734 737.116> 533 20G<90.5 174>
VStem: 90.5 83.5<0 417.531 465.5 553> 439 83<0 409.244> 786.5 83.5<0 439.156>
LayerCount: 2
Fore
SplineSet
870 0 m 1xdc
 786.5 0 l 1
 786.5 317.5 l 2
 786.5 381.833007812 776.75 427.5 757.25 454.5 c 0
 737.75 481.5 705.5 495 660.5 495 c 0
 622.833007812 495 590.333007812 477.333007812 563 442 c 0
 535.666992188 406.666992188 522 364.666992188 522 316 c 2
 522 0 l 1
 439 0 l 1
 439 329 l 2
 439 439.666992188 396.166992188 495 310.5 495 c 0xdc
 271.166992188 495 238.583007812 478.166992188 212.75 444.5 c 0
 186.916992188 410.833007812 174 368 174 316 c 2
 174 0 l 1
 90.5 0 l 1
 90.5 553 l 1
 174 553 l 1xbc
 174 465.5 l 1
 176.5 465.5 l 1
 215.166992188 532.5 272.166992188 566 347.5 566 c 0
 383.5 566 415.916992188 555.416992188 444.75 534.25 c 0
 473.583007812 513.083007812 493.166992188 485.166992188 503.5 450.5 c 1
 544.5 527.5 605.833007812 566 687.5 566 c 0
 809.166992188 566 870 490.833007812 870 340.5 c 2
 870 0 l 1xdc
EndSplineSet
EndChar

StartChar: n
Encoding: 77 110 77
Width: 623
VWidth: 1024
Flags: W
HStem: 0 21G<90.5 174 461.5 545> 495 71<261.349 405.435> 533 20G<90.5 174>
VStem: 90.5 83.5<0 411.051 460.5 553> 461.5 83.5<0 430.527>
LayerCount: 2
Fore
SplineSet
545 0 m 1xd8
 461.5 0 l 1
 461.5 316 l 2
 461.5 435.333007812 417.833007812 495 330.5 495 c 0xd8
 284.833007812 495 247.333007812 477.916992188 218 443.75 c 0
 188.666992188 409.583007812 174 366.833007812 174 315.5 c 2
 174 0 l 1
 90.5 0 l 1
 90.5 553 l 1
 174 553 l 1xb8
 174 460.5 l 1
 176.5 460.5 l 1
 217.833007812 530.833007812 278.333007812 566 358 566 c 0
 418.666992188 566 465 546.5 497 507.5 c 0
 529 468.5 545 412 545 338 c 2
 545 0 l 1xd8
EndSplineSet
EndChar

StartChar: o
Encoding: 78 111 78
Width: 646
VWidth: 1024
Flags: W
HStem: -13 71<235.662 418.118> 495 71<236.474 417.6>
VStem: 53 85<163.635 389.595> 508.5 85<156.912 395.02>
LayerCount: 2
Fore
SplineSet
53 269.5 m 0
 53 361.5 78.0830078125 433.916992188 128.25 486.75 c 0
 178.416992188 539.583007812 246.666992188 566 333 566 c 0
 414.333007812 566 478.083007812 540.5 524.25 489.5 c 0
 570.416992188 438.5 593.5 368 593.5 278 c 0
 593.5 190.666992188 568.5 120.333007812 518.5 67 c 0
 468.5 13.6669921875 402.333007812 -13 320 -13 c 0
 240.333007812 -13 175.916992188 12.6669921875 126.75 64 c 0
 77.5830078125 115.333007812 53 183.833007812 53 269.5 c 0
138 273 m 0
 138 207.666992188 155.083007812 155.5 189.25 116.5 c 0
 223.416992188 77.5 269 58 326 58 c 0
 384 58 428.916992188 77 460.75 115 c 0
 492.583007812 153 508.5 206.333007812 508.5 275 c 0
 508.5 345.333007812 492.75 399.583007812 461.25 437.75 c 0
 429.75 475.916992188 384.666992188 495 326 495 c 0
 268.666992188 495 223 475.25 189 435.75 c 0
 155 396.25 138 342 138 273 c 0
EndSplineSet
EndChar

StartChar: p
Encoding: 79 112 79
Width: 647
VWidth: 1024
Flags: W
HStem: -254.5 21G<90.5 174> -13 71<254.111 417.256> 495 71<268.711 430.111> 533 20G<90.5 174>
VStem: 90.5 83.5<-254.5 81 138.482 400.782 455 553> 510 85.5<167.787 406.011>
LayerCount: 2
Fore
SplineSet
174 81 m 1xec
 174 -254.5 l 1
 90.5 -254.5 l 1
 90.5 553 l 1
 174 553 l 1xdc
 174 455 l 1
 176.5 455 l 1
 220.166992188 529 284 566 368 566 c 0
 438.333007812 566 493.833007812 541.416992188 534.5 492.25 c 0
 575.166992188 443.083007812 595.5 376.5 595.5 292.5 c 0
 595.5 200.5 572.75 126.583007812 527.25 70.75 c 0
 481.75 14.9169921875 420.166992188 -13 342.5 -13 c 0
 270.5 -13 215.166992188 18.3330078125 176.5 81 c 1
 174 81 l 1xec
174 224 m 2
 174 177.666992188 189.5 138.416992188 220.5 106.25 c 0
 251.5 74.0830078125 289.666992188 58 335 58 c 0
 389.333007812 58 432.083007812 79 463.25 121 c 0
 494.416992188 163 510 221 510 295 c 0
 510 357.333007812 495.333007812 406.25 466 441.75 c 0
 436.666992188 477.25 397.666992188 495 349 495 c 0xec
 298.333007812 495 256.5 477.083007812 223.5 441.25 c 0
 190.5 405.416992188 174 359.666992188 174 304 c 2
 174 224 l 2
EndSplineSet
EndChar

StartChar: q
Encoding: 80 113 80
Width: 649
VWidth: 1024
Flags: W
HStem: -254.5 21G<475 558> -13 71<221.474 384.886> 495 71<229.803 397.852> 533 20G<475 558>
VStem: 53 85<151.664 390.318> 475 83<-254.5 96 149.483 414.714 475.5 553>
LayerCount: 2
Fore
SplineSet
558 -254.5 m 1xdc
 475 -254.5 l 1
 475 96 l 1
 473 96 l 1
 434.333007812 23.3330078125 371 -13 283 -13 c 0
 213 -13 157.166992188 11.6669921875 115.5 61 c 0
 73.8330078125 110.333007812 53 177.833007812 53 263.5 c 0
 53 355.166992188 76 428.5 122 483.5 c 0
 168 538.5 229.833007812 566 307.5 566 c 0xec
 383.5 566 438.666992188 535.833007812 473 475.5 c 1
 475 475.5 l 1
 475 553 l 1
 558 553 l 1
 558 -254.5 l 1xdc
475 331 m 2
 475 376 460 414.583007812 430 446.75 c 0
 400 478.916992188 361.5 495 314.5 495 c 0
 260.166992188 495 217.166992188 474.916992188 185.5 434.75 c 0
 153.833007812 394.583007812 138 338.166992188 138 265.5 c 0
 138 200.5 153.166992188 149.666992188 183.5 113 c 0
 213.833007812 76.3330078125 253.166992188 58 301.5 58 c 0
 355.5 58 397.916992188 76.25 428.75 112.75 c 0
 459.583007812 149.25 475 194.333007812 475 248 c 2
 475 331 l 2
EndSplineSet
EndChar

StartChar: r
Encoding: 81 114 81
Width: 381
VWidth: 1024
Flags: W
HStem: 0 21G<90.5 174> 485 77.5<249.08 373.847> 533 20G<90.5 174>
VStem: 90.5 83.5<0 399.203 438.5 553>
LayerCount: 2
Fore
SplineSet
374.5 467.5 m 1xd0
 359.166992188 479.166992188 337 485 308 485 c 0xd0
 269 485 236.916992188 466.416992188 211.75 429.25 c 0
 186.583007812 392.083007812 174 343.333007812 174 283 c 2
 174 0 l 1
 90.5 0 l 1
 90.5 553 l 1
 174 553 l 1xb0
 174 438.5 l 1
 176.5 438.5 l 1
 189.166992188 477.833007812 208.5 508.333007812 234.5 530 c 0
 260.5 551.666992188 289.166992188 562.5 320.5 562.5 c 0
 344.166992188 562.5 362.166992188 560 374.5 555 c 1
 374.5 467.5 l 1xd0
EndSplineSet
EndChar

StartChar: s
Encoding: 82 115 82
Width: 467
VWidth: 1024
Flags: W
HStem: -13 72<110.873 305.439> 494 72<174.331 359.858>
VStem: 57 86<359.438 464.37> 333 86<85.7126 191.764>
LayerCount: 2
Fore
SplineSet
56 112.5 m 1
 104.333007812 76.8330078125 157.333007812 59 215 59 c 0
 293.666992188 59 333 85.5 333 138.5 c 0
 333 161.833007812 324.416992188 180.833007812 307.25 195.5 c 0
 290.083007812 210.166992188 256.333007812 227 206 246 c 0
 146 269.666992188 106.166992188 293.5 86.5 317.5 c 0
 66.8330078125 341.5 57 371.333007812 57 407 c 0
 57 454.333007812 77.25 492.666992188 117.75 522 c 0
 158.25 551.333007812 208 566 267 566 c 0
 314.333007812 566 356.666992188 557.666992188 394 541 c 1
 394 454 l 1
 353.333007812 480.666992188 306.5 494 253.5 494 c 0
 220.833007812 494 194.25 486.666992188 173.75 472 c 0
 153.25 457.333007812 143 438 143 414 c 256
 143 390 150.083007812 371.666992188 164.25 359 c 0
 178.416992188 346.333007812 210.333007812 329.833007812 260 309.5 c 0
 323 285.5 365.25 261.25 386.75 236.75 c 0
 408.25 212.25 419 182.166992188 419 146.5 c 0
 419 97.1669921875 398.75 58.25 358.25 29.75 c 0
 317.75 1.25 265.833007812 -13 202.5 -13 c 0
 145.5 -13 96.6669921875 -1.8330078125 56 20.5 c 1
 56 112.5 l 1
EndSplineSet
EndChar

StartChar: t
Encoding: 83 116 83
Width: 371
VWidth: 1024
Flags: W
HStem: -12 71<223.539 341.16> 481 72<23 119 202 342>
VStem: 119 83<83.7579 481 553 689>
LayerCount: 2
Fore
SplineSet
342 5.5 m 1
 321.666992188 -6.1669921875 294.833007812 -12 261.5 -12 c 0
 166.5 -12 119 41.5 119 148.5 c 2
 119 481 l 1
 23 481 l 1
 23 553 l 1
 119 553 l 1
 119 689 l 1
 202 716 l 1
 202 553 l 1
 342 553 l 1
 342 481 l 1
 202 481 l 1
 202 163.5 l 2
 202 125.833007812 208.333007812 99 221 83 c 0
 233.666992188 67 254.833007812 59 284.5 59 c 0
 307.5 59 326.666992188 65.1669921875 342 77.5 c 1
 342 5.5 l 1
EndSplineSet
EndChar

StartChar: u
Encoding: 84 117 84
Width: 623
VWidth: 1024
Flags: W
HStem: -13 71<220.015 370.589> 0 21G<449.5 533> 533 20G<79 161.5 449.5 533>
VStem: 79 82.5<125.046 553> 449.5 83.5<0 87.5 137.559 553>
LayerCount: 2
Fore
SplineSet
533 0 m 1x78
 449.5 0 l 1x78
 449.5 87.5 l 1
 447.5 87.5 l 1
 411.166992188 20.5 354.333007812 -13 277 -13 c 0
 145 -13 79 65.5 79 222.5 c 2
 79 553 l 1
 161.5 553 l 1
 161.5 236.5 l 2
 161.5 117.5 206.833007812 58 297.5 58 c 0xb8
 342.166992188 58 378.666992188 74.5 407 107.5 c 0
 435.333007812 140.5 449.5 182.833007812 449.5 234.5 c 2
 449.5 553 l 1
 533 553 l 1
 533 0 l 1x78
EndSplineSet
EndChar

StartChar: v
Encoding: 85 118 85
Width: 525
VWidth: 1024
Flags: W
HStem: 0 21G<210.405 306.011> 533 20G<8 107.02 424.147 519.5>
LayerCount: 2
Fore
SplineSet
519.5 553 m 1
 298 0 l 1
 218 0 l 1
 8 553 l 1
 100 553 l 1
 242.5 147 l 2
 253.5 115.666992188 260 90.5 262 71.5 c 1
 264.5 71.5 l 1
 268.833007812 101.833007812 274.5 126.333007812 281.5 145 c 2
 431.5 553 l 1
 519.5 553 l 1
EndSplineSet
EndChar

StartChar: w
Encoding: 86 119 86
Width: 793
VWidth: 1024
Flags: W
HStem: 0 21G<175.424 270.752 522.207 620.504> 533 20G<13.5 106.578 362.811 450.541 692.53 780.5>
LayerCount: 2
Fore
SplineSet
780.5 553 m 1
 614.5 0 l 1
 528 0 l 1
 412 400.5 l 2
 407.666992188 415.5 404.833007812 432.166992188 403.5 450.5 c 1
 401.5 450.5 l 1
 401.166992188 441.166992188 397.333007812 424.833007812 390 401.5 c 2
 264.5 0 l 1
 181.5 0 l 1
 13.5 553 l 1
 101 553 l 1
 218 133.5 l 2
 221.666992188 120.166992188 224.166992188 103.833007812 225.5 84.5 c 1
 229.5 84.5 l 1
 230.833007812 99.8330078125 234.166992188 116.5 239.5 134.5 c 2
 369 553 l 1
 445 553 l 1
 561.5 132.5 l 2
 564.5 121.166992188 567.166992188 104.833007812 569.5 83.5 c 1
 574 83.5 l 1
 574.333007812 97.1669921875 577.333007812 113.5 583 132.5 c 2
 698 553 l 1
 780.5 553 l 1
EndSplineSet
EndChar

StartChar: x
Encoding: 87 120 87
Width: 501
VWidth: 1024
Flags: W
HStem: 0 21G<14.5 122.952 373.379 483> 533 20G<22.5 131.263 382.435 486>
LayerCount: 2
Fore
SplineSet
486 553 m 1
 300.5 272 l 1
 483 0 l 1
 385.5 0 l 1
 275.5 181.5 l 2
 267.833007812 194.166992188 259.666992188 208 251 223 c 1
 248.5 223 l 2
 248.5 222.666992188 240.166992188 208.833007812 223.5 181.5 c 2
 110.5 0 l 1
 14.5 0 l 1
 203.5 270.5 l 1
 22.5 553 l 1
 120 553 l 1
 251.5 319.5 l 1
 253.5 319.5 l 1
 257.166992188 325.166992188 260.833007812 331.166992188 264.5 337.5 c 2
 394.5 553 l 1
 486 553 l 1
EndSplineSet
EndChar

StartChar: y
Encoding: 88 121 88
Width: 531
VWidth: 1024
Flags: W
HStem: -260.5 73.5<27.3127 138.098> 533 20G<8 107.568 431.078 525>
LayerCount: 2
Fore
SplineSet
525 553 m 1
 269 -91.5 l 2
 224.333007812 -204.166992188 161.666992188 -260.5 81 -260.5 c 0
 60.6669921875 -260.5 42.5 -258.333007812 26.5 -254 c 1
 26.5 -178 l 1
 45.1669921875 -184 62.1669921875 -187 77.5 -187 c 0
 122.5 -187 156.166992188 -160 178.5 -106 c 2
 223.5 1 l 1
 8 553 l 1
 100.5 553 l 1
 253 121.5 l 2
 255 115.5 258.833007812 102.333007812 264.5 82 c 1
 267.5 82 l 1
 268.833007812 89 272.333007812 101.833007812 278 120.5 c 2
 438.5 553 l 1
 525 553 l 1
EndSplineSet
EndChar

StartChar: z
Encoding: 89 122 89
Width: 498
VWidth: 1024
Flags: W
HStem: 0 72<141.5 469.5> 481 72<49 348.5>
LayerCount: 2
Fore
SplineSet
469.5 0 m 1
 18.5 0 l 1
 18.5 24.5 l 1
 348.5 481 l 1
 49 481 l 1
 49 553 l 1
 473 553 l 1
 473 531.5 l 1
 141.5 72 l 1
 469.5 72 l 1
 469.5 0 l 1
EndSplineSet
EndChar

StartChar: braceleft
Encoding: 90 123 90
Width: 328
VWidth: 1024
Flags: W
HStem: -176 66<236.054 295> 269 60.5<49 103.71> 707 67.5<240.115 295>
VStem: 133.5 76.5<-85.7695 237.048 361.535 678.875>
LayerCount: 2
Fore
SplineSet
295 -176 m 1
 187.333007812 -174.333007812 133.5 -119.166992188 133.5 -10.5 c 2
 133.5 153.5 l 2
 133.5 227.166992188 105.333007812 265.666992188 49 269 c 1
 49 329.5 l 1
 105.333007812 332.833007812 133.5 371.833007812 133.5 446.5 c 2
 133.5 607 l 2
 133.5 717.333007812 187.333007812 773.166992188 295 774.5 c 1
 295 707 l 1
 238.333007812 705.333007812 210 669.5 210 599.5 c 2
 210 438.5 l 2
 210 363.5 183 317.666992188 129 301 c 1
 129 298.5 l 1
 183 283.166992188 210 237.833007812 210 162.5 c 2
 210 3.5 l 2
 210 -37.8330078125 216.416992188 -67 229.25 -84 c 0
 242.083007812 -101 264 -109.666992188 295 -110 c 1
 295 -176 l 1
EndSplineSet
EndChar

StartChar: bar
Encoding: 91 124 91
Width: 258
VWidth: 1024
Flags: W
VStem: 91.5 76.5<-260.5 845.5>
LayerCount: 2
Fore
SplineSet
168 -260.5 m 1
 91.5 -260.5 l 1
 91.5 845.5 l 1
 168 845.5 l 1
 168 -260.5 l 1
EndSplineSet
EndChar

StartChar: braceright
Encoding: 92 125 92
Width: 328
VWidth: 1024
Flags: W
HStem: -176 66<35 93.946> 269 60.5<226.113 280.5> 707 67.5<35 93.946>
VStem: 121.5 75<-85.6544 237.75 361.5 675.597>
LayerCount: 2
Fore
SplineSet
280.5 269 m 1
 224.5 265.666992188 196.5 227.333007812 196.5 154 c 2
 196.5 -10.5 l 2
 196.5 -119.166992188 142.666992188 -174.333007812 35 -176 c 1
 35 -110 l 1
 66.3330078125 -109.666992188 88.5830078125 -100.75 101.75 -83.25 c 0
 114.916992188 -65.75 121.5 -36.8330078125 121.5 3.5 c 2
 121.5 162 l 2
 121.5 237.333007812 148.166992188 282.833007812 201.5 298.5 c 1
 201.5 301 l 1
 148.166992188 317.666992188 121.5 363.333007812 121.5 438 c 2
 121.5 599.5 l 2
 121.5 669.5 92.6669921875 705.333007812 35 707 c 1
 35 774.5 l 1
 142.666992188 773.166992188 196.5 717.333007812 196.5 607 c 2
 196.5 446.5 l 2
 196.5 372.166992188 224.5 333.166992188 280.5 329.5 c 1
 280.5 269 l 1
EndSplineSet
EndChar

StartChar: asciitilde
Encoding: 93 126 93
Width: 755
VWidth: 1024
Flags: W
HStem: 238.5 69<434.65 546.571> 334.5 70<207.882 326.702>
VStem: 113.5 70.5<239 309.699> 572.5 70.5<334.25 404>
LayerCount: 2
Fore
SplineSet
643 404 m 1
 640.333007812 351.666992188 625.833007812 311 599.5 282 c 0
 573.166992188 253 537.5 238.5 492.5 238.5 c 0
 453.166992188 238.5 405.5 258.5 349.5 298.5 c 0
 314.5 322.5 285.666992188 334.5 263 334.5 c 0
 212.333007812 334.5 186 302.666992188 184 239 c 1
 113.5 239 l 1
 115.166992188 290.333007812 129.333007812 330.75 156 360.25 c 0
 182.666992188 389.75 218.5 404.5 263.5 404.5 c 0
 301.833007812 404.5 344.166992188 388.5 390.5 356.5 c 0
 438.166992188 323.833007812 473.833007812 307.5 497.5 307.5 c 0
 518.833007812 307.5 536.416992188 316.083007812 550.25 333.25 c 0
 564.083007812 350.416992188 571.5 374 572.5 404 c 1
 643 404 l 1
EndSplineSet
EndChar

StartChar: circumflex
Encoding: 94 710 94
Width: 415
VWidth: 1024
Flags: W
HStem: 640.5 175
LayerCount: 2
Fore
SplineSet
374.5 640.5 m 1
 293 640.5 l 1
 207.5 753.5 l 1
 122 640.5 l 1
 40.5 640.5 l 1
 160.5 815.5 l 1
 254 815.5 l 1
 374.5 640.5 l 1
EndSplineSet
EndChar

StartChar: caron
Encoding: 95 711 95
Width: 0
VWidth: 1024
Flags: W
HStem: 688.5 174.5
LayerCount: 2
Fore
SplineSet
-118.5 863 m 1
 -238.5 688.5 l 1
 -332 688.5 l 1
 -452 863 l 1
 -373 863 l 1
 -286 750 l 1
 -199 863 l 1
 -118.5 863 l 1
EndSplineSet
EndChar

StartChar: uni02C9
Encoding: 96 713 96
Width: 0
VWidth: 104
Flags: W
HStem: 786 64.5<-601 -142>
LayerCount: 2
Fore
SplineSet
-142 786 m 5
 -601 786 l 5
 -601 850.5 l 5
 -142 850.5 l 5
 -142 786 l 5
EndSplineSet
EndChar

StartChar: uni02CA
Encoding: 97 714 97
Width: 0
VWidth: 214
Flags: W
HStem: 704 174.5
VStem: -366 239
LayerCount: 2
Fore
SplineSet
-127 878.5 m 1
 -278 704 l 1
 -366 704 l 1
 -238.5 878.5 l 1
 -127 878.5 l 1
EndSplineSet
EndChar

StartChar: dotaccent
Encoding: 99 729 99
Width: 0
VWidth: 1024
Flags: W
HStem: 743 120<-336.662 -247.822>
VStem: -356 127<761.564 845.467>
LayerCount: 2
Fore
SplineSet
-356 803.5 m 0
 -356 820.833007812 -349.75 835.083007812 -337.25 846.25 c 0
 -324.75 857.416992188 -309.666992188 863 -292 863 c 0
 -273.333007812 863 -258.166992188 857.333007812 -246.5 846 c 0
 -234.833007812 834.666992188 -229 820.5 -229 803.5 c 0
 -229 786.166992188 -235.083007812 771.75 -247.25 760.25 c 0
 -259.416992188 748.75 -274.333007812 743 -292 743 c 0
 -310 743 -325.166992188 749 -337.5 761 c 0
 -349.833007812 773 -356 787.166992188 -356 803.5 c 0
EndSplineSet
EndChar

StartChar: uni3105
Encoding: 100 12549 100
Width: 500
VWidth: 0
Flags: W
HStem: -4.77051 53.2646<320.721 404.757>
VStem: 406 59.7627<48.644 290.062> 418 60<308.648 522>
LayerCount: 2
Fore
SplineSet
208 774 m 5xa0
 178.71484375 779.857421875 l 5
 158.823242188 699.299804688 138.927734375 627.88671875 119.5390625 575.538085938 c 4
 118.538085938 572.833984375 118 569.381835938 118 567 c 6
 118 549 l 6
 118 532.65625 135.124023438 522 148 522 c 6
 418 522 l 5xa0
 417.997070312 340.032226562 415.592773438 280.563476562 406 72 c 5
 392.767578125 40.1962890625 379.250976562 39.71484375 320.720703125 48.494140625 c 5
 315.7890625 21.8623046875 l 5
 310.857421875 -4.7705078125 l 5
 371.124023438 -13.8115234375 437.520507812 -13.8447265625 464.25 58.3232421875 c 4
 464.954101562 60.2255859375 465.649414062 63.2744140625 465.762695312 65.73828125 c 4xc0
 475.778320312 282.071289062 478 342.078125 478 531 c 6
 478 549 l 6
 478 560.587890625 466.159179688 576 448 576 c 6
 182.747070312 576 l 5
 201.036132812 628.763671875 219.231445312 695.0234375 237.28515625 768.142578125 c 5
 208 774 l 5xa0
EndSplineSet
EndChar

StartChar: uni3106
Encoding: 101 12550 101
Width: 500
VWidth: 0
Flags: W
LayerCount: 2
Fore
SplineSet
238 774 m 5
 209.154296875 781.416992188 l 5
 169.237304688 655.677734375 149.279296875 602.67578125 131.166992188 570.07421875 c 4
 129.094726562 566.344726562 128 561.896484375 128 558 c 6
 128 540 l 6
 128 523.65625 145.124023438 513 158 513 c 6
 404.826171875 513 l 5
 327.69921875 218.319335938 310.944335938 159.096679688 119.258789062 21.0830078125 c 5
 138 0 l 5
 156.741210938 -21.0830078125 l 5
 361.92578125 126.649414062 387.553710938 211.16015625 467.202148438 515.81640625 c 4
 467.608398438 517.368164062 468 519.98046875 468 522 c 6
 468 540 l 6
 468 551.587890625 456.159179688 567 438 567 c 6
 195.61328125 567 l 5
 213.365234375 604.544921875 233.33203125 661.013671875 266.845703125 766.58203125 c 5
 238 774 l 5
198 342 m 5
 176.787109375 322.908203125 l 5
 273.961914062 235.450195312 353.01953125 129.048828125 433.038085938 21.0234375 c 5
 458 36 l 5
 482.961914062 50.9765625 l 5
 402.98046875 158.951171875 322.038085938 268.549804688 219.212890625 361.091796875 c 5
 198 342 l 5
EndSplineSet
EndChar

StartChar: uni3107
Encoding: 102 12551 102
Width: 500
VWidth: 0
Flags: W
LayerCount: 2
Fore
SplineSet
139 688.5 m 5
 109 688.5 l 5
 109 36 l 5
 139 36 l 5
 169 36 l 5
 169 688.5 l 5
 139 688.5 l 5
139 648 m 5
 139 621 l 5
 419 621 l 5
 419 36 l 5
 449 36 l 5
 479 36 l 5
 479 648 l 6
 479 659.587890625 467.159179688 675 449 675 c 6
 139 675 l 5
 139 648 l 5
EndSplineSet
EndChar

StartChar: uni3108
Encoding: 103 12552 103
Width: 500
VWidth: 0
Flags: W
HStem: 27 54<213 473>
VStem: 143 60<82.4516 108>
LayerCount: 2
Fore
SplineSet
121 666 m 5
 121 639 l 5
 473 639 l 5
 473 666 l 5
 473 693 l 5
 121 693 l 5
 121 666 l 5
173 666 m 5
 143 666 l 5
 143 108 l 6
 143 64.3779296875 169.891601562 27 213 27 c 6
 473 27 l 5
 473 54 l 5
 473 81 l 5
 213 81 l 5
 213 81 203 79.62109375 203 108 c 6
 203 666 l 5
 173 666 l 5
EndSplineSet
EndChar

StartChar: uni3109
Encoding: 104 12553 104
Width: 500
VWidth: 921
Flags: W
HStem: -7.61523 51.2295<316.487 397.45>
VStem: 257 60<330.305 549> 417 60<316.905 531>
LayerCount: 2
Fore
SplineSet
217 774 m 5
 187.408203125 778.438476562 l 5
 177.974609375 727.497070312 157.897460938 672.712890625 137.583007812 581.294921875 c 4
 137.208007812 579.611328125 137 577.33203125 137 576 c 6
 137 558 l 6
 137 541.65625 154.124023438 531 167 531 c 6
 417 531 l 5
 416.991210938 372.568359375 416.625976562 251.344726562 397.454101562 59.734375 c 5
 384.79296875 28.4931640625 373.103515625 26.62890625 316.487304688 43.6142578125 c 5
 307 18 l 5
 297.512695312 -7.615234375 l 5
 360.092773438 -26.388671875 428.331054688 -27.7890625 455.4609375 45.4609375 c 4
 456.020507812 46.974609375 456.673828125 49.5439453125 456.876953125 51.5556640625 c 4
 476.982421875 250.59765625 477 378.083984375 477 540 c 6
 477 558 l 6
 477 569.587890625 465.159179688 585 447 585 c 6
 199.662109375 585 l 5
 218.106445312 664.405273438 236.641601562 715.830078125 246.591796875 769.561523438 c 5
 217 774 l 5
287 549 m 5
 257 549 l 5
 257 290.401367188 219.36328125 190.82421875 120.775390625 31.1123046875 c 5
 147 18 l 5
 173.224609375 4.8876953125 l 5
 274.63671875 169.17578125 317 285.598632812 317 549 c 5
 287 549 l 5
EndSplineSet
EndChar

StartChar: uni310A
Encoding: 105 12554 105
Width: 500
VWidth: 921
Flags: W
HStem: 45 54.7793<191.216 350.064>
VStem: 426.583 58.834<49.035 110.635>
LayerCount: 2
Fore
SplineSet
116 540 m 5
 116 513 l 5
 456 513 l 5
 456 540 l 5
 456 567 l 5
 116 567 l 5
 116 540 l 5
296 756 m 5
 266 756 l 5
 266 542.966796875 l 5
 226.03515625 381.666015625 187.07421875 259.28125 127.5390625 98.5380859375 c 4
 126.538085938 95.833984375 126 92.3818359375 126 90 c 6
 126 72 l 6
 126 55.65625 143.124023438 45 156 45 c 4
 260.078125 45 343.369140625 63.8271484375 423.276367188 81.8056640625 c 5
 416 108 l 5
 408.723632812 134.194335938 l 5
 338.381835938 118.3671875 272.936523438 103.50390625 191.215820312 99.779296875 c 5
 247.310546875 252.591796875 286.650390625 377.669921875 325.28515625 534.142578125 c 4
 325.646484375 535.603515625 326 538.091796875 326 540 c 6
 326 756 l 5
 296 756 l 5
356 288 m 5
 328.145507812 277.97265625 l 5
 369.112304688 185.796875 407.638671875 124.954101562 426.583007812 39.705078125 c 5
 456 45 l 5
 485.416992188 50.294921875 l 5
 464.361328125 145.045898438 422.887695312 210.203125 383.854492188 298.02734375 c 5
 356 288 l 5
EndSplineSet
EndChar

StartChar: uni310B
Encoding: 106 12555 106
Width: 500
VWidth: 921
Flags: W
HStem: -7.61523 51.2295<309.487 386.356>
VStem: 409.868 60.1318<208.816 405>
LayerCount: 2
Fore
SplineSet
120 720 m 5
 120 693 l 5
 304.572265625 693 l 5
 211.748046875 459.081054688 l 6
 210.609375 456.2109375 210 452.5859375 210 450 c 6
 210 432 l 6
 210 415.65625 227.124023438 405 240 405 c 6
 409.868164062 405 l 5
 409.288085938 331.479492188 404.979492188 129.250976562 390.895507812 78.548828125 c 4
 389.662109375 74.10546875 388.368164062 70.0703125 387.037109375 66.4345703125 c 4
 372.442382812 26.57421875 361.802734375 27.9189453125 309.487304688 43.6142578125 c 5
 300 18 l 5
 290.512695312 -7.615234375 l 1
 349.83984375 -25.4130859375 416.219726562 -26.3994140625 444.022460938 49.5341796875 c 4
 445.865234375 54.5673828125 447.552734375 59.8642578125 449.104492188 65.451171875 c 4
 471.524414062 146.165039062 470.000976562 430.62109375 470 431.998046875 c 4
 470.000976562 443.58984375 458.158203125 459 440 459 c 6
 275.427734375 459 l 5
 368.251953125 692.918945312 l 6
 369.21875 695.353515625 370 698.953125 370 702 c 6
 370 720 l 6
 370 731.587890625 358.159179688 747 340 747 c 6
 120 747 l 5
 120 720 l 5
EndSplineSet
EndChar

StartChar: uni310C
Encoding: 107 12556 107
Width: 500
VWidth: 921
Flags: W
HStem: -25.6826 51.3652<294.258 384.296>
VStem: 135 60<576.037 747> 265 60<359.894 513.446> 275 60<552.566 774> 415.014 59.9863<282.319 495>
LayerCount: 2
Fore
SplineSet
165 747 m 5xc8
 135 747 l 5
 135 686.544921875 125.325195312 616.495117188 105.895507812 546.548828125 c 4
 105.317382812 544.466796875 105 541.708007812 105 540 c 6
 105 522 l 6
 105 505.65625 122.124023438 495 135 495 c 6
 415.013671875 495 l 5
 415.240234375 406.611328125 412.834960938 92.4755859375 378.166992188 30.07421875 c 4
 377.020507812 28.0107421875 361.642578125 6.0068359375 294.2578125 25.6826171875 c 5
 285 0 l 5
 275.7421875 -25.6826171875 l 5
 358.505859375 -49.84765625 412.979492188 -28.0107421875 431.833007812 5.92578125 c 4
 483.793945312 99.453125 475 431.65234375 475 504 c 6
 475 522 l 6
 475 533.587890625 463.159179688 549 445 549 c 6
 168.2734375 549 l 5
 185.870117188 617.287109375 195 686.107421875 195 747 c 5
 165 747 l 5xc8
305 774 m 5
 275 774 l 5xd8
 275 729.931640625 271.579101562 598.311523438 265.073242188 514.890625 c 4
 265.026367188 514.290039062 265 513.446289062 265 513 c 4
 265 341.071289062 166.298828125 118.387695312 90.73828125 24.880859375 c 5
 115 9 l 5
 139.26171875 -6.880859375 l 5
 223.658203125 97.560546875 324.307617188 322.446289062 325 512.053710938 c 5xe8
 331.594726562 597.8203125 335 728.2578125 335 774 c 5xd8
 305 774 l 5
EndSplineSet
EndChar

StartChar: uni310D
Encoding: 108 12557 108
Width: 500
VWidth: 921
Flags: W
VStem: 229.715 58.5703<679.257 751.543> 239.896 58.209<-4.02625 59.1035> 409.715 58.5703<679.257 751.543> 419.896 58.209<-4.02625 59.1035>
LayerCount: 2
Fore
SplineSet
259 756 m 5x80
 229.71484375 761.857421875 l 5x80
 189.724609375 599.8984375 170.349609375 530.026367188 110.5390625 368.538085938 c 4
 108.361328125 362.658203125 108.708007812 355.803710938 110.91015625 350.51953125 c 4
 170.814453125 206.749023438 200.107421875 127.689453125 239.895507812 -15.548828125 c 5
 269 -9 l 5
 298.104492188 -2.451171875 l 5x40
 258.729492188 139.296875 228.493164062 221.717773438 170.813476562 360.532226562 c 5
 228.068359375 515.82421875 249.075195312 591.340820312 288.28515625 750.142578125 c 5
 259 756 l 5x80
439 756 m 5
 409.71484375 761.857421875 l 5x20
 369.724609375 599.8984375 350.349609375 530.026367188 290.5390625 368.538085938 c 4
 288.361328125 362.658203125 288.708007812 355.803710938 290.91015625 350.51953125 c 4
 350.814453125 206.749023438 380.107421875 127.689453125 419.895507812 -15.548828125 c 5
 449 -9 l 5
 478.104492188 -2.451171875 l 5x10
 438.729492188 139.296875 408.493164062 221.717773438 350.813476562 360.532226562 c 5
 408.068359375 515.82421875 429.075195312 591.340820312 468.28515625 750.142578125 c 5x20
 439 756 l 5
EndSplineSet
EndChar

StartChar: uni310E
Encoding: 109 12558 109
Width: 500
VWidth: 921
Flags: W
VStem: 411.964 60.0361<211.939 423>
LayerCount: 2
Fore
SplineSet
142 720 m 5
 142 693 l 5
 482 693 l 5
 482 720 l 5
 482 747 l 5
 142 747 l 5
 142 720 l 5
262 702 m 5
 232.408203125 706.438476562 l 5
 212.68359375 599.927734375 193.25 547.823242188 172.895507812 474.548828125 c 4
 172.317382812 472.466796875 172 469.708007812 172 468 c 6
 172 450 l 6
 172 433.65625 189.124023438 423 202 423 c 6
 411.963867188 423 l 5
 411.224609375 328.578125 395.211914062 102.155273438 375.166992188 66.07421875 c 4
 370.430664062 57.5498046875 320.098632812 59.830078125 309.2109375 62.2080078125 c 5
 302 36 l 5
 294.7890625 9.7919921875 l 5
 294.7890625 9.7919921875 393.103515625 -22.388671875 428.833007812 41.92578125 c 4
 464.564453125 106.241210938 472 339.795898438 472 432 c 6
 472 450 l 6
 472 461.587890625 460.159179688 477 442 477 c 6
 235.497070312 477 l 5
 253.434570312 539.521484375 272.842773438 596.315429688 291.591796875 697.561523438 c 5
 262 702 l 5
EndSplineSet
EndChar

StartChar: uni310F
Encoding: 110 12559 110
Width: 500
VWidth: 921
Flags: W
VStem: 187.022 60<485.167 702.186>
LayerCount: 2
Fore
SplineSet
177.022460938 702.185546875 m 1
 177.022460938 675.185546875 l 1
 497.022460938 675.185546875 l 1
 497.022460938 702.185546875 l 1
 497.022460938 729.185546875 l 1
 177.022460938 729.185546875 l 1
 177.022460938 702.185546875 l 1
217.022460938 702.185546875 m 1
 187.022460938 702.185546875 l 1
 187.022460938 433.291992188 167.34765625 256.529296875 107.791015625 24.2568359375 c 1
 137.022460938 18.185546875 l 1
 166.25390625 12.1142578125 l 1
 217.674804688 212.65625 247.022460938 431.079101562 247.022460938 702.185546875 c 1
 217.022460938 702.185546875 l 1
EndSplineSet
EndChar

StartChar: uni3110
Encoding: 111 12560 111
Width: 500
VWidth: 921
Flags: W
LayerCount: 2
Fore
SplineSet
234 670.5 m 1
 204 670.5 l 1
 204 252 l 2
 204 227.997070312 227.32421875 207 254 207 c 0
 258.104492188 207 262.659179688 207.938476562 266.024414062 209.263671875 c 2
 426.024414062 272.263671875 l 1
 414 297 l 1
 401.975585938 321.736328125 l 1
 264 267.408203125 l 1
 264 670.5 l 1
 234 670.5 l 1
434 738 m 1
 404 738 l 1
 404 0 l 1
 434 0 l 1
 464 0 l 1
 464 738 l 1
 434 738 l 1
EndSplineSet
EndChar

StartChar: uni3111
Encoding: 112 12561 112
Width: 500
VWidth: 921
Flags: W
LayerCount: 2
Fore
SplineSet
406 739 m 5
 378.42578125 749.635742188 l 5
 194.42578125 370.635742188 l 6
 190.609375 362.622070312 192.073242188 352.71484375 195.953125 346.604492188 c 4
 274.8828125 222.2890625 338.166015625 98.7705078125 377.5390625 -7.5390625 c 5
 406 1 l 5
 434.4609375 9.5380859375 l 5
 395.009765625 116.0546875 333.333007812 237.016601562 255.434570312 361.670898438 c 5
 433.57421875 728.364257812 l 5
 406 739 l 5
EndSplineSet
EndChar

StartChar: uni3112
Encoding: 113 12562 113
Width: 500
VWidth: 921
Flags: W
VStem: 155 320
LayerCount: 2
Fore
SplineSet
155 684 m 5
 155 657 l 5
 475 657 l 5
 475 684 l 5
 475 711 l 5
 155 711 l 5
 155 684 l 5
315 684 m 5
 285 684 l 5
 285 0 l 5
 315 0 l 5
 345 0 l 5
 345 684 l 5
 315 684 l 5
EndSplineSet
EndChar

StartChar: uni3113
Encoding: 114 12563 114
Width: 500
VWidth: 921
Flags: W
LayerCount: 2
Fore
SplineSet
156 630 m 5
 126 630 l 5
 126 243 l 6
 126 226.65625 143.124023438 216 156 216 c 6
 436 216 l 5
 436 243 l 5
 436 270 l 5
 186 270 l 5
 186 630 l 5
 156 630 l 5
436 630 m 5
 406 630 l 5
 406 205.200195312 l 5
 436 205.200195312 l 5
 466 205.200195312 l 5
 466 630 l 5
 436 630 l 5
296 738 m 5
 266 738 l 5
 266 36 l 5
 296 36 l 5
 326 36 l 5
 326 738 l 5
 296 738 l 5
116 36 m 5
 116 9 l 5
 483 9 l 5
 483 36 l 5
 483 63 l 5
 116 63 l 5
 116 36 l 5
EndSplineSet
EndChar

StartChar: uni3114
Encoding: 115 12564 115
Width: 500
VWidth: 921
Flags: W
LayerCount: 2
Fore
SplineSet
379 738 m 5
 352.166992188 750.07421875 l 5
 291.403320312 640.700195312 252.361328125 553.251953125 175.57421875 466.8671875 c 5
 199 450 l 5
 222.42578125 433.1328125 l 5
 305.638671875 526.747070312 346.596679688 619.299804688 405.833007812 725.92578125 c 5
 379 738 l 5
439 558 m 5
 410.91015625 567.479492188 l 5
 352.341796875 426.916015625 274.659179688 321.790039062 155 178.200195312 c 5
 179 162 l 5
 203 145.799804688 l 5
 323.340820312 290.208984375 405.658203125 401.083984375 467.08984375 548.51953125 c 5
 439 558 l 5
339 342 m 5
 309 342 l 5
 309 0 l 5
 339 0 l 5
 369 0 l 5
 369 342 l 5
 339 342 l 5
EndSplineSet
EndChar

StartChar: uni3115
Encoding: 116 12565 116
Width: 500
VWidth: 921
Flags: W
VStem: 162 59.8496<229.777 423>
LayerCount: 2
Fore
SplineSet
127 702 m 5
 127 675 l 5
 422 675 l 5
 422 477 l 5
 192 477 l 6
 173.840820312 477 162 461.587890625 162 450 c 4
 162 271.818359375 141.759765625 111.733398438 103.5390625 8.5380859375 c 5
 132 0 l 5
 160.4609375 -8.5390625 l 5
 200.265625 98.935546875 219.8671875 250.561523438 221.849609375 423 c 5
 452 423 l 6
 464.875976562 423 482 433.65625 482 450 c 6
 482 702 l 6
 482 713.587890625 470.15234375 729 452 729 c 6
 127 729 l 5
 127 702 l 5
EndSplineSet
EndChar

StartChar: uni3116
Encoding: 117 12566 117
Width: 500
VWidth: 921
Flags: W
LayerCount: 2
Fore
SplineSet
192 720 m 5
 162 720 l 5
 162 18 l 5
 192 18 l 5
 222 18 l 5
 222 720 l 5
 192 720 l 5
192 684 m 5
 192 657 l 5
 402 657 l 5
 402 18 l 5
 432 18 l 5
 462 18 l 5
 462 684 l 6
 462 695.587890625 450.159179688 711 432 711 c 6
 192 711 l 5
 192 684 l 5
272 450 m 5
 250.787109375 430.908203125 l 5
 265.721679688 417.466796875 306.920898438 362.768554688 325.166992188 329.92578125 c 5
 352 342 l 5
 378.833007812 354.07421875 l 5
 357.079101562 393.231445312 318.278320312 446.533203125 293.212890625 469.091796875 c 5
 272 450 l 5
212 72 m 5
 212 45 l 5
 412 45 l 5
 412 72 l 5
 412 99 l 5
 212 99 l 5
 212 72 l 5
EndSplineSet
EndChar

StartChar: uni3117
Encoding: 118 12567 118
Width: 500
VWidth: 0
Flags: W
HStem: 225.806 52.3887<351.276 394.2>
VStem: 413.995 60.0049<481.32 675>
LayerCount: 2
Fore
SplineSet
164 702 m 5
 164 675 l 5
 413.995117188 675 l 5
 413.915039062 540.470703125 412.75390625 424.70703125 394.231445312 291.348632812 c 4
 393.764648438 287.984375 379.751953125 271.787109375 351.276367188 278.194335938 c 5
 344 252 l 5
 336.723632812 225.805664062 l 5
 388.248046875 214.212890625 447.219726562 237.498046875 453.768554688 284.651367188 c 4
 474.04296875 430.626953125 474 558.068359375 474 702 c 4
 474 713.587890625 462.159179688 729 444 729 c 6
 164 729 l 5
 164 702 l 5
244 702 m 5
 214 702 l 5
 214 0 l 5
 244 0 l 5
 274 0 l 5
 274 702 l 5
 244 702 l 5
EndSplineSet
EndChar

StartChar: uni3118
Encoding: 119 12568 119
Width: 500
VWidth: 0
Flags: W
VStem: 401.998 60.002<115.627 297>
LayerCount: 2
Fore
SplineSet
172 558 m 5
 172 531 l 5
 472 531 l 5
 472 558 l 5
 472 585 l 5
 172 585 l 5
 172 558 l 5
332 738 m 5
 302.672851562 743.688476562 l 5
 269.822265625 606.499023438 219.4765625 379.831054688 205.166992188 354.07421875 c 4
 203.094726562 350.344726562 202 345.896484375 202 342 c 6
 202 324 l 6
 202 307.65625 219.124023438 297 232 297 c 6
 401.998046875 297 l 5
 401.926757812 191.84375 400.131835938 113.653320312 327.038085938 14.9765625 c 5
 352 0 l 5
 376.961914062 -14.9765625 l 5
 461.798828125 99.5537109375 462 198.439453125 462 306 c 6
 462 324 l 6
 462 335.587890625 450.159179688 351 432 351 c 6
 267.735351562 351 l 5
 291.37109375 418.81640625 331.689453125 608.546875 361.327148438 732.311523438 c 5
 332 738 l 5
EndSplineSet
EndChar

StartChar: uni3119
Encoding: 120 12569 120
Width: 500
VWidth: 0
Flags: W
VStem: 279.514 58.9727<611.573 698.206>
LayerCount: 2
Fore
SplineSet
309 702 m 5
 279.513671875 706.975585938 l 5
 219.43359375 418.591796875 200.416015625 332.24609375 100.748046875 81.0810546875 c 6
 94.3623046875 64.990234375 l 5
 107.787109375 52.908203125 l 5
 117.072265625 44.55078125 l 5
 127.787109375 34.908203125 l 5
 139.327148438 24.521484375 l 5
 155.286132812 27.599609375 l 5
 435.286132812 81.599609375 l 5
 429 108 l 5
 422.713867188 134.400390625 l 5
 165.923828125 84.876953125 l 5
 258.62109375 320.864257812 280.352539062 417.982421875 338.486328125 697.024414062 c 5
 309 702 l 5
369 270 m 5
 342.166992188 257.92578125 l 5
 380.240234375 189.392578125 400.13671875 118.55078125 440.5390625 9.4609375 c 5
 469 18 l 5
 497.4609375 26.5380859375 l 5
 457.86328125 133.44921875 437.759765625 206.606445312 395.833007812 282.07421875 c 5
 369 270 l 5
EndSplineSet
EndChar

StartChar: uni311A
Encoding: 121 12570 121
Width: 500
VWidth: 0
Flags: W
VStem: 169.999 60<330.264 357.644>
LayerCount: 2
Fore
SplineSet
369.999023438 600 m 1
 343.952148438 614.883789062 l 1
 304.426757812 545.715820312 255.182617188 466.8828125 175.737304688 357.645507812 c 0
 171.991210938 352.495117188 169.999023438 345.413085938 169.999023438 340 c 2
 169.999023438 -20 l 1
 199.999023438 -20 l 1
 229.999023438 -20 l 1
 229.999023438 330.263671875 l 1
 306.6171875 436.173828125 356.665039062 516.19921875 396.045898438 585.116210938 c 1
 369.999023438 600 l 1
49.9990234375 580 m 1
 25.2783203125 563.00390625 l 1
 135.279296875 403.00390625 l 1
 160 420 l 1
 184.720703125 436.99609375 l 1
 74.7197265625 596.99609375 l 1
 49.9990234375 580 l 1
EndSplineSet
EndChar

StartChar: uni311B
Encoding: 122 12571 122
Width: 500
VWidth: 0
Flags: W
HStem: 0 60<126.963 283.852>
VStem: 10 60<118.019 303.14>
LayerCount: 2
Fore
SplineSet
20 580 m 1
 20 550 l 1
 380 550 l 1
 380 580 l 1
 380 610 l 1
 20 610 l 1
 20 580 l 1
210 580 m 1
 180 580 l 1
 180 418.265625 l 1
 118.11328125 410.888671875 10 369.685546875 10 210 c 0
 10 15.7138671875 166.67578125 0 210 0 c 0
 232.813476562 0 305.521484375 2.0107421875 372.77734375 80.4765625 c 1
 350 100 l 1
 327.22265625 119.5234375 l 1
 274.478515625 57.9892578125 227.186523438 60 210 60 c 0
 173.32421875 60 70 64.2861328125 70 210 c 0
 70 355.713867188 173.32421875 360 210 360 c 0
 222.875976562 360 240 371.840820312 240 390 c 2
 240 580 l 1
 210 580 l 1
EndSplineSet
EndChar

StartChar: uni311C
Encoding: 123 12572 123
Width: 500
VWidth: 0
Flags: W
HStem: 0 60<110.414 287.111>
VStem: 10 60<100.028 250.198>
LayerCount: 2
Fore
SplineSet
20 500 m 1
 20 470 l 1
 380 470 l 1
 380 500 l 1
 380 530 l 1
 20 530 l 1
 20 500 l 1
210 630 m 1
 180 630 l 1
 180 358.353515625 l 1
 105.458984375 350.072265625 10 302.966796875 10 170 c 0
 10 12.2646484375 151.46484375 0 220 0 c 0
 257.272460938 0 317.28125 13.8759765625 373.046875 80.7939453125 c 1
 350 100 l 1
 326.953125 119.205078125 l 1
 282.71875 66.1240234375 242.727539062 60 220 60 c 0
 148.53515625 60 70 67.7353515625 70 170 c 0
 70 277.21484375 146.506835938 300 210 300 c 0
 222.875976562 300 240 311.840820312 240 330 c 2
 240 630 l 1
 210 630 l 1
EndSplineSet
EndChar

StartChar: uni311D
Encoding: 124 12573 124
Width: 500
VWidth: 0
Flags: W
VStem: 290 60<263.736 400>
LayerCount: 2
Fore
SplineSet
-20 420 m 1
 -20 390 l 1
 420 390 l 1
 420 420 l 1
 420 450 l 1
 -20 450 l 1
 -20 420 l 1
100 620 m 1
 70 620 l 1
 70 60 l 2
 70 22.3134765625 102.465820312 -10 140 -10 c 2
 360 -10 l 1
 360 20 l 1
 360 50 l 1
 140 50 l 2
 137.534179688 50 130 57.6865234375 130 60 c 2
 130 620 l 1
 100 620 l 1
320 620 m 1
 290 620 l 1
 290 400 l 2
 290 325.149414062 271.583007812 269.618164062 251.5390625 209.486328125 c 1
 280 200 l 1
 308.4609375 190.512695312 l 1
 328.416992188 250.381835938 350 314.850585938 350 400 c 2
 350 620 l 1
 320 620 l 1
EndSplineSet
EndChar

StartChar: uni311E
Encoding: 125 12574 125
Width: 500
VWidth: 0
Flags: W
VStem: 10 60<392.115 520> 190 60<396.44 620> 349.571 60.4287<149.73 330>
LayerCount: 2
Fore
SplineSet
0 620 m 1
 0 590 l 1
 400 590 l 1
 400 620 l 1
 400 650 l 1
 0 650 l 1
 0 620 l 1
40 520 m 1
 10 520 l 1
 10 464.130859375 -10 390.086914062 -10 360 c 0
 -10 341.840820312 7.1240234375 330 20 330 c 2
 349.571289062 330 l 1
 346.3671875 221.599609375 327.186523438 118.744140625 292.145507812 31.1416015625 c 1
 320 20 l 1
 347.854492188 8.8583984375 l 1
 389.624023438 113.283203125 410 236.708984375 410 360 c 0
 410 372.875976562 398.159179688 390 380 390 c 2
 54.412109375 390 l 1
 60.09765625 422.771484375 70 475.081054688 70 520 c 1
 40 520 l 1
220 620 m 1
 190 620 l 1
 190 322.565429688 153.194335938 196.311523438 -19.9306640625 42.421875 c 1
 0 20 l 1
 19.9306640625 -2.4228515625 l 1
 206.805664062 163.688476562 250 317.434570312 250 620 c 1
 220 620 l 1
EndSplineSet
EndChar

StartChar: uni311F
Encoding: 126 12575 126
Width: 500
VWidth: 0
Flags: W
LayerCount: 2
Fore
SplineSet
15.359375 537.961914062 m 1
 38 499 l 1
 82 513 126 527 160.783203125 533.693359375 c 1
 231.012695312 303.749023438 259.899414062 157.673828125 398.787109375 18.787109375 c 1
 420 40 l 1
 441.212890625 61.212890625 l 1
 305.934570312 196.4921875 288.256835938 323.13671875 208.422851562 582.599609375 c 0
 204.825195312 594.2890625 193.098632812 603.77734375 179.749023438 603.77734375 c 2
 159.749023438 603.77734375 l 2
 153.140625 603.77734375 146.388340889 597.004572864 138.536132812 594.990234375 c 0
 84 581 54 575 -1.28125 562.922851562 c 1
 15.359375 537.961914062 l 1
EndSplineSet
EndChar

StartChar: uni3120
Encoding: 127 12576 127
Width: 506
VWidth: 0
Flags: W
LayerCount: 2
Fore
SplineSet
186 620 m 1
 158.145507812 631.141601562 l 1
 119.41015625 534.303710938 60.5771484375 436.103515625 2 358 c 0
 -1.9111328125 352.78515625 -4 345.649414062 -4 340 c 2
 -4 320 l 2
 -4 301.840820312 13.1240234375 290 26 290 c 2
 226 290 l 1
 226 320 l 1
 226 350 l 1
 70.42578125 350 l 1
 123.638671875 424.982421875 177.248046875 517.34375 213.854492188 608.858398438 c 1
 186 620 l 1
336 500 m 1
 309.166992188 513.416015625 l 1
 199.998046875 295.079101562 l 1
 158.767578125 233.014648438 100.228515625 136.654296875 44.787109375 81.212890625 c 0
 39.0546875 75.4814453125 36 66.607421875 36 60 c 2
 36 40 l 2
 36 21.8408203125 53.1240234375 10 66 10 c 0
 130.926757812 10 307.791992188 28.974609375 375.487304688 51.5390625 c 1
 366 80 l 1
 356.512695312 108.459960938 l 1
 315.955078125 94.94140625 195.637695312 78.60546875 117.974609375 72.587890625 c 1
 169.75390625 134.430664062 217.98828125 213.8984375 250.961914062 263.359375 c 0
 251.458984375 264.10546875 252.299804688 265.517578125 252.833007812 266.583984375 c 2
 362.833007812 486.583984375 l 1
 336 500 l 1
326 200 m 1
 299.166992188 186.583984375 l 1
 317.678710938 149.560546875 347.912109375 69.396484375 367.5390625 10.5126953125 c 1
 396 20 l 1
 424.4609375 29.486328125 l 1
 404.087890625 90.603515625 374.321289062 170.439453125 352.833007812 213.416015625 c 1
 326 200 l 1
EndSplineSet
EndChar

StartChar: uni3121
Encoding: 128 12577 128
Width: 500
VWidth: 0
Flags: W
LayerCount: 2
Fore
SplineSet
20 580 m 1
 20 550 l 1
 305.884765625 550 l 1
 228.463867188 285.274414062 163.727539062 187.400390625 -28.7412109375 33.42578125 c 1
 -10 10 l 1
 8.7412109375 -13.42578125 l 1
 212.048828125 149.219726562 288.09765625 269.141601562 368.845703125 551.7578125 c 0
 369.453125 553.8828125 370 557.278320312 370 560 c 2
 370 580 l 2
 370 592.875976562 358.159179688 610 340 610 c 2
 20 610 l 1
 20 580 l 1
40 400 m 1
 22.5625 375.587890625 l 1
 159.924804688 277.47265625 278.205078125 159.291992188 376.953125 40.7939453125 c 1
 400 60 l 1
 423.046875 79.205078125 l 1
 321.794921875 200.708007812 200.075195312 322.52734375 57.4375 424.412109375 c 1
 40 400 l 1
EndSplineSet
EndChar

StartChar: uni3122
Encoding: 129 12578 129
Width: 500
VWidth: 0
Flags: W
LayerCount: 2
Fore
SplineSet
0 600 m 1
 0 570 l 1
 326.573242188 570 l 1
 307.602539062 494.33984375 289.13671875 425.356445312 273.166992188 393.416015625 c 1
 300 380 l 1
 326.833007812 366.583984375 l 1
 349.8203125 412.557617188 369.021484375 492.391601562 389.104492188 572.723632812 c 0
 389.564453125 574.564453125 390 577.616210938 390 580 c 2
 390 600 l 2
 390 612.875976562 378.159179688 630 360 630 c 2
 0 630 l 1
 0 600 l 1
100 500 m 1
 70.8955078125 507.276367188 l 1
 51.1826171875 428.422851562 31.546875 369.509765625 11.5390625 309.486328125 c 0
 10.5380859375 306.482421875 10 302.646484375 10 300 c 2
 10 280 l 2
 10 261.840820312 27.1240234375 250 40 250 c 2
 367.369140625 250 l 1
 348.458984375 157.682617188 329.275390625 83.966796875 292.145507812 -8.8583984375 c 1
 320 -20 l 1
 347.854492188 -31.1416015625 l 1
 388.639648438 70.8212890625 409.282226562 153.438476562 429.416992188 254.116210938 c 0
 429.708007812 255.568359375 430 258.091796875 430 260 c 2
 430 280 l 2
 430 292.875976562 418.159179688 310 400 310 c 2
 74.947265625 310 l 1
 92.5859375 363.12890625 111.02734375 420.4140625 129.104492188 492.723632812 c 1
 100 500 l 1
EndSplineSet
EndChar

StartChar: uni3123
Encoding: 130 12579 130
Width: 500
VWidth: 0
Flags: W
VStem: 39.374 60<473.993 620>
LayerCount: 2
Fore
SplineSet
69.3740234375 620 m 1
 39.3740234375 620 l 1
 39.3740234375 566.306640625 20.09765625 486.58984375 -0.04296875 385.883789062 c 0
 -0.41796875 384.012695312 -0.6259765625 381.48046875 -0.6259765625 380 c 2
 -0.6259765625 360 l 2
 -0.6259765625 341.840820312 16.498046875 330 29.3740234375 330 c 2
 368.2265625 330 l 1
 348.98046875 200.78125 330.090820312 143.02734375 310.408203125 24.931640625 c 1
 340 20 l 1
 369.591796875 15.068359375 l 1
 389.236328125 132.935546875 409.419921875 193.809570312 429.698242188 335.756835938 c 0
 429.844726562 336.779296875 430 338.637695312 430 340 c 2
 430 360 l 2
 430 372.875976562 418 390 400 390 c 2
 62 390 l 1
 80.716796875 481.740234375 99.3740234375 557.298828125 99.3740234375 620 c 1
 69.3740234375 620 l 1
EndSplineSet
EndChar

StartChar: uni3124
Encoding: 131 12580 131
Width: 500
VWidth: 0
Flags: W
HStem: -30 60<294.06 420>
VStem: 170 60<420.063 640> 230 60<34.0603 160>
LayerCount: 2
Fore
SplineSet
-500 -80 m 1025,0,-1
20 460 m 1,1,-1
 20 430 l 1,2,-1
 400 430 l 1,3,-1
 400 460 l 1,4,-1
 400 490 l 1,5,-1
 20 490 l 1,6,-1
 20 460 l 1,1,-1
200 640 m 1,7,-1
 170 640 l 1,8,-1
 170 325.1015625 92.7998046875 155.225585938 -41.212890625 21.212890625 c 1,11,-1
 -20 0 l 1,12,-1
 1.212890625 -21.212890625 l 1,13,-1
 147.200195312 124.7734375 230 314.8984375 230 640 c 1,16,-1
 200 640 l 1,7,-1
260 460 m 1,17,-1
 230 460 l 1,18,-1
 230 160 l 2,19,-1
 230 -6.6689453125 253.331054688 -30 420 -30 c 1,22,-1
 420 0 l 1,23,-1
 420 30 l 1,24,-1
 266.668945312 30 290 6.6689453125 290 160 c 2,27,-1
 290 460 l 1,28,-1
 260 460 l 1,17,-1
EndSplineSet
EndChar

StartChar: uni3125
Encoding: 132 12581 132
Width: 500
VWidth: 0
Flags: W
VStem: 182.717 57.8867<495.244 554.016>
LayerCount: 2
Fore
SplineSet
211.66015625 560 m 1
 182.716796875 567.893554688 l 1
 123.171875 349.559570312 84.26953125 272.30078125 3.8056640625 71.1416015625 c 0
 2.404296875 67.6376953125 1.66015625 63.29296875 1.66015625 60 c 2
 1.66015625 40 l 2
 1.66015625 21.8408203125 18.7841796875 10 31.66015625 10 c 2
 400 10 l 1
 400 40 l 1
 400 70 l 1
 68 70 l 1
 141.877929688 253.40234375 182.362304688 338.557617188 240.603515625 552.106445312 c 1
 211.66015625 560 l 1
EndSplineSet
EndChar

StartChar: uni3126
Encoding: 133 12582 133
Width: 500
VWidth: 0
Flags: W
HStem: 10 60<323.413 360>
VStem: 90 60<236.397 360> 250 60<83.4082 120>
LayerCount: 2
Fore
SplineSet
120 620 m 1
 90 620 l 1
 90 360 l 2
 90 229.75390625 11.384765625 96.978515625 -36.640625 64.9609375 c 1
 -20 40 l 1
 -3.359375 15.0380859375 l 1
 68.615234375 63.021484375 150 210.245117188 150 360 c 2
 150 620 l 1
 120 620 l 1
280 620 m 1
 250 620 l 1
 250 120 l 2
 250 62.3193359375 302.331054688 10 360 10 c 2
 420 10 l 1
 420 40 l 1
 420 70 l 1
 360 70 l 2
 337.668945312 70 310 97.6796875 310 120 c 2
 310 620 l 1
 280 620 l 1
EndSplineSet
EndChar

StartChar: uni3127
Encoding: 134 12583 134
Width: 500
VWidth: 0
Flags: W
HStem: 290 60
LayerCount: 2
Fore
SplineSet
0 320 m 1
 0 290 l 1
 400 290 l 1
 400 320 l 1
 400 350 l 1
 0 350 l 1
 0 320 l 1
EndSplineSet
EndChar

StartChar: uni3128
Encoding: 135 12584 135
Width: 500
VWidth: 0
Flags: W
VStem: 310.896 58.209<537.215 594.474>
LayerCount: 2
Fore
SplineSet
20 500 m 1
 0.794921875 476.953125 l 1
 117.572265625 379.638671875 276.733398438 200.622070312 374.559570312 44.099609375 c 1
 400 60 l 1
 425.440429688 75.8994140625 l 1
 323.266601562 239.377929688 162.427734375 420.361328125 39.205078125 523.046875 c 1
 20 500 l 1
340 600 m 1
 310.895507812 607.276367188 l 1
 271.887695312 451.2421875 173.231445312 216.344726562 0.0693359375 62.421875 c 1
 20 40 l 1
 39.9306640625 17.5771484375 l 1
 226.768554688 183.655273438 328.112304688 428.7578125 369.104492188 592.723632812 c 1
 340 600 l 1
EndSplineSet
EndChar

StartChar: uni3129
Encoding: 136 12585 136
Width: 500
VWidth: 0
Flags: W
LayerCount: 2
Fore
SplineSet
32 560 m 1
 2 560 l 1
 2 100 l 2
 2 81.8408203125 19.1240234375 70 32 70 c 2
 380 70 l 1
 380 100 l 1
 380 130 l 1
 62 130 l 1
 62 560 l 1
 32 560 l 1
380 560 m 1
 350 560 l 1
 350 60 l 1
 380 60 l 1
 410 60 l 1
 410 560 l 1
 380 560 l 1
EndSplineSet
EndChar

StartChar: uni312A
Encoding: 137 12586 137
Width: 500
VWidth: 0
Flags: W
HStem: 9 54.0039<320 352.973>
VStem: 210 60<505.27 720> 369.997 60.0029<243.536 441>
LayerCount: 2
Fore
SplineSet
100 720 m 1
 100 693 l 1
 440 693 l 1
 440 720 l 1
 440 747 l 1
 100 747 l 1
 100 720 l 1
240 720 m 1
 210 720 l 1
 210 343.139648438 171.934570312 243.6796875 72.689453125 47.1728515625 c 1
 100 36 l 1
 127.310546875 24.8271484375 l 1
 228.065429688 224.3203125 270 340.860351562 270 720 c 1
 240 720 l 1
320 53.099609375 m 1
 320 9 l 1
 355.45703125 9 392.544921875 34.2060546875 406.833007812 59.92578125 c 0
 435.272460938 111.1171875 430 287.353515625 430 468 c 0
 430 479.587890625 418.159179688 495 400 495 c 2
 240 495 l 1
 240 441 l 1
 369.997070312 441 l 1
 369.946289062 269.211914062 364.108398438 103.768554688 353.166992188 84.07421875 c 0
 349.833984375 78.076171875 325.755859375 63.41796875 320 63.00390625 c 1
 320 53.099609375 l 1
EndSplineSet
EndChar

StartChar: uni312B
Encoding: 138 12587 138
Width: 500
VWidth: 0
Flags: W
VStem: 190 60<501.267 720> 310 60<82.4516 108>
LayerCount: 2
Fore
SplineSet
120 720 m 1
 120 693 l 1
 440 693 l 1
 440 720 l 1
 440 747 l 1
 120 747 l 1
 120 720 l 1
220 720 m 1
 190 720 l 1
 190 503.970703125 189.196289062 325.25 151.154296875 205.416992188 c 0
 136.830078125 160.295898438 74.4931640625 68.212890625 74.4931640625 68.212890625 c 1
 100 54 l 1
 125.506835938 39.7861328125 l 2
 126.107421875 40.6591796875 190.181640625 131.791015625 208.845703125 190.583007812 c 0
 250.803710938 322.75 250 504.029296875 250 720 c 1
 220 720 l 1
340 720 m 1
 310 720 l 1
 310 108 l 2
 310 64.3779296875 336.891601562 27 380 27 c 2
 440 27 l 1
 440 54 l 1
 440 81 l 1
 380 81 l 1
 380 81 370 79.62109375 370 108 c 2
 370 720 l 1
 340 720 l 1
EndSplineSet
EndChar

StartChar: uni31B4
Encoding: 159 12724 139
Width: 1024
VWidth: 1024
Flags: W
HStem: 27 52.5<280.748 391.661> 262 53.5<218 408.5>
VStem: 188.5 51<331.625 401.284> 408.5 55.5<94.589 262>
LayerCount: 2
Fore
SplineSet
464 315.5 m 1
 464 183.5 456.666992188 102.416992188 442 72.25 c 0
 427.333007812 42.0830078125 400 27 360 27 c 0
 336.333007812 27 309.833007812 30.6669921875 280.5 38 c 1
 272.5 93 l 1
 303.166992188 84 330.333007812 79.5 354 79.5 c 0
 373.333007812 79.5 385.25 82.1669921875 389.75 87.5 c 0
 394.25 92.8330078125 398.5 113.333007812 402.5 149 c 0
 406.5 184.666992188 408.5 222.333007812 408.5 262 c 1
 145.5 262 l 1
 159.833007812 304.666992188 174.166992188 354.833007812 188.5 412.5 c 1
 239.5 399.5 l 1
 235.5 376.833007812 228.333007812 348.833007812 218 315.5 c 1
 464 315.5 l 1
EndSplineSet
EndChar

StartChar: uni31B5
Encoding: 160 12725 140
Width: 1024
VWidth: 1024
Flags: W
HStem: 27.5 51.5<313.569 398.93> 251 53<227.5 279.5 330.068 419>
VStem: 279.5 52.5<180.781 251> 419 50<89.3594 251>
LayerCount: 2
Fore
SplineSet
469 304 m 1
 469 185.666992188 462.416992188 110 449.25 77 c 0
 436.083007812 44 410.166992188 27.5 371.5 27.5 c 0
 353.833007812 27.5 334.833007812 30 314.5 35 c 1
 302 89 l 1
 325.333007812 82.3330078125 346 79 364 79 c 0
 381 79 392 82.3330078125 397 89 c 0
 402 95.6669921875 406.916992188 116.5 411.75 151.5 c 0
 416.583007812 186.5 419 219.666992188 419 251 c 1
 332 251 l 1
 325 151 265.166992188 76.5 152.5 27.5 c 1
 120 68.5 l 1
 222.333007812 116.5 275.5 177.333007812 279.5 251 c 1
 148.5 251 l 1
 168.833007812 294 187 343.5 203 399.5 c 1
 250 381 l 1
 247.333007812 368.333007812 239.833007812 342.666992188 227.5 304 c 1
 469 304 l 1
EndSplineSet
EndChar

StartChar: uni31B6
Encoding: 161 12726 141
Width: 1024
VWidth: 1024
Flags: W
HStem: -15.5 55.5<270.5 348.454> 157.5 53.5<261 372.5> 277.5 53.5<113.5 223 279.5 481.5>
LayerCount: 2
Fore
SplineSet
481.5 277.5 m 1
 279.5 277.5 l 1
 261 211 l 1
 430 211 l 1
 428 159.666992188 423.75 117 417.25 83 c 0
 410.75 49 403.25 26.5 394.75 15.5 c 0
 386.25 4.5 374.666992188 -3.4169921875 360 -8.25 c 0
 345.333007812 -13.0830078125 315.5 -15.5 270.5 -15.5 c 1
 251 40 l 1
 269.333007812 38.6669921875 285.833007812 38 300.5 38 c 0
 326.5 38 342.583007812 40.5830078125 348.75 45.75 c 0
 354.916992188 50.9169921875 359.666992188 61.8330078125 363 78.5 c 0
 366.333007812 95.1669921875 369.5 121.5 372.5 157.5 c 1
 193.5 157.5 l 1
 223 277.5 l 1
 113.5 277.5 l 1
 113.5 331 l 1
 481.5 331 l 1
 481.5 277.5 l 1
EndSplineSet
EndChar

StartChar: uni31B7
Encoding: 162 12727 142
Width: 1024
VWidth: 1024
Flags: W
HStem: 271.5 54<127 153.5 209 470>
VStem: 153.5 55.5<84.864 271.5>
LayerCount: 2
Fore
SplineSet
470 271.5 m 1
 209 271.5 l 1
 208.333007812 131.166992188 183.666992188 29 135 -35 c 1
 92 -3 l 1
 135 57.6669921875 155.5 149.166992188 153.5 271.5 c 1
 127 271.5 l 1
 127 325.5 l 1
 470 325.5 l 1
 470 271.5 l 1
EndSplineSet
EndChar

StartChar: uni3127_uni311A
Encoding: 163 -1 143
Width: 500
VWidth: 0
Flags: W
VStem: 170 60<247.653 269.535>
LayerCount: 2
Fore
SplineSet
20 640 m 5
 20 610 l 5
 380 610 l 5
 380 640 l 5
 380 670 l 5
 20 670 l 5
 20 640 l 5
20 500 m 1
 -1.212890625 478.787109375 l 1
 35.609375 441.963867188 85.5517578125 372.588867188 125.038085938 313.359375 c 1
 150 330 l 1
 174.961914062 346.640625 l 1
 134.448242188 407.411132812 84.390625 478.036132812 41.212890625 521.212890625 c 1
 20 500 l 1
380 500 m 1
 353.166992188 513.416015625 l 1
 314.959960938 437.001953125 257.03515625 359.461914062 178.787109375 281.212890625 c 0
 173.0546875 275.481445312 170 266.607421875 170 260 c 2
 170 0 l 1
 200 0 l 1
 230 0 l 1
 230 247.653320312 l 1
 306.06640625 325.125976562 366.668945312 406.255859375 406.833007812 486.583984375 c 1
 380 500 l 1
EndSplineSet
LCarets2: 1 0
Ligature2: "'liga' Standard Ligatures in Bopomofo lookup 0-1" uni3127 uni311A
EndChar

StartChar: uni3127_uni311B
Encoding: 164 -1 144
Width: 500
VWidth: 0
Flags: W
HStem: -10 60<116.625 311.386>
VStem: 10 60<94.4436 246.313>
LayerCount: 2
Fore
SplineSet
20 640 m 1
 20 610 l 1
 380 610 l 1
 380 640 l 1
 380 670 l 1
 20 670 l 1
 20 640 l 1
20 480 m 1
 20 450 l 1
 380 450 l 1
 380 480 l 1
 380 510 l 1
 20 510 l 1
 20 480 l 1
220 480 m 1
 190 480 l 1
 190 349.017578125 l 1
 109.944335938 343.397460938 10 305.754882812 10 170 c 0
 10 15.0673828125 137.69921875 -10 220 -10 c 0
 268.6796875 -10 330.162109375 11.5400390625 373.416015625 33.1669921875 c 1
 360 60 l 1
 346.583984375 86.8330078125 l 1
 309.837890625 68.4599609375 251.3203125 50 220 50 c 0
 142.30078125 50 70 64.9326171875 70 170 c 0
 70 274.98046875 142.322265625 290 220 290 c 0
 232.875976562 290 250 301.840820312 250 320 c 2
 250 480 l 1
 220 480 l 1
EndSplineSet
LCarets2: 1 0
Ligature2: "'liga' Standard Ligatures in Bopomofo lookup 0-1" uni3127 uni311B
EndChar

StartChar: uni3127_uni311C
Encoding: 165 -1 145
Width: 500
VWidth: 0
Flags: W
HStem: -30 60<113.23 302.894>
VStem: 10 60<70.298 194.864>
LayerCount: 2
Fore
SplineSet
20 640 m 1
 20 610 l 1
 380 610 l 1
 380 640 l 1
 380 670 l 1
 20 670 l 1
 20 640 l 1
20 400 m 1
 20 370 l 1
 380 370 l 1
 380 400 l 1
 380 430 l 1
 20 430 l 1
 20 400 l 1
220 506 m 1
 190 506 l 1
 190 289.0625 l 1
 114.549804688 284.141601562 10 254.12109375 10 140 c 0
 10 -6.3779296875 138.876953125 -30 220 -30 c 0
 311.108398438 -30 360.296875 17.8701171875 381.212890625 38.787109375 c 1
 360 60 l 1
 338.787109375 81.212890625 l 1
 319.703125 62.1298828125 288.891601562 30 220 30 c 0
 141.123046875 30 70 46.3779296875 70 140 c 0
 70 210.451171875 138.5234375 230 220 230 c 0
 232.875976562 230 250 241.840820312 250 260 c 2
 250 506 l 1
 220 506 l 1
EndSplineSet
Ligature2: "'liga' Standard Ligatures in Bopomofo lookup 0-1" uni3127 uni311C
EndChar

StartChar: uni3127_uni311D
Encoding: 166 -1 146
Width: 500
VWidth: 0
Flags: W
HStem: -30 60<111.5 140>
VStem: 50 60<31.6029 60> 290 60<208.542 320>
LayerCount: 2
Fore
SplineSet
20 640 m 1
 20 610 l 1
 380 610 l 1
 380 640 l 1
 380 670 l 1
 20 670 l 1
 20 640 l 1
0 340 m 1
 0 310 l 1
 400 310 l 1
 400 340 l 1
 400 370 l 1
 0 370 l 1
 0 340 l 1
80 480 m 1
 50 480 l 1
 50 60 l 2
 50 5.89453125 85.6171875 -30 140 -30 c 2
 360 -30 l 1
 360 0 l 1
 360 30 l 1
 140 30 l 2
 114.3828125 30 110 34.10546875 110 60 c 2
 110 480 l 1
 80 480 l 1
320 480 m 1
 290 480 l 1
 290 320 l 2
 290 266.541015625 271.498046875 210.079101562 253.166992188 173.416015625 c 1
 280 160 l 1
 306.833007812 146.583984375 l 1
 328.501953125 189.920898438 350 253.458984375 350 320 c 2
 350 480 l 1
 320 480 l 1
EndSplineSet
Ligature2: "'liga' Standard Ligatures in Bopomofo lookup 0-1" uni3127 uni311D
EndChar

StartChar: uni3127_uni311E
Encoding: 167 -1 147
Width: 500
VWidth: 0
Flags: W
VStem: 190 60<315.915 480> 350 60<102.482 240>
LayerCount: 2
Fore
SplineSet
20 640 m 1
 20 610 l 1
 380 610 l 1
 380 640 l 1
 380 670 l 1
 20 670 l 1
 20 640 l 1
0 500 m 1
 0 470 l 1
 400 470 l 1
 400 500 l 1
 400 530 l 1
 0 530 l 1
 0 500 l 1
40 400 m 1
 10.408203125 404.931640625 l 1
 -9.591796875 284.931640625 l 2
 -12.9013671875 265.076171875 4.9560546875 250 20 250 c 2
 350 250 l 1
 350 240 l 2
 350 165.06640625 331.379882812 89.841796875 293.166992188 13.416015625 c 1
 320 0 l 1
 346.833007812 -13.416015625 l 1
 388.620117188 70.158203125 410 154.93359375 410 240 c 2
 410 280 l 2
 410 292.875976562 398.159179688 310 380 310 c 2
 55.4140625 310 l 1
 69.591796875 395.068359375 l 1
 40 400 l 1
220 480 m 1
 190 480 l 1
 190 226.907226562 115.706054688 120.669921875 -14.8837890625 46.046875 c 1
 0 20 l 1
 14.8837890625 -6.0478515625 l 1
 164.293945312 79.3291015625 250 213.092773438 250 480 c 1
 220 480 l 1
EndSplineSet
Ligature2: "'liga' Standard Ligatures in Bopomofo lookup 0-1" uni3127 uni311E
EndChar

StartChar: uni3127_uni311F
Encoding: 168 -1 148
Width: 500
VWidth: 0
Flags: W
LayerCount: 2
Fore
SplineSet
20 640 m 1
 20 610 l 1
 380 610 l 1
 380 640 l 1
 380 670 l 1
 20 670 l 1
 20 640 l 1
0 400 m 1
 13.416015625 373.166992188 l 1
 117.403320312 425.16015625 l 1
 176.51953125 181.399414062 243.668945312 74.625 406.583984375 -6.8330078125 c 1
 420 20 l 1
 433.416015625 46.8330078125 l 1
 282.713867188 122.18359375 228.744140625 208.858398438 169.231445312 466.74609375 c 0
 166.327148438 479.33203125 154.19921875 490 140 490 c 2
 120 490 l 2
 115.670898438 490 110.728515625 488.905273438 106.583984375 486.833007812 c 2
 -13.416015625 426.833007812 l 1
 0 400 l 1
EndSplineSet
Ligature2: "'liga' Standard Ligatures in Bopomofo lookup 0-1" uni3127 uni311F
EndChar

StartChar: uni3127_uni3120
Encoding: 169 -1 149
Width: 500
VWidth: 0
Flags: W
HStem: 10 60<139.001 360>
LayerCount: 2
Fore
SplineSet
20 640 m 1
 20 610 l 1
 380 610 l 1
 380 640 l 1
 380 670 l 1
 20 670 l 1
 20 640 l 1
180 500 m 1
 154.275390625 515.434570312 l 1
 95.2548828125 417.06640625 35.654296875 338.081054688 -1.212890625 301.212890625 c 0
 -14.0537109375 288.373046875 -10.3173828125 267.891601562 -1.212890625 258.787109375 c 2
 18.787109375 238.787109375 l 2
 24.5185546875 233.0546875 33.3916015625 230 40 230 c 2
 220 230 l 1
 220 260 l 1
 220 290 l 1
 69.7724609375 290 l 1
 107.822265625 334.641601562 157.30859375 403.87109375 205.724609375 484.565429688 c 1
 180 500 l 1
320 380 m 1
 294.275390625 395.434570312 l 1
 235.44140625 297.37890625 136.069335938 158.495117188 38.787109375 61.212890625 c 0
 25.9462890625 48.373046875 29.6826171875 27.8916015625 38.787109375 18.787109375 c 2
 58.787109375 -1.212890625 l 2
 65.6552734375 -8.08203125 76.4267578125 -10.8154296875 84.2421875 -9.6982421875 c 0
 221.978515625 9.978515625 340.556640625 10 360 10 c 1
 360 40 l 1
 360 70 l 1
 341.29296875 70 240.688476562 70.04296875 115.901367188 54.984375 c 1
 205.2578125 152.063476562 291.556640625 274.28515625 345.724609375 364.565429688 c 1
 320 380 l 1
320 140 m 1
 295.038085938 123.359375 l 1
 335.267578125 63.0146484375 332.809570312 53.8818359375 373.166992188 -26.83203125 c 1
 400 -13.416015625 l 1
 426.833007812 0 l 1
 387.190429688 79.2861328125 384.732421875 96.984375 344.961914062 156.640625 c 1
 320 140 l 1
EndSplineSet
Ligature2: "'liga' Standard Ligatures in Bopomofo lookup 0-1" uni3127 uni3120
EndChar

StartChar: uni3127_uni3121
Encoding: 170 -1 150
Width: 500
VWidth: 0
Flags: W
LayerCount: 2
Fore
SplineSet
20 640 m 1
 20 610 l 1
 380 610 l 1
 380 640 l 1
 380 670 l 1
 20 670 l 1
 20 640 l 1
40 460 m 1
 40 430 l 1
 308.13671875 430 l 1
 282.751953125 289.431640625 135.510742188 139.1328125 -18 24 c 1
 0 0 l 1
 18 -24 l 1
 179.161132812 96.87109375 347.78125 260.379882812 369.768554688 436.279296875 c 0
 369.879882812 437.168945312 370 438.80859375 370 440 c 2
 370 460 l 2
 370 472.875976562 358.159179688 490 340 490 c 2
 40 490 l 1
 40 460 l 1
40 320 m 1
 24.099609375 294.559570312 l 1
 182.838867188 195.34765625 280.266601562 117.306640625 378.787109375 18.787109375 c 1
 400 40 l 1
 421.212890625 61.212890625 l 1
 319.733398438 162.692382812 217.161132812 244.65234375 55.900390625 345.439453125 c 1
 40 320 l 1
EndSplineSet
Ligature2: "'liga' Standard Ligatures in Bopomofo lookup 0-1" uni3127 uni3121
EndChar

StartChar: uni3127_uni3122
Encoding: 171 -1 151
Width: 500
VWidth: 0
Flags: W
VStem: 369.929 60.0713<60.221 190>
LayerCount: 2
Fore
SplineSet
20 640 m 1
 20 610 l 1
 380 610 l 1
 380 640 l 1
 380 670 l 1
 20 670 l 1
 20 640 l 1
0 480 m 1
 0 450 l 1
 309.529296875 450 l 1
 306.596679688 416.74609375 256.80859375 278.78125 240.333984375 245.83203125 c 1
 267.166992188 232.416015625 l 1
 294 219 l 1
 315.626953125 262.25390625 370 411.3203125 370 460 c 2
 370 480 l 2
 370 492.875976562 358.159179688 510 340 510 c 2
 0 510 l 1
 0 480 l 1
80 380 m 1
 51.154296875 388.241210938 l 1
 11.154296875 248.241210938 l 2
 10.40625 245.625 10 242.209960938 10 240 c 2
 10 220 l 2
 10 201.840820312 27.1240234375 190 40 190 c 2
 369.928710938 190 l 1
 368.508789062 99.3125 350.91015625 50.4482421875 315.038085938 -3.359375 c 1
 340 -20 l 1
 364.961914062 -36.640625 l 1
 407.90625 27.7763671875 430 95.8857421875 430 200 c 2
 430 220 l 2
 430 232.875976562 418.159179688 250 400 250 c 2
 74.0576171875 250 l 1
 108.845703125 371.7578125 l 1
 80 380 l 1
EndSplineSet
LCarets2: 1 0
Ligature2: "'liga' Standard Ligatures in Bopomofo lookup 0-1" uni3127 uni3122
EndChar

StartChar: uni3127_uni3123
Encoding: 172 -1 152
Width: 500
VWidth: 0
Flags: W
VStem: 369.789 60.2109<114.272 250>
LayerCount: 2
Fore
SplineSet
20 640 m 1
 20 610 l 1
 380 610 l 1
 380 640 l 1
 380 670 l 1
 20 670 l 1
 20 640 l 1
80 500 m 1
 50.5830078125 505.883789062 l 1
 10.5830078125 305.883789062 l 2
 10.2080078125 304.012695312 10 301.48046875 10 300 c 2
 10 280 l 2
 10 261.840820312 27.1240234375 250 40 250 c 2
 369.7890625 250 l 1
 366.727539062 173.569335938 328.323242188 23.7275390625 313.166992188 -6.583984375 c 1
 340 -20 l 1
 366.833007812 -33.416015625 l 1
 390.8984375 14.7138671875 430 171.934570312 430 260 c 2
 430 280 l 2
 430 292.875976562 418.159179688 310 400 310 c 2
 72.59375 310 l 1
 109.416992188 494.116210938 l 1
 80 500 l 1
EndSplineSet
Ligature2: "'liga' Standard Ligatures in Bopomofo lookup 0-1" uni3127 uni3123
EndChar

StartChar: uni3127_uni3124
Encoding: 173 -1 153
Width: 500
VWidth: 0
Flags: W
VStem: 150 60<396.579 500>
LayerCount: 2
Fore
SplineSet
20 640 m 1
 20 610 l 1
 380 610 l 1
 380 640 l 1
 380 670 l 1
 20 670 l 1
 20 640 l 1
20 360 m 1
 20 330 l 1
 400 330 l 1
 400 360 l 1
 400 390 l 1
 20 390 l 1
 20 360 l 1
180 500 m 1
 150 500 l 1
 150 303.141601562 110.504882812 134.23046875 -19.5234375 22.77734375 c 1
 0 0 l 1
 19.5234375 -22.77734375 l 1
 169.495117188 105.768554688 210 296.857421875 210 500 c 1
 180 500 l 1
240 360 m 1
 210 360 l 1
 210 40 l 2
 210 2.3134765625 242.465820312 -30 280 -30 c 2
 400 -30 l 1
 400 0 l 1
 400 30 l 1
 280 30 l 2
 277.534179688 30 270 37.6865234375 270 40 c 2
 270 360 l 1
 240 360 l 1
EndSplineSet
Ligature2: "'liga' Standard Ligatures in Bopomofo lookup 0-1" uni3127 uni3124
EndChar

StartChar: uni3127_uni3125
Encoding: 174 -1 154
Width: 500
VWidth: 0
Flags: W
VStem: 171.154 57.6914<402.263 453.758>
LayerCount: 2
Fore
SplineSet
20 640 m 1
 20 610 l 1
 380 610 l 1
 380 640 l 1
 380 670 l 1
 20 670 l 1
 20 640 l 1
200 460 m 1
 171.154296875 468.241210938 l 1
 131.666992188 330.03515625 72.15625 172.317382812 -4.9619140625 56.640625 c 0
 -8.2578125 51.6962890625 -10 44.7880859375 -10 40 c 2
 -10 20 l 2
 -10 1.8408203125 7.1240234375 -10 20 -10 c 2
 380 -10 l 1
 380 20 l 1
 380 50 l 1
 62.0283203125 50 l 1
 135.833984375 170.001953125 191.16015625 319.859375 228.845703125 451.7578125 c 1
 200 460 l 1
EndSplineSet
Ligature2: "'liga' Standard Ligatures in Bopomofo lookup 0-1" uni3127 uni3125
EndChar

StartChar: uni3127_uni3126
Encoding: 175 -1 155
Width: 500
VWidth: 0
Flags: W
VStem: 90 60<259.458 480>
LayerCount: 2
Fore
SplineSet
20 640 m 1
 20 610 l 1
 380 610 l 1
 380 640 l 1
 380 670 l 1
 20 670 l 1
 20 640 l 1
120 480 m 1
 90 480 l 1
 90 258.046875 90.1240234375 153.904296875 -39.5234375 42.77734375 c 1
 -20 20 l 1
 -0.4765625 -2.77734375 l 1
 149.875976562 126.095703125 150 261.953125 150 480 c 1
 120 480 l 1
280 480 m 1
 250 480 l 1
 250 60 l 2
 250 22.3134765625 282.465820312 -10 320 -10 c 2
 420 -10 l 1
 420 20 l 1
 420 50 l 1
 320 50 l 2
 317.534179688 50 310 57.6865234375 310 60 c 2
 310 480 l 1
 280 480 l 1
EndSplineSet
Ligature2: "'liga' Standard Ligatures in Bopomofo lookup 0-1" uni3127 uni3126
EndChar

StartChar: uni3127_uni3128
Encoding: 176 -1 156
Width: 500
VWidth: 0
Flags: W
LayerCount: 2
Fore
SplineSet
20 640 m 1
 20 610 l 1
 380 610 l 1
 380 640 l 1
 380 670 l 1
 20 670 l 1
 20 640 l 1
20 420 m 1
 1.58203125 396.319335938 l 1
 180.513671875 257.150390625 277.286132812 160.185546875 375.587890625 22.5625 c 1
 400 40 l 1
 424.412109375 57.4375 l 1
 322.713867188 199.813476562 219.486328125 302.849609375 38.41796875 443.680664062 c 1
 20 420 l 1
340 500 m 1
 311.5390625 509.486328125 l 1
 232.799804688 273.268554688 159.161132812 181.797851562 -18.41796875 43.6806640625 c 1
 0 20 l 1
 18.41796875 -3.6806640625 l 1
 200.838867188 138.202148438 287.200195312 246.731445312 368.4609375 490.512695312 c 1
 340 500 l 1
EndSplineSet
Ligature2: "'liga' Standard Ligatures in Bopomofo lookup 0-1" uni3127 uni3128
EndChar

StartChar: uni3128_uni311A
Encoding: 177 -1 157
Width: 500
VWidth: 0
Flags: W
LayerCount: 2
Fore
SplineSet
340 660 m 1
 315.038085938 676.640625 l 1
 237.208007812 559.89453125 164.775390625 486.221679688 -31.1416015625 407.854492188 c 1
 -20 380 l 1
 -8.8583984375 352.145507812 l 1
 195.224609375 433.778320312 282.791992188 520.10546875 364.961914062 643.359375 c 1
 340 660 l 1
20 620 m 1
 9.4658203125 591.91015625 l 1
 167.1484375 532.779296875 262.604492188 475.444335938 380.794921875 376.953125 c 1
 400 400 l 1
 419.205078125 423.046875 l 1
 297.395507812 524.555664062 192.8515625 587.220703125 30.5341796875 648.08984375 c 1
 20 620 l 1
20 300 m 5
 3.359375 275.038085938 l 5
 64.2236328125 234.461914062 111.767578125 205.805664062 158.787109375 158.787109375 c 5
 180 180 l 5
 201.212890625 201.212890625 l 5
 148.232421875 254.194335938 95.7763671875 285.538085938 36.640625 324.9609375 c 5
 20 300 l 5
380 300 m 5
 358.787109375 321.212890625 l 5
 319.015625 281.442382812 293.138671875 254.829101562 183.893554688 185.309570312 c 4
 175.227539062 179.794921875 170 169.787109375 170 160 c 6
 170 0 l 5
 200 0 l 5
 230 0 l 5
 230 143.591796875 l 5
 328.04296875 206.875 363.16015625 240.733398438 401.212890625 278.787109375 c 5
 380 300 l 5
EndSplineSet
Ligature2: "'liga' Standard Ligatures in Bopomofo lookup 0-1" uni3128 uni311A
EndChar

StartChar: uni3128_uni311C
Encoding: 179 -1 158
Width: 500
VWidth: 0
Flags: W
HStem: 150.277 59.6738<101.524 190>
VStem: 10 60<58.1156 123.356>
LayerCount: 2
Fore
SplineSet
364.961914062 643.359375 m 1
 315.038085938 676.640625 l 1
 237.208007812 559.89453125 164.775390625 486.221679688 -31.1416015625 407.854492188 c 1
 -8.8583984375 352.145507812 l 1
 195.224609375 433.778320312 282.791992188 520.10546875 364.961914062 643.359375 c 1
30.5341796875 648.08984375 m 1
 9.4658203125 591.91015625 l 1
 167.1484375 532.779296875 262.604492188 475.444335938 380.794921875 376.953125 c 1
 419.205078125 423.046875 l 1
 297.395507812 524.555664062 192.8515625 587.220703125 30.5341796875 648.08984375 c 1
0 310 m 1
 0 250 l 1
 400 250 l 1
 400 310 l 1
 0 310 l 1
381.212890625 18.787109375 m 1
 338.787109375 61.212890625 l 1
 326.290039062 48.7158203125 295.352539062 30 220 30 c 0
 219.616210938 30 218.885742188 29.9833984375 218.368164062 29.955078125 c 0
 202.06640625 29.103515625 70 32.375 70 90 c 0
 70 136.456054688 156.540039062 150.342773438 207.110351562 150.27734375 c 0
 214.157226562 150.268554688 218.368164062 150.043945312 218.368164062 150.043945312 c 1
 237.67578125 148.9921875 250 164.400390625 250 180 c 0
 250 340 l 1
 190 340 l 1
 190 209.951171875 l 1
 144.142578125 208.096679688 10 198.356445312 10 90 c 0
 10 -49.9384765625 220.766601562 -30 220.766601562 -30 c 1
 306.149414062 -29.7216796875 353.708984375 -8.7177734375 381.212890625 18.787109375 c 1
EndSplineSet
Ligature2: "'liga' Standard Ligatures in Bopomofo lookup 0-1" uni3128 uni311C
EndChar

StartChar: uni3128_uni311D
Encoding: 180 -1 159
Width: 500
VWidth: 0
Flags: W
VStem: 270 60<112.063 300>
LayerCount: 2
Fore
SplineSet
364.961914062 643.359375 m 1
 315.038085938 676.640625 l 1
 237.208007812 559.89453125 164.775390625 486.221679688 -31.1416015625 407.854492188 c 1
 -8.8583984375 352.145507812 l 1
 195.224609375 433.778320312 282.791992188 520.10546875 364.961914062 643.359375 c 1
30.5341796875 648.08984375 m 1
 9.4658203125 591.91015625 l 1
 167.1484375 532.779296875 262.604492188 475.444335938 380.794921875 376.953125 c 1
 419.205078125 423.046875 l 1
 297.395507812 524.555664062 192.8515625 587.220703125 30.5341796875 648.08984375 c 1
0 250 m 1
 0 190 l 1
 400 190 l 1
 400 250 l 1
 0 250 l 1
110 300 m 1
 50 300 l 1
 50 40 l 0
 50 2.3134765625 82.4658203125 -30 120 -30 c 0
 360 -30 l 1
 360 30 l 1
 120 30 l 0
 117.534179688 30 110 37.6865234375 110 40 c 0
 110 300 l 1
330 300 m 1
 270 300 l 1
 270 199.073242188 269.971679688 164.784179688 251.5390625 109.486328125 c 1
 308.4609375 90.5126953125 l 1
 330.028320312 155.215820312 330 200.926757812 330 300 c 1
EndSplineSet
Ligature2: "'liga' Standard Ligatures in Bopomofo lookup 0-1" uni3128 uni311D
EndChar

StartChar: uni3128_uni311E
Encoding: 181 -1 160
Width: 500
VWidth: 0
Flags: W
VStem: 210 60<192.709 300>
LayerCount: 2
Fore
SplineSet
364.961914062 643.359375 m 1
 315.038085938 676.640625 l 1
 237.208007812 559.89453125 164.775390625 486.221679688 -31.1416015625 407.854492188 c 1
 -8.8583984375 352.145507812 l 1
 195.224609375 433.778320312 282.791992188 520.10546875 364.961914062 643.359375 c 1
30.5341796875 648.08984375 m 1
 9.4658203125 591.91015625 l 1
 167.1484375 532.779296875 262.604492188 475.444335938 380.794921875 376.953125 c 1
 419.205078125 423.046875 l 1
 297.395507812 524.555664062 192.8515625 587.220703125 30.5341796875 648.08984375 c 1
0 330 m 1
 0 270 l 1
 400 270 l 1
 400 330 l 1
 0 330 l 1
86.8330078125 226.583984375 m 1
 33.1669921875 253.416015625 l 1
 -6.8330078125 173.416015625 l 0
 -8.9052734375 169.271484375 -10 164.329101562 -10 160 c 0
 -10 140 l 0
 -10 121.840820312 7.1240234375 110 20 110 c 0
 349.517578125 110 l 1
 345.3125 68.7177734375 293.555664062 15.9814453125 275 -2.57421875 c 5
 341.212890625 -21.212890625 l 5
 361.120117188 -1.3056640625 410 46.0234375 410 120 c 0
 410 140 l 0
 410 152.875976562 398.159179688 170 380 170 c 0
 58.541015625 170 l 1
 86.8330078125 226.583984375 l 1
270 300 m 1
 210 300 l 1
 210 174.21875 141.845703125 85.232421875 -10.5341796875 28.08984375 c 1
 10.5341796875 -28.08984375 l 1
 178.154296875 34.767578125 270 145.780273438 270 300 c 1
EndSplineSet
Ligature2: "'liga' Standard Ligatures in Bopomofo lookup 0-1" uni3128 uni311E
EndChar

StartChar: uni3128_uni311F
Encoding: 182 -1 161
Width: 500
VWidth: 0
Flags: W
HStem: -8.73535 57.4697<368.545 413.48>
LayerCount: 2
Fore
SplineSet
364.961914062 643.359375 m 1
 315.038085938 676.640625 l 1
 237.208007812 559.89453125 164.775390625 486.221679688 -31.1416015625 407.854492188 c 1
 -8.8583984375 352.145507812 l 1
 195.224609375 433.778320312 282.791992188 520.10546875 364.961914062 643.359375 c 1
30.5341796875 648.08984375 m 1
 9.4658203125 591.91015625 l 1
 167.1484375 532.779296875 262.604492188 475.444335938 380.794921875 376.953125 c 1
 419.205078125 423.046875 l 1
 297.395507812 524.555664062 192.8515625 587.220703125 30.5341796875 648.08984375 c 1
-28.2412109375 268.845703125 m 1
 -11.7587890625 211.154296875 l 1
 102.995117188 243.940429688 l 1
 160.49609375 114.98828125 218.330078125 49.1796875 411.379882812 -8.7353515625 c 1
 428.620117188 48.734375 l 1
 234.470703125 106.979492188 206.141601562 155.16015625 147.57421875 291.817382812 c 0
 142.45703125 303.7578125 126.989257812 313.197265625 111.758789062 308.845703125 c 0
 -28.2412109375 268.845703125 l 1
EndSplineSet
Ligature2: "'liga' Standard Ligatures in Bopomofo lookup 0-1" uni3128 uni311F
EndChar

StartChar: uni3128_uni3120
Encoding: 183 -1 162
Width: 500
VWidth: 0
Flags: W
HStem: -29.6514 74.6123<45.3496 73.6856>
LayerCount: 2
Fore
SplineSet
364.961914062 643.359375 m 1
 315.038085938 676.640625 l 1
 237.208007812 559.89453125 164.775390625 486.221679688 -31.1416015625 407.854492188 c 1
 -8.8583984375 352.145507812 l 1
 195.224609375 433.778320312 282.791992188 520.10546875 364.961914062 643.359375 c 1
30.5341796875 648.08984375 m 1
 9.4658203125 591.91015625 l 1
 167.1484375 532.779296875 262.604492188 475.444335938 380.794921875 376.953125 c 1
 419.205078125 423.046875 l 1
 297.395507812 524.555664062 192.8515625 587.220703125 30.5341796875 648.08984375 c 1
203.046875 280.793945312 m 1
 156.953125 319.205078125 l 1
 110.3203125 263.245117188 76.3935546875 246.77734375 5.1162109375 206.046875 c 0
 2.0048828125 204.26953125 -29.771484375 187.344726562 -1.212890625 158.787109375 c 0
 18.787109375 138.787109375 l 0
 24.5185546875 133.0546875 33.3916015625 130 40 130 c 0
 200 130 l 1
 200 190 l 1
 97.1953125 190 l 1
 133.94140625 212.520507812 167.775390625 238.46875 203.046875 280.793945312 c 1
378.154296875 265.822265625 m 1
 333 305.33203125 l 1
 264.750976562 227.333007812 131.231876847 103.525718206 43.359375 44.9609375 c 0
 36.583984375 40.4453125 14.986328125 22.5869140625 38.787109375 -1.212890625 c 0
 58.787109375 -21.212890625 l 0
 65.7177734375 -28.1435546875 76.5087890625 -30.8896484375 84.5615234375 -29.6513671875 c 0
 344.561523438 10.3486328125 l 1
 335.438476562 69.6513671875 l 1
 139.124023438 39.44921875 l 1
 205.552734375 89.7978515625 323.12109375 202.926757812 378.154296875 265.822265625 c 1
350.666015625 125.83203125 m 1
 297 99 l 1
 365 -35 l 1
 418.666015625 -8.16796875 l 1
 350.666015625 125.83203125 l 1
EndSplineSet
Ligature2: "'liga' Standard Ligatures in Bopomofo lookup 0-1" uni3128 uni3120
EndChar

StartChar: uni3128_uni3121
Encoding: 184 -1 163
Width: 500
VWidth: 0
Flags: W
LayerCount: 2
Fore
SplineSet
364.961914062 643.359375 m 1
 315.038085938 676.640625 l 1
 237.208007812 559.89453125 164.775390625 486.221679688 -31.1416015625 407.854492188 c 1
 -8.8583984375 352.145507812 l 1
 195.224609375 433.778320312 282.791992188 520.10546875 364.961914062 643.359375 c 1
30.5341796875 648.08984375 m 1
 9.4658203125 591.91015625 l 1
 167.1484375 532.779296875 262.604492188 475.444335938 380.794921875 376.953125 c 1
 419.205078125 423.046875 l 1
 297.395507812 524.555664062 192.8515625 587.220703125 30.5341796875 648.08984375 c 1
20 330 m 1
 20 270 l 1
 300.484375 270 l 1
 241.1328125 168.415039062 133.057617188 81.9365234375 -10.5341796875 28.08984375 c 1
 10.5341796875 -28.08984375 l 1
 175.97265625 33.94921875 302.625 138.16796875 366.833007812 266.583984375 c 0
 368.768554688 270.456054688 370 275.365234375 370 280 c 0
 370 300 l 0
 370 312.875976562 358.159179688 330 340 330 c 0
 20 330 l 1
50.5341796875 228.08984375 m 1
 29.4658203125 171.91015625 l 1
 187.202148438 112.758789062 283.265625 54.96875 381.258789062 -23.42578125 c 1
 418.741210938 23.42578125 l 1
 316.734375 105.03125 212.797851562 167.240234375 50.5341796875 228.08984375 c 1
EndSplineSet
Ligature2: "'liga' Standard Ligatures in Bopomofo lookup 0-1" uni3128 uni3121
EndChar

StartChar: uni3128_uni3122
Encoding: 185 -1 164
Width: 500
VWidth: 0
Flags: W
LayerCount: 2
Fore
SplineSet
364.961914062 643.359375 m 1
 315.038085938 676.640625 l 1
 237.208007812 559.89453125 164.775390625 486.221679688 -31.1416015625 407.854492188 c 1
 -8.8583984375 352.145507812 l 1
 195.224609375 433.778320312 282.791992188 520.10546875 364.961914062 643.359375 c 1
30.5341796875 648.08984375 m 1
 9.4658203125 591.91015625 l 1
 167.1484375 532.779296875 262.604492188 475.444335938 380.794921875 376.953125 c 1
 419.205078125 423.046875 l 1
 297.395507812 524.555664062 192.8515625 587.220703125 30.5341796875 648.08984375 c 1
0 330 m 1
 0 270 l 1
 309.497070312 270 l 1
 306.330078125 240.229492188 278.604492188 168.385742188 278.26953125 167.704101562 c 1
 332 141 l 1
 332.71484375 142.438476562 370 230.799804688 370 280 c 0
 370 300 l 0
 370 312.875976562 358.159179688 330 340 330 c 0
 0 330 l 1
106.833007812 226.583984375 m 1
 53.1669921875 253.416015625 l 1
 13.1669921875 173.416015625 l 0
 11.0947265625 169.271484375 10 164.329101562 10 160 c 0
 10 140 l 0
 10 121.840820312 27.1240234375 110 40 110 c 0
 369.232421875 110 l 1
 362.672851562 68.185546875 319.436523438 21.8701171875 318.749023438 21.1748046875 c 1
 361.250976562 -21.17578125 l 1
 361.50390625 -20.9208984375 430 42.5859375 430 120 c 0
 430 140 l 0
 430 152.875976562 418.159179688 170 400 170 c 0
 78.541015625 170 l 1
 106.833007812 226.583984375 l 1
EndSplineSet
Ligature2: "'liga' Standard Ligatures in Bopomofo lookup 0-1" uni3128 uni3122
EndChar

StartChar: uni3128_uni3123
Encoding: 186 -1 165
Width: 500
VWidth: 0
Flags: W
VStem: 10 60<233.173 300>
LayerCount: 2
Fore
SplineSet
364.961914062 643.359375 m 1
 315.038085938 676.640625 l 1
 237.208007812 559.89453125 164.775390625 486.221679688 -31.1416015625 407.854492188 c 1
 -8.8583984375 352.145507812 l 1
 195.224609375 433.778320312 282.791992188 520.10546875 364.961914062 643.359375 c 1
30.5341796875 648.08984375 m 1
 9.4658203125 591.91015625 l 1
 167.1484375 532.779296875 262.604492188 475.444335938 380.794921875 376.953125 c 1
 419.205078125 423.046875 l 1
 297.395507812 524.555664062 192.8515625 587.220703125 30.5341796875 648.08984375 c 1
70 300 m 1
 10 300 l 1
 10 285.864257812 -27.857421875 191.133789062 -27.857421875 191.133789062 c 0
 -29.2568359375 187.631835938 -30 183.290039062 -30 180 c 0
 -30 160 l 0
 -30 141.840820312 -12.8759765625 130 0 130 c 0
 349.577148438 130 l 1
 344.981445312 77.8759765625 313.153320312 13.388671875 313.153320312 13.388671875 c 1
 366.846679688 -13.3896484375 l 1
 367.397460938 -12.28515625 410 68.8330078125 410 140 c 0
 410 160 l 0
 410 172.875976562 398.159179688 190 380 190 c 0
 36.1142578125 190 l 1
 47.6728515625 220.083984375 70 271.602539062 70 300 c 1
EndSplineSet
Ligature2: "'liga' Standard Ligatures in Bopomofo lookup 0-1" uni3128 uni3123
EndChar

StartChar: uni3128_uni3124
Encoding: 187 -1 166
Width: 500
VWidth: 0
Flags: W
VStem: 170.302 59.3965<256.169 296.757>
LayerCount: 2
Fore
SplineSet
364.961914062 643.359375 m 1
 315.038085938 676.640625 l 1
 237.208007812 559.89453125 164.775390625 486.221679688 -31.1416015625 407.854492188 c 1
 -8.8583984375 352.145507812 l 1
 195.224609375 433.778320312 282.791992188 520.10546875 364.961914062 643.359375 c 1
30.5341796875 648.08984375 m 1
 9.4658203125 591.91015625 l 1
 167.1484375 532.779296875 262.604492188 475.444335938 380.794921875 376.953125 c 1
 419.205078125 423.046875 l 1
 297.395507812 524.555664062 192.8515625 587.220703125 30.5341796875 648.08984375 c 1
20 250 m 1
 20 190 l 1
 380 190 l 1
 380 250 l 1
 20 250 l 1
229.698242188 295.756835938 m 1
 170.301757812 304.2421875 l 1
 150.805664062 167.768554688 116.09765625 82.39453125 -11.8173828125 27.57421875 c 1
 11.8173828125 -27.57421875 l 1
 163.90234375 37.6044921875 209.194335938 152.23046875 229.698242188 295.756835938 c 1
290 220 m 1
 230 220 l 1
 230 40 l 0
 230 2.3134765625 262.465820312 -30 300 -30 c 0
 400 -30 l 1
 400 30 l 1
 300 30 l 0
 297.534179688 30 290 37.6865234375 290 40 c 0
 290 220 l 1
EndSplineSet
Ligature2: "'liga' Standard Ligatures in Bopomofo lookup 0-1" uni3128 uni3124
EndChar

StartChar: uni3128_uni3125
Encoding: 188 -1 167
Width: 500
VWidth: 0
Flags: W
LayerCount: 2
Fore
SplineSet
364.961914062 643.359375 m 1
 315.038085938 676.640625 l 1
 237.208007812 559.89453125 164.775390625 486.221679688 -31.1416015625 407.854492188 c 1
 -8.8583984375 352.145507812 l 1
 195.224609375 433.778320312 282.791992188 520.10546875 364.961914062 643.359375 c 1
30.5341796875 648.08984375 m 1
 9.4658203125 591.91015625 l 1
 167.1484375 532.779296875 262.604492188 475.444335938 380.794921875 376.953125 c 1
 419.205078125 423.046875 l 1
 297.395507812 524.555664062 192.8515625 587.220703125 30.5341796875 648.08984375 c 1
226.833007812 286.583984375 m 1
 173.166992188 313.416015625 l 1
 134.076171875 235.235351562 75.9453125 138.372070312 -21.212890625 41.212890625 c 0
 -26.9453125 35.4814453125 -30 26.607421875 -30 20 c 0
 -30 0 l 0
 -30 -18.1591796875 -12.8759765625 -30 0 -30 c 0
 380 -30 l 1
 380 30 l 1
 51.205078125 30 l 1
 136.134765625 122.201171875 190.0625 213.04296875 226.833007812 286.583984375 c 1
EndSplineSet
Ligature2: "'liga' Standard Ligatures in Bopomofo lookup 0-1" uni3128 uni3125
EndChar

StartChar: uni3128_uni3126
Encoding: 189 -1 168
Width: 500
VWidth: 0
Flags: W
VStem: 90 60<125.867 300>
LayerCount: 2
Fore
SplineSet
364.961914062 643.359375 m 1
 315.038085938 676.640625 l 1
 237.208007812 559.89453125 164.775390625 486.221679688 -31.1416015625 407.854492188 c 1
 -8.8583984375 352.145507812 l 1
 195.224609375 433.778320312 282.791992188 520.10546875 364.961914062 643.359375 c 1
30.5341796875 648.08984375 m 1
 9.4658203125 591.91015625 l 1
 167.1484375 532.779296875 262.604492188 475.444335938 380.794921875 376.953125 c 1
 419.205078125 423.046875 l 1
 297.395507812 524.555664062 192.8515625 587.220703125 30.5341796875 648.08984375 c 1
150 300 m 1
 90 300 l 1
 90 105.37890625 58.72265625 82.2197265625 -35.4345703125 25.724609375 c 1
 -4.5654296875 -25.724609375 l 1
 101.27734375 37.7802734375 150 94.62109375 150 300 c 1
310 300 m 1
 250 300 l 1
 250 40 l 0
 250 2.3134765625 282.465820312 -30 320 -30 c 0
 420 -30 l 1
 420 30 l 1
 320 30 l 0
 317.534179688 30 310 37.6865234375 310 40 c 0
 310 300 l 1
EndSplineSet
Ligature2: "'liga' Standard Ligatures in Bopomofo lookup 0-1" uni3128 uni3126
EndChar

StartChar: uni3128_uni3127
Encoding: 190 -1 169
Width: 500
VWidth: 0
Flags: W
LayerCount: 2
Fore
SplineSet
20 150 m 5
 20 120 l 5
 380 120 l 5
 380 150 l 5
 380 180 l 5
 20 180 l 5
 20 150 l 5
364.961914062 643.359375 m 5
 315.038085938 676.640625 l 1
 237.208007812 559.89453125 164.775390625 486.221679688 -31.1416015625 407.854492188 c 5
 -8.8583984375 352.145507812 l 5
 195.224609375 433.778320312 282.791992188 520.10546875 364.961914062 643.359375 c 5
30.5341796875 648.08984375 m 5
 9.4658203125 591.91015625 l 5
 167.1484375 532.779296875 262.604492188 475.444335938 380.794921875 376.953125 c 5
 419.205078125 423.046875 l 5
 297.395507812 524.555664062 192.8515625 587.220703125 30.5341796875 648.08984375 c 5
EndSplineSet
LCarets2: 1 0
Ligature2: "'liga' Standard Ligatures in Bopomofo lookup 0-1" uni3128 uni3127
EndChar

StartChar: uni3129_uni311A
Encoding: 191 -1 170
Width: 500
VWidth: 0
Flags: W
LayerCount: 2
Fore
SplineSet
50 640 m 5
 -10 640 l 5
 -10 420 l 4
 -10 401.840820312 7.1240234375 390 20 390 c 4
 380 390 l 5
 380 450 l 5
 50 450 l 5
 50 640 l 5
410 640 m 5
 350 640 l 5
 350 374 l 5
 410 374 l 5
 410 640 l 5
20 300 m 1
 3.359375 275.038085938 l 1
 64.2236328125 234.461914062 111.767578125 205.805664062 158.787109375 158.787109375 c 1
 180 180 l 1
 201.212890625 201.212890625 l 1
 148.232421875 254.194335938 95.7763671875 285.538085938 36.640625 324.9609375 c 1
 20 300 l 1
380 300 m 1
 358.787109375 321.212890625 l 1
 319.015625 281.442382812 293.138671875 254.829101562 183.893554688 185.309570312 c 0
 175.227539062 179.794921875 170 169.787109375 170 160 c 2
 170 0 l 1
 200 0 l 1
 230 0 l 1
 230 143.591796875 l 1
 328.04296875 206.875 363.16015625 240.733398438 401.212890625 278.787109375 c 1
 380 300 l 1
EndSplineSet
Ligature2: "'liga' Standard Ligatures in Bopomofo lookup 0-1" uni3129 uni311A
EndChar

StartChar: uni3129_uni311B
Encoding: 192 -1 171
Width: 500
VWidth: 0
Flags: W
HStem: 150.277 59.6738<101.524 190>
VStem: 10 60<58.1156 123.356>
LayerCount: 2
Fore
SplineSet
50 640 m 5
 -10 640 l 5
 -10 420 l 4
 -10 401.840820312 7.1240234375 390 20 390 c 4
 380 390 l 5
 380 450 l 5
 50 450 l 5
 50 640 l 5
410 640 m 5
 350 640 l 5
 350 374 l 5
 410 374 l 5
 410 640 l 5
0 310 m 1
 0 250 l 1
 400 250 l 1
 400 310 l 1
 0 310 l 1
381.212890625 18.787109375 m 1
 338.787109375 61.212890625 l 1
 326.290039062 48.7158203125 295.352539062 30 220 30 c 0
 219.616210938 30 218.885742188 29.9833984375 218.368164062 29.955078125 c 0
 202.06640625 29.103515625 70 32.375 70 90 c 0
 70 136.456054688 156.540039062 150.342773438 207.110351562 150.27734375 c 0
 214.157226562 150.268554688 218.368164062 150.043945312 218.368164062 150.043945312 c 1
 237.67578125 148.9921875 250 164.400390625 250 180 c 0
 250 280 l 1
 190 280 l 1
 190 209.951171875 l 1
 144.142578125 208.096679688 10 198.356445312 10 90 c 0
 10 -49.9384765625 220.766601562 -30 220.766601562 -30 c 1
 306.149414062 -29.7216796875 353.708984375 -8.7177734375 381.212890625 18.787109375 c 1
EndSplineSet
Ligature2: "'liga' Standard Ligatures in Bopomofo lookup 0-1" uni3129 uni311B
EndChar

StartChar: uni3129_uni311C
Encoding: 193 -1 172
Width: 500
VWidth: 0
Flags: W
HStem: 150.277 59.6738<101.524 190>
VStem: 10 60<58.1156 123.356>
LayerCount: 2
Fore
SplineSet
50 640 m 5
 -10 640 l 5
 -10 420 l 4
 -10 401.840820312 7.1240234375 390 20 390 c 4
 380 390 l 5
 380 450 l 5
 50 450 l 5
 50 640 l 5
410 640 m 5
 350 640 l 5
 350 374 l 5
 410 374 l 5
 410 640 l 5
0 310 m 1
 0 250 l 1
 400 250 l 1
 400 310 l 1
 0 310 l 1
381.212890625 18.787109375 m 1
 338.787109375 61.212890625 l 1
 326.290039062 48.7158203125 295.352539062 30 220 30 c 0
 219.616210938 30 218.885742188 29.9833984375 218.368164062 29.955078125 c 0
 202.06640625 29.103515625 70 32.375 70 90 c 0
 70 136.456054688 156.540039062 150.342773438 207.110351562 150.27734375 c 0
 214.157226562 150.268554688 218.368164062 150.043945312 218.368164062 150.043945312 c 1
 237.67578125 148.9921875 250 164.400390625 250 180 c 0
 250 340 l 1
 190 340 l 1
 190 209.951171875 l 1
 144.142578125 208.096679688 10 198.356445312 10 90 c 0
 10 -49.9384765625 220.766601562 -30 220.766601562 -30 c 1
 306.149414062 -29.7216796875 353.708984375 -8.7177734375 381.212890625 18.787109375 c 1
EndSplineSet
Ligature2: "'liga' Standard Ligatures in Bopomofo lookup 0-1" uni3129 uni311C
EndChar

StartChar: uni3129_uni311D
Encoding: 194 -1 173
Width: 500
VWidth: 0
Flags: W
VStem: 270 60<112.063 300>
LayerCount: 2
Fore
SplineSet
50 640 m 5
 -10 640 l 5
 -10 420 l 4
 -10 401.840820312 7.1240234375 390 20 390 c 4
 380 390 l 5
 380 450 l 5
 50 450 l 5
 50 640 l 5
410 640 m 5
 350 640 l 5
 350 374 l 5
 410 374 l 5
 410 640 l 5
0 250 m 1
 0 190 l 1
 400 190 l 1
 400 250 l 1
 0 250 l 1
110 300 m 1
 50 300 l 1
 50 40 l 0
 50 2.3134765625 82.4658203125 -30 120 -30 c 0
 360 -30 l 1
 360 30 l 1
 120 30 l 0
 117.534179688 30 110 37.6865234375 110 40 c 0
 110 300 l 1
330 300 m 1
 270 300 l 1
 270 199.073242188 269.971679688 164.784179688 251.5390625 109.486328125 c 1
 308.4609375 90.5126953125 l 1
 330.028320312 155.215820312 330 200.926757812 330 300 c 1
EndSplineSet
Ligature2: "'liga' Standard Ligatures in Bopomofo lookup 0-1" uni3129 uni311D
EndChar

StartChar: uni3129_uni311E
Encoding: 195 -1 174
Width: 500
VWidth: 0
Flags: W
VStem: 210 60<192.709 300> 350 60<61.1806 110>
LayerCount: 2
Fore
SplineSet
50 640 m 5
 -10 640 l 5
 -10 420 l 4
 -10 401.840820312 7.1240234375 390 20 390 c 4
 380 390 l 5
 380 450 l 5
 50 450 l 5
 50 640 l 5
410 640 m 5
 350 640 l 5
 350 374 l 5
 410 374 l 5
 410 640 l 5
0 330 m 1
 0 270 l 1
 400 270 l 1
 400 330 l 1
 0 330 l 1
86.8330078125 226.583984375 m 1
 33.1669921875 253.416015625 l 1
 -6.8330078125 173.416015625 l 0
 -8.9052734375 169.271484375 -10 164.329101562 -10 160 c 0
 -10 140 l 0
 -10 121.840820312 7.1240234375 110 20 110 c 0
 349.517578125 110 l 1
 345.3125 68.7177734375 293.555664062 15.9814453125 275 -2.57421875 c 1
 341.212890625 -21.212890625 l 1
 361.120117188 -1.3056640625 410 46.0234375 410 120 c 0
 410 140 l 0
 410 152.875976562 398.159179688 170 380 170 c 0
 58.541015625 170 l 1
 86.8330078125 226.583984375 l 1
270 300 m 1
 210 300 l 1
 210 174.21875 141.845703125 85.232421875 -10.5341796875 28.08984375 c 1
 10.5341796875 -28.08984375 l 1
 178.154296875 34.767578125 270 145.780273438 270 300 c 1
EndSplineSet
Ligature2: "'liga' Standard Ligatures in Bopomofo lookup 0-1" uni3129 uni311E
EndChar

StartChar: uni3129_uni311F
Encoding: 196 -1 175
Width: 500
VWidth: 0
Flags: W
HStem: -8.73535 57.4697<368.545 413.48>
LayerCount: 2
Fore
SplineSet
50 640 m 5
 -10 640 l 5
 -10 420 l 4
 -10 401.840820312 7.1240234375 390 20 390 c 4
 380 390 l 5
 380 450 l 5
 50 450 l 5
 50 640 l 5
410 640 m 5
 350 640 l 5
 350 374 l 5
 410 374 l 5
 410 640 l 5
-28.2412109375 268.845703125 m 1
 -11.7587890625 211.154296875 l 1
 102.995117188 243.940429688 l 1
 160.49609375 114.98828125 218.330078125 49.1796875 411.379882812 -8.7353515625 c 1
 428.620117188 48.734375 l 1
 234.470703125 106.979492188 206.141601562 155.16015625 147.57421875 291.817382812 c 0
 142.45703125 303.7578125 126.989257812 313.197265625 111.758789062 308.845703125 c 0
 -28.2412109375 268.845703125 l 1
EndSplineSet
Ligature2: "'liga' Standard Ligatures in Bopomofo lookup 0-1" uni3129 uni311F
EndChar

StartChar: uni3129_uni3120
Encoding: 197 -1 176
Width: 500
VWidth: 0
Flags: W
HStem: -29.6514 74.6123<45.3496 73.6856>
LayerCount: 2
Fore
SplineSet
50 640 m 5
 -10 640 l 5
 -10 420 l 4
 -10 401.840820312 7.1240234375 390 20 390 c 4
 380 390 l 5
 380 450 l 5
 50 450 l 5
 50 640 l 5
410 640 m 5
 350 640 l 5
 350 374 l 5
 410 374 l 5
 410 640 l 5
203.046875 280.793945312 m 1
 156.953125 319.205078125 l 1
 110.3203125 263.245117188 76.3935546875 246.77734375 5.1162109375 206.046875 c 0
 2.0048828125 204.26953125 -29.771484375 187.344726562 -1.212890625 158.787109375 c 0
 18.787109375 138.787109375 l 0
 24.5185546875 133.0546875 33.3916015625 130 40 130 c 0
 200 130 l 1
 200 190 l 1
 97.1953125 190 l 1
 133.94140625 212.520507812 167.775390625 238.46875 203.046875 280.793945312 c 1
378.154296875 265.822265625 m 1
 333 305.33203125 l 1
 264.750976562 227.333007812 131.231876847 103.525718206 43.359375 44.9609375 c 0
 36.583984375 40.4453125 14.986328125 22.5869140625 38.787109375 -1.212890625 c 0
 58.787109375 -21.212890625 l 0
 65.7177734375 -28.1435546875 76.5087890625 -30.8896484375 84.5615234375 -29.6513671875 c 0
 344.561523438 10.3486328125 l 1
 335.438476562 69.6513671875 l 1
 139.124023438 39.44921875 l 1
 205.552734375 89.7978515625 323.12109375 202.926757812 378.154296875 265.822265625 c 1
350.666015625 125.83203125 m 1
 297 99 l 1
 365 -35 l 1
 418.666015625 -8.16796875 l 1
 350.666015625 125.83203125 l 1
EndSplineSet
Ligature2: "'liga' Standard Ligatures in Bopomofo lookup 0-1" uni3129 uni3120
EndChar

StartChar: uni3129_uni3121
Encoding: 198 -1 177
Width: 500
VWidth: 0
Flags: W
LayerCount: 2
Fore
SplineSet
50 640 m 1
 -10 640 l 1
 -10 420 l 0
 -10 401.840820312 7.1240234375 390 20 390 c 0
 380 390 l 1
 380 450 l 1
 50 450 l 1
 50 640 l 1
410 640 m 1
 350 640 l 1
 350 374 l 1
 410 374 l 1
 410 640 l 1
20 330 m 1
 20 270 l 1
 300.484375 270 l 1
 241.1328125 168.415039062 133.057617188 81.9365234375 -10.5341796875 28.08984375 c 1
 10.5341796875 -28.08984375 l 1
 175.97265625 33.94921875 302.625 138.16796875 366.833007812 266.583984375 c 0
 368.768554688 270.456054688 370 275.365234375 370 280 c 0
 370 300 l 0
 370 312.875976562 358.159179688 330 340 330 c 0
 20 330 l 1
50.5341796875 228.08984375 m 1
 29.4658203125 171.91015625 l 1
 187.202148438 112.758789062 283.265625 54.96875 381.258789062 -23.42578125 c 1
 418.741210938 23.42578125 l 1
 316.734375 105.03125 212.797851562 167.240234375 50.5341796875 228.08984375 c 1
EndSplineSet
Ligature2: "'liga' Standard Ligatures in Bopomofo lookup 0-1" uni3129 uni3121
EndChar

StartChar: uni3129_uni3122
Encoding: 199 -1 178
Width: 500
VWidth: 0
Flags: W
LayerCount: 2
Fore
SplineSet
50 640 m 5
 -10 640 l 5
 -10 420 l 4
 -10 401.840820312 7.1240234375 390 20 390 c 4
 380 390 l 5
 380 450 l 5
 50 450 l 5
 50 640 l 5
410 640 m 5
 350 640 l 5
 350 374 l 5
 410 374 l 5
 410 640 l 5
0 330 m 1
 0 270 l 1
 309.497070312 270 l 1
 306.330078125 240.229492188 278.604492188 168.385742188 278.26953125 167.704101562 c 1
 332 141 l 1
 332.71484375 142.438476562 370 230.799804688 370 280 c 0
 370 300 l 0
 370 312.875976562 358.159179688 330 340 330 c 0
 0 330 l 1
106.833007812 226.583984375 m 1
 53.1669921875 253.416015625 l 1
 13.1669921875 173.416015625 l 0
 11.0947265625 169.271484375 10 164.329101562 10 160 c 0
 10 140 l 0
 10 121.840820312 27.1240234375 110 40 110 c 0
 369.232421875 110 l 1
 362.672851562 68.185546875 319.436523438 21.8701171875 318.749023438 21.1748046875 c 1
 361.250976562 -21.17578125 l 1
 361.50390625 -20.9208984375 430 42.5859375 430 120 c 0
 430 140 l 0
 430 152.875976562 418.159179688 170 400 170 c 0
 78.541015625 170 l 1
 106.833007812 226.583984375 l 1
EndSplineSet
Ligature2: "'liga' Standard Ligatures in Bopomofo lookup 0-1" uni3129 uni3122
EndChar

StartChar: uni3129_uni3123
Encoding: 200 -1 179
Width: 500
VWidth: 0
Flags: W
VStem: 10 60<233.173 300> 350 60<48.4129 130>
LayerCount: 2
Fore
SplineSet
50 640 m 5
 -10 640 l 5
 -10 420 l 4
 -10 401.840820312 7.1240234375 390 20 390 c 4
 380 390 l 5
 380 450 l 5
 50 450 l 5
 50 640 l 5
410 640 m 5
 350 640 l 5
 350 374 l 5
 410 374 l 5
 410 640 l 5
70 300 m 1
 10 300 l 1
 10 285.864257812 -27.857421875 191.133789062 -27.857421875 191.133789062 c 0
 -29.2568359375 187.631835938 -30 183.290039062 -30 180 c 0
 -30 160 l 0
 -30 141.840820312 -12.8759765625 130 0 130 c 0
 349.577148438 130 l 1
 344.981445312 77.8759765625 313.153320312 13.388671875 313.153320312 13.388671875 c 1
 366.846679688 -13.3896484375 l 1
 367.397460938 -12.28515625 410 68.8330078125 410 140 c 0
 410 160 l 0
 410 172.875976562 398.159179688 190 380 190 c 0
 36.1142578125 190 l 1
 47.6728515625 220.083984375 70 271.602539062 70 300 c 1
EndSplineSet
Ligature2: "'liga' Standard Ligatures in Bopomofo lookup 0-1" uni3129 uni3123
EndChar

StartChar: uni3129_uni3124
Encoding: 201 -1 180
Width: 500
VWidth: 0
Flags: W
VStem: 170.302 59.3965<256.169 296.757>
LayerCount: 2
Fore
SplineSet
50 640 m 5
 -10 640 l 5
 -10 420 l 4
 -10 401.840820312 7.1240234375 390 20 390 c 4
 380 390 l 5
 380 450 l 5
 50 450 l 5
 50 640 l 5
410 640 m 5
 350 640 l 5
 350 374 l 5
 410 374 l 5
 410 640 l 5
20 250 m 1
 20 190 l 1
 380 190 l 1
 380 250 l 1
 20 250 l 1
229.698242188 295.756835938 m 1
 170.301757812 304.2421875 l 1
 150.805664062 167.768554688 116.09765625 82.39453125 -11.8173828125 27.57421875 c 1
 11.8173828125 -27.57421875 l 1
 163.90234375 37.6044921875 209.194335938 152.23046875 229.698242188 295.756835938 c 1
290 220 m 1
 230 220 l 1
 230 40 l 0
 230 2.3134765625 262.465820312 -30 300 -30 c 0
 400 -30 l 1
 400 30 l 1
 300 30 l 0
 297.534179688 30 290 37.6865234375 290 40 c 0
 290 220 l 1
EndSplineSet
Ligature2: "'liga' Standard Ligatures in Bopomofo lookup 0-1" uni3129 uni3124
EndChar

StartChar: uni3129_uni3125
Encoding: 202 -1 181
Width: 500
VWidth: 0
Flags: W
LayerCount: 2
Fore
SplineSet
50 640 m 5
 -10 640 l 5
 -10 420 l 4
 -10 401.840820312 7.1240234375 390 20 390 c 4
 380 390 l 5
 380 450 l 5
 50 450 l 5
 50 640 l 5
410 640 m 5
 350 640 l 5
 350 374 l 5
 410 374 l 5
 410 640 l 5
226.833007812 286.583984375 m 1
 173.166992188 313.416015625 l 1
 134.076171875 235.235351562 75.9453125 138.372070312 -21.212890625 41.212890625 c 0
 -26.9453125 35.4814453125 -30 26.607421875 -30 20 c 0
 -30 0 l 0
 -30 -18.1591796875 -12.8759765625 -30 0 -30 c 0
 380 -30 l 1
 380 30 l 1
 51.205078125 30 l 1
 136.134765625 122.201171875 190.0625 213.04296875 226.833007812 286.583984375 c 1
EndSplineSet
Ligature2: "'liga' Standard Ligatures in Bopomofo lookup 0-1" uni3129 uni3125
EndChar

StartChar: uni3129_uni3126
Encoding: 203 -1 182
Width: 500
VWidth: 0
Flags: W
VStem: 90 60<125.867 300>
LayerCount: 2
Fore
SplineSet
50 640 m 1
 -10 640 l 1
 -10 420 l 0
 -10 401.840820312 7.1240234375 390 20 390 c 0
 380 390 l 1
 380 450 l 1
 50 450 l 1
 50 640 l 1
410 640 m 1
 350 640 l 1
 350 374 l 1
 410 374 l 1
 410 640 l 1
150 300 m 1
 90 300 l 1
 90 105.37890625 58.72265625 82.2197265625 -35.4345703125 25.724609375 c 1
 -4.5654296875 -25.724609375 l 1
 101.27734375 37.7802734375 150 94.62109375 150 300 c 1
310 300 m 1
 250 300 l 1
 250 40 l 0
 250 2.3134765625 282.465820312 -30 320 -30 c 0
 420 -30 l 1
 420 30 l 1
 320 30 l 0
 317.534179688 30 310 37.6865234375 310 40 c 0
 310 300 l 1
EndSplineSet
Ligature2: "'liga' Standard Ligatures in Bopomofo lookup 0-1" uni3129 uni3126
EndChar

StartChar: uni310C_uni311A
Encoding: 204 -1 183
Width: 500
VWidth: 0
Flags: W
HStem: 360.408 59.1836<204.932 328.474>
VStem: 190 60<614.679 680> 349.945 60.0547<422.001 550>
LayerCount: 2
Fore
SplineSet
88.4609375 670.512695312 m 5
 31.5390625 689.486328125 l 5
 10.5986328125 626.6640625 17.0595703125 639.485351562 -1.212890625 621.212890625 c 4
 -6.9453125 615.481445312 -10 606.607421875 -10 600 c 4
 -10 580 l 4
 -10 561.840820312 7.1240234375 550 20 550 c 4
 349.9453125 550 l 5
 349.045898438 475.870117188 335.821289062 429.083984375 328.953125 421.38671875 c 5
 319.514648438 415.052734375 259.54296875 410.490234375 204.931640625 419.591796875 c 5
 195.068359375 360.408203125 l 5
 254.350585938 350.52734375 334.260742188 341.833984375 371.212890625 378.787109375 c 4
 404.755859375 412.330078125 410 479.735351562 410 560 c 4
 410 580 l 4
 410 592.875976562 398.159179688 610 380 610 c 4
 66.0283203125 610 l 5
 73.0283203125 623.696289062 78.0517578125 639.286132812 88.4609375 670.512695312 c 5
250 680 m 5
 190 680 l 5
 190 569.493164062 158.934570312 483.466796875 -12.1845703125 407.4140625 c 5
 12.1845703125 352.5859375 l 5
 201.065429688 436.533203125 250 550.506835938 250 680 c 5
20 300 m 1
 3.359375 275.038085938 l 1
 64.2236328125 234.461914062 111.767578125 205.805664062 158.787109375 158.787109375 c 1
 180 180 l 1
 201.212890625 201.212890625 l 1
 148.232421875 254.194335938 95.7763671875 285.538085938 36.640625 324.9609375 c 1
 20 300 l 1
380 300 m 1
 358.787109375 321.212890625 l 1
 319.015625 281.442382812 293.138671875 254.829101562 183.893554688 185.309570312 c 0
 175.227539062 179.794921875 170 169.787109375 170 160 c 2
 170 0 l 1
 200 0 l 1
 230 0 l 1
 230 143.591796875 l 1
 328.04296875 206.875 363.16015625 240.733398438 401.212890625 278.787109375 c 1
 380 300 l 1
EndSplineSet
Ligature2: "'liga' Standard Ligatures in Bopomofo lookup 0-2" uni310C uni311A
EndChar

StartChar: uni310C_uni311B
Encoding: 205 -1 184
Width: 500
VWidth: 0
Flags: W
HStem: 150.277 59.6738<101.524 190> 360.408 59.1836<204.932 328.474>
VStem: 10 60<58.1156 123.356> 190 60<614.679 680> 349.945 60.0547<422.001 550>
LayerCount: 2
Fore
SplineSet
88.4609375 670.512695312 m 5
 31.5390625 689.486328125 l 5
 10.5986328125 626.6640625 17.0595703125 639.485351562 -1.212890625 621.212890625 c 4
 -6.9453125 615.481445312 -10 606.607421875 -10 600 c 4
 -10 580 l 4
 -10 561.840820312 7.1240234375 550 20 550 c 4
 349.9453125 550 l 5
 349.045898438 475.870117188 335.821289062 429.083984375 328.953125 421.38671875 c 5
 319.514648438 415.052734375 259.54296875 410.490234375 204.931640625 419.591796875 c 5
 195.068359375 360.408203125 l 5
 254.350585938 350.52734375 334.260742188 341.833984375 371.212890625 378.787109375 c 4
 404.755859375 412.330078125 410 479.735351562 410 560 c 4
 410 580 l 4
 410 592.875976562 398.159179688 610 380 610 c 4
 66.0283203125 610 l 5
 73.0283203125 623.696289062 78.0517578125 639.286132812 88.4609375 670.512695312 c 5
250 680 m 5
 190 680 l 5
 190 569.493164062 158.934570312 483.466796875 -12.1845703125 407.4140625 c 5
 12.1845703125 352.5859375 l 5
 201.065429688 436.533203125 250 550.506835938 250 680 c 5
0 310 m 1
 0 250 l 1
 400 250 l 1
 400 310 l 1
 0 310 l 1
381.212890625 18.787109375 m 1
 338.787109375 61.212890625 l 1
 326.290039062 48.7158203125 295.352539062 30 220 30 c 0
 219.616210938 30 218.885742188 29.9833984375 218.368164062 29.955078125 c 0
 202.06640625 29.103515625 70 32.375 70 90 c 0
 70 136.456054688 156.540039062 150.342773438 207.110351562 150.27734375 c 0
 214.157226562 150.268554688 218.368164062 150.043945312 218.368164062 150.043945312 c 1
 237.67578125 148.9921875 250 164.400390625 250 180 c 0
 250 280 l 1
 190 280 l 1
 190 209.951171875 l 1
 144.142578125 208.096679688 10 198.356445312 10 90 c 0
 10 -49.9384765625 220.766601562 -30 220.766601562 -30 c 1
 306.149414062 -29.7216796875 353.708984375 -8.7177734375 381.212890625 18.787109375 c 1
EndSplineSet
Ligature2: "'liga' Standard Ligatures in Bopomofo lookup 0-2" uni310C uni311B
EndChar

StartChar: uni310C_uni311C
Encoding: 206 -1 185
Width: 500
VWidth: 0
Flags: W
HStem: 150.277 59.6738<101.524 190> 360.408 59.1836<204.932 328.474>
VStem: 10 60<58.1156 123.356> 190 60<614.679 680> 349.945 60.0547<422.001 550>
LayerCount: 2
Fore
SplineSet
88.4609375 670.512695312 m 5
 31.5390625 689.486328125 l 5
 10.5986328125 626.6640625 17.0595703125 639.485351562 -1.212890625 621.212890625 c 4
 -6.9453125 615.481445312 -10 606.607421875 -10 600 c 4
 -10 580 l 4
 -10 561.840820312 7.1240234375 550 20 550 c 4
 349.9453125 550 l 5
 349.045898438 475.870117188 335.821289062 429.083984375 328.953125 421.38671875 c 5
 319.514648438 415.052734375 259.54296875 410.490234375 204.931640625 419.591796875 c 5
 195.068359375 360.408203125 l 5
 254.350585938 350.52734375 334.260742188 341.833984375 371.212890625 378.787109375 c 4
 404.755859375 412.330078125 410 479.735351562 410 560 c 4
 410 580 l 4
 410 592.875976562 398.159179688 610 380 610 c 4
 66.0283203125 610 l 5
 73.0283203125 623.696289062 78.0517578125 639.286132812 88.4609375 670.512695312 c 5
250 680 m 5
 190 680 l 5
 190 569.493164062 158.934570312 483.466796875 -12.1845703125 407.4140625 c 5
 12.1845703125 352.5859375 l 5
 201.065429688 436.533203125 250 550.506835938 250 680 c 5
0 310 m 1
 0 250 l 1
 400 250 l 1
 400 310 l 1
 0 310 l 1
381.212890625 18.787109375 m 1
 338.787109375 61.212890625 l 1
 326.290039062 48.7158203125 295.352539062 30 220 30 c 0
 219.616210938 30 218.885742188 29.9833984375 218.368164062 29.955078125 c 0
 202.06640625 29.103515625 70 32.375 70 90 c 0
 70 136.456054688 156.540039062 150.342773438 207.110351562 150.27734375 c 0
 214.157226562 150.268554688 218.368164062 150.043945312 218.368164062 150.043945312 c 1
 237.67578125 148.9921875 250 164.400390625 250 180 c 0
 250 340 l 1
 190 340 l 1
 190 209.951171875 l 1
 144.142578125 208.096679688 10 198.356445312 10 90 c 0
 10 -49.9384765625 220.766601562 -30 220.766601562 -30 c 1
 306.149414062 -29.7216796875 353.708984375 -8.7177734375 381.212890625 18.787109375 c 1
EndSplineSet
Ligature2: "'liga' Standard Ligatures in Bopomofo lookup 0-2" uni310C uni311C
EndChar

StartChar: uni310C_uni311D
Encoding: 207 -1 186
Width: 500
VWidth: 0
Flags: W
HStem: 360.408 59.1836<204.932 328.474>
VStem: 190 60<614.679 680> 270 60<112.063 300> 349.945 60.0547<422.001 550>
LayerCount: 2
Fore
SplineSet
88.4609375 670.512695312 m 5
 31.5390625 689.486328125 l 5
 10.5986328125 626.6640625 17.0595703125 639.485351562 -1.212890625 621.212890625 c 4
 -6.9453125 615.481445312 -10 606.607421875 -10 600 c 4
 -10 580 l 4
 -10 561.840820312 7.1240234375 550 20 550 c 4
 349.9453125 550 l 5
 349.045898438 475.870117188 335.821289062 429.083984375 328.953125 421.38671875 c 5
 319.514648438 415.052734375 259.54296875 410.490234375 204.931640625 419.591796875 c 5
 195.068359375 360.408203125 l 5
 254.350585938 350.52734375 334.260742188 341.833984375 371.212890625 378.787109375 c 4
 404.755859375 412.330078125 410 479.735351562 410 560 c 4
 410 580 l 4
 410 592.875976562 398.159179688 610 380 610 c 4
 66.0283203125 610 l 5
 73.0283203125 623.696289062 78.0517578125 639.286132812 88.4609375 670.512695312 c 5
250 680 m 5
 190 680 l 5
 190 569.493164062 158.934570312 483.466796875 -12.1845703125 407.4140625 c 5
 12.1845703125 352.5859375 l 5
 201.065429688 436.533203125 250 550.506835938 250 680 c 5
0 250 m 1
 0 190 l 1
 400 190 l 1
 400 250 l 1
 0 250 l 1
110 300 m 1
 50 300 l 1
 50 40 l 0
 50 2.3134765625 82.4658203125 -30 120 -30 c 0
 360 -30 l 1
 360 30 l 1
 120 30 l 0
 117.534179688 30 110 37.6865234375 110 40 c 0
 110 300 l 1
330 300 m 1
 270 300 l 1
 270 199.073242188 269.971679688 164.784179688 251.5390625 109.486328125 c 1
 308.4609375 90.5126953125 l 1
 330.028320312 155.215820312 330 200.926757812 330 300 c 1
EndSplineSet
Ligature2: "'liga' Standard Ligatures in Bopomofo lookup 0-2" uni310C uni311D
EndChar

StartChar: uni310C_uni311E
Encoding: 208 -1 187
Width: 500
VWidth: 0
Flags: W
HStem: 360.408 59.1836<204.932 328.474>
VStem: 190 60<614.679 680> 210 60<192.709 300> 349.518 60.4824<61.1806 110 422.001 550>
LayerCount: 2
Fore
SplineSet
88.4609375 670.512695312 m 5x90
 31.5390625 689.486328125 l 5
 10.5986328125 626.6640625 17.0595703125 639.485351562 -1.212890625 621.212890625 c 4
 -6.9453125 615.481445312 -10 606.607421875 -10 600 c 4
 -10 580 l 4
 -10 561.840820312 7.1240234375 550 20 550 c 4
 349.9453125 550 l 5
 349.045898438 475.870117188 335.821289062 429.083984375 328.953125 421.38671875 c 5
 319.514648438 415.052734375 259.54296875 410.490234375 204.931640625 419.591796875 c 5
 195.068359375 360.408203125 l 5
 254.350585938 350.52734375 334.260742188 341.833984375 371.212890625 378.787109375 c 4
 404.755859375 412.330078125 410 479.735351562 410 560 c 4
 410 580 l 4
 410 592.875976562 398.159179688 610 380 610 c 4
 66.0283203125 610 l 5
 73.0283203125 623.696289062 78.0517578125 639.286132812 88.4609375 670.512695312 c 5x90
250 680 m 5xd0
 190 680 l 5
 190 569.493164062 158.934570312 483.466796875 -12.1845703125 407.4140625 c 5
 12.1845703125 352.5859375 l 5
 201.065429688 436.533203125 250 550.506835938 250 680 c 5xd0
0 330 m 1
 0 270 l 1
 400 270 l 1
 400 330 l 1
 0 330 l 1
86.8330078125 226.583984375 m 1
 33.1669921875 253.416015625 l 1
 -6.8330078125 173.416015625 l 0
 -8.9052734375 169.271484375 -10 164.329101562 -10 160 c 0
 -10 140 l 0
 -10 121.840820312 7.1240234375 110 20 110 c 0
 349.517578125 110 l 1
 345.3125 68.7177734375 293.555664062 15.9814453125 275 -2.57421875 c 1
 341.212890625 -21.212890625 l 1
 361.120117188 -1.3056640625 410 46.0234375 410 120 c 0
 410 140 l 0
 410 152.875976562 398.159179688 170 380 170 c 0
 58.541015625 170 l 1
 86.8330078125 226.583984375 l 1
270 300 m 1xb0
 210 300 l 1
 210 174.21875 141.845703125 85.232421875 -10.5341796875 28.08984375 c 1
 10.5341796875 -28.08984375 l 1
 178.154296875 34.767578125 270 145.780273438 270 300 c 1xb0
EndSplineSet
Ligature2: "'liga' Standard Ligatures in Bopomofo lookup 0-2" uni310C uni311E
EndChar

StartChar: uni310C_uni311F
Encoding: 209 -1 188
Width: 500
VWidth: 0
Flags: W
HStem: -8.73535 57.4697<368.545 413.48> 360.408 59.1836<204.932 328.474>
VStem: 190 60<614.679 680> 349.945 60.0547<422.001 550>
LayerCount: 2
Fore
SplineSet
88.4609375 670.512695312 m 5
 31.5390625 689.486328125 l 5
 10.5986328125 626.6640625 17.0595703125 639.485351562 -1.212890625 621.212890625 c 4
 -6.9453125 615.481445312 -10 606.607421875 -10 600 c 4
 -10 580 l 4
 -10 561.840820312 7.1240234375 550 20 550 c 4
 349.9453125 550 l 5
 349.045898438 475.870117188 335.821289062 429.083984375 328.953125 421.38671875 c 5
 319.514648438 415.052734375 259.54296875 410.490234375 204.931640625 419.591796875 c 5
 195.068359375 360.408203125 l 5
 254.350585938 350.52734375 334.260742188 341.833984375 371.212890625 378.787109375 c 4
 404.755859375 412.330078125 410 479.735351562 410 560 c 4
 410 580 l 4
 410 592.875976562 398.159179688 610 380 610 c 4
 66.0283203125 610 l 5
 73.0283203125 623.696289062 78.0517578125 639.286132812 88.4609375 670.512695312 c 5
250 680 m 5
 190 680 l 5
 190 569.493164062 158.934570312 483.466796875 -12.1845703125 407.4140625 c 5
 12.1845703125 352.5859375 l 5
 201.065429688 436.533203125 250 550.506835938 250 680 c 5
-28.2412109375 268.845703125 m 1
 -11.7587890625 211.154296875 l 1
 102.995117188 243.940429688 l 1
 160.49609375 114.98828125 218.330078125 49.1796875 411.379882812 -8.7353515625 c 1
 428.620117188 48.734375 l 1
 234.470703125 106.979492188 206.141601562 155.16015625 147.57421875 291.817382812 c 0
 142.45703125 303.7578125 126.989257812 313.197265625 111.758789062 308.845703125 c 0
 -28.2412109375 268.845703125 l 1
EndSplineSet
LCarets2: 1 0
Ligature2: "'liga' Standard Ligatures in Bopomofo lookup 0-2" uni310C uni311F
EndChar

StartChar: uni310C_uni3120
Encoding: 210 -1 189
Width: 500
VWidth: 0
Flags: W
HStem: -29.6514 74.6123<45.3496 73.6856> 360.408 59.1836<204.932 328.474>
VStem: 190 60<614.679 680> 349.945 60.0547<422.001 550>
LayerCount: 2
Fore
SplineSet
88.4609375 670.512695312 m 5
 31.5390625 689.486328125 l 5
 10.5986328125 626.6640625 17.0595703125 639.485351562 -1.212890625 621.212890625 c 4
 -6.9453125 615.481445312 -10 606.607421875 -10 600 c 4
 -10 580 l 4
 -10 561.840820312 7.1240234375 550 20 550 c 4
 349.9453125 550 l 5
 349.045898438 475.870117188 335.821289062 429.083984375 328.953125 421.38671875 c 5
 319.514648438 415.052734375 259.54296875 410.490234375 204.931640625 419.591796875 c 5
 195.068359375 360.408203125 l 5
 254.350585938 350.52734375 334.260742188 341.833984375 371.212890625 378.787109375 c 4
 404.755859375 412.330078125 410 479.735351562 410 560 c 4
 410 580 l 4
 410 592.875976562 398.159179688 610 380 610 c 4
 66.0283203125 610 l 5
 73.0283203125 623.696289062 78.0517578125 639.286132812 88.4609375 670.512695312 c 5
250 680 m 5
 190 680 l 5
 190 569.493164062 158.934570312 483.466796875 -12.1845703125 407.4140625 c 5
 12.1845703125 352.5859375 l 5
 201.065429688 436.533203125 250 550.506835938 250 680 c 5
203.046875 280.793945312 m 1
 156.953125 319.205078125 l 1
 110.3203125 263.245117188 76.3935546875 246.77734375 5.1162109375 206.046875 c 0
 2.0048828125 204.26953125 -29.771484375 187.344726562 -1.212890625 158.787109375 c 0
 18.787109375 138.787109375 l 0
 24.5185546875 133.0546875 33.3916015625 130 40 130 c 0
 200 130 l 1
 200 190 l 1
 97.1953125 190 l 1
 133.94140625 212.520507812 167.775390625 238.46875 203.046875 280.793945312 c 1
378.154296875 265.822265625 m 1
 333 305.33203125 l 1
 264.750976562 227.333007812 131.231876847 103.525718206 43.359375 44.9609375 c 0
 36.583984375 40.4453125 14.986328125 22.5869140625 38.787109375 -1.212890625 c 0
 58.787109375 -21.212890625 l 0
 65.7177734375 -28.1435546875 76.5087890625 -30.8896484375 84.5615234375 -29.6513671875 c 0
 344.561523438 10.3486328125 l 1
 335.438476562 69.6513671875 l 1
 139.124023438 39.44921875 l 1
 205.552734375 89.7978515625 323.12109375 202.926757812 378.154296875 265.822265625 c 1
350.666015625 125.83203125 m 1
 297 99 l 1
 365 -35 l 1
 418.666015625 -8.16796875 l 1
 350.666015625 125.83203125 l 1
EndSplineSet
Ligature2: "'liga' Standard Ligatures in Bopomofo lookup 0-2" uni310C uni3120
EndChar

StartChar: uni310C_uni3121
Encoding: 211 -1 190
Width: 500
VWidth: 0
Flags: W
HStem: 360.408 59.1836<204.932 328.474>
VStem: 190 60<614.679 680> 349.945 60.0547<422.001 550>
LayerCount: 2
Fore
SplineSet
88.4609375 670.512695312 m 5
 31.5390625 689.486328125 l 5
 10.5986328125 626.6640625 17.0595703125 639.485351562 -1.212890625 621.212890625 c 4
 -6.9453125 615.481445312 -10 606.607421875 -10 600 c 4
 -10 580 l 4
 -10 561.840820312 7.1240234375 550 20 550 c 4
 349.9453125 550 l 5
 349.045898438 475.870117188 335.821289062 429.083984375 328.953125 421.38671875 c 5
 319.514648438 415.052734375 259.54296875 410.490234375 204.931640625 419.591796875 c 5
 195.068359375 360.408203125 l 5
 254.350585938 350.52734375 334.260742188 341.833984375 371.212890625 378.787109375 c 4
 404.755859375 412.330078125 410 479.735351562 410 560 c 4
 410 580 l 4
 410 592.875976562 398.159179688 610 380 610 c 4
 66.0283203125 610 l 5
 73.0283203125 623.696289062 78.0517578125 639.286132812 88.4609375 670.512695312 c 5
250 680 m 5
 190 680 l 5
 190 569.493164062 158.934570312 483.466796875 -12.1845703125 407.4140625 c 5
 12.1845703125 352.5859375 l 5
 201.065429688 436.533203125 250 550.506835938 250 680 c 5
20 330 m 1
 20 270 l 1
 300.484375 270 l 1
 241.1328125 168.415039062 133.057617188 81.9365234375 -10.5341796875 28.08984375 c 1
 10.5341796875 -28.08984375 l 1
 175.97265625 33.94921875 302.625 138.16796875 366.833007812 266.583984375 c 0
 368.768554688 270.456054688 370 275.365234375 370 280 c 0
 370 300 l 0
 370 312.875976562 358.159179688 330 340 330 c 0
 20 330 l 1
50.5341796875 228.08984375 m 1
 29.4658203125 171.91015625 l 1
 187.202148438 112.758789062 283.265625 54.96875 381.258789062 -23.42578125 c 1
 418.741210938 23.42578125 l 1
 316.734375 105.03125 212.797851562 167.240234375 50.5341796875 228.08984375 c 1
EndSplineSet
Ligature2: "'liga' Standard Ligatures in Bopomofo lookup 0-2" uni310C uni3121
EndChar

StartChar: uni310C_uni3122
Encoding: 212 -1 191
Width: 500
VWidth: 0
Flags: W
HStem: 360.408 59.1836<204.932 328.474>
VStem: 190 60<614.679 680> 349.945 60.0547<422.001 550>
LayerCount: 2
Fore
SplineSet
88.4609375 670.512695312 m 5
 31.5390625 689.486328125 l 5
 10.5986328125 626.6640625 17.0595703125 639.485351562 -1.212890625 621.212890625 c 4
 -6.9453125 615.481445312 -10 606.607421875 -10 600 c 4
 -10 580 l 4
 -10 561.840820312 7.1240234375 550 20 550 c 4
 349.9453125 550 l 5
 349.045898438 475.870117188 335.821289062 429.083984375 328.953125 421.38671875 c 5
 319.514648438 415.052734375 259.54296875 410.490234375 204.931640625 419.591796875 c 5
 195.068359375 360.408203125 l 5
 254.350585938 350.52734375 334.260742188 341.833984375 371.212890625 378.787109375 c 4
 404.755859375 412.330078125 410 479.735351562 410 560 c 4
 410 580 l 4
 410 592.875976562 398.159179688 610 380 610 c 4
 66.0283203125 610 l 5
 73.0283203125 623.696289062 78.0517578125 639.286132812 88.4609375 670.512695312 c 5
250 680 m 5
 190 680 l 5
 190 569.493164062 158.934570312 483.466796875 -12.1845703125 407.4140625 c 5
 12.1845703125 352.5859375 l 5
 201.065429688 436.533203125 250 550.506835938 250 680 c 5
0 330 m 1
 0 270 l 1
 309.497070312 270 l 1
 306.330078125 240.229492188 278.604492188 168.385742188 278.26953125 167.704101562 c 1
 332 141 l 1
 332.71484375 142.438476562 370 230.799804688 370 280 c 0
 370 300 l 0
 370 312.875976562 358.159179688 330 340 330 c 0
 0 330 l 1
106.833007812 226.583984375 m 1
 53.1669921875 253.416015625 l 1
 13.1669921875 173.416015625 l 0
 11.0947265625 169.271484375 10 164.329101562 10 160 c 0
 10 140 l 0
 10 121.840820312 27.1240234375 110 40 110 c 0
 369.232421875 110 l 1
 362.672851562 68.185546875 319.436523438 21.8701171875 318.749023438 21.1748046875 c 1
 361.250976562 -21.17578125 l 1
 361.50390625 -20.9208984375 430 42.5859375 430 120 c 0
 430 140 l 0
 430 152.875976562 418.159179688 170 400 170 c 0
 78.541015625 170 l 1
 106.833007812 226.583984375 l 1
EndSplineSet
LCarets2: 1 0
Ligature2: "'liga' Standard Ligatures in Bopomofo lookup 0-2" uni310C uni3122
EndChar

StartChar: uni310C_uni3123
Encoding: 213 -1 192
Width: 500
VWidth: 0
Flags: W
HStem: 360.408 59.1836<204.932 328.474>
VStem: 10 60<233.173 300> 190 60<614.679 680> 349.577 60.4229<48.4129 130 422.001 550>
LayerCount: 2
Fore
SplineSet
88.4609375 670.512695312 m 5
 31.5390625 689.486328125 l 5
 10.5986328125 626.6640625 17.0595703125 639.485351562 -1.212890625 621.212890625 c 4
 -6.9453125 615.481445312 -10 606.607421875 -10 600 c 4
 -10 580 l 4
 -10 561.840820312 7.1240234375 550 20 550 c 4
 349.9453125 550 l 5
 349.045898438 475.870117188 335.821289062 429.083984375 328.953125 421.38671875 c 5
 319.514648438 415.052734375 259.54296875 410.490234375 204.931640625 419.591796875 c 5
 195.068359375 360.408203125 l 5
 254.350585938 350.52734375 334.260742188 341.833984375 371.212890625 378.787109375 c 4
 404.755859375 412.330078125 410 479.735351562 410 560 c 4
 410 580 l 4
 410 592.875976562 398.159179688 610 380 610 c 4
 66.0283203125 610 l 5
 73.0283203125 623.696289062 78.0517578125 639.286132812 88.4609375 670.512695312 c 5
250 680 m 5
 190 680 l 5
 190 569.493164062 158.934570312 483.466796875 -12.1845703125 407.4140625 c 5
 12.1845703125 352.5859375 l 5
 201.065429688 436.533203125 250 550.506835938 250 680 c 5
70 300 m 1
 10 300 l 1
 10 285.864257812 -27.857421875 191.133789062 -27.857421875 191.133789062 c 0
 -29.2568359375 187.631835938 -30 183.290039062 -30 180 c 0
 -30 160 l 0
 -30 141.840820312 -12.8759765625 130 0 130 c 0
 349.577148438 130 l 1
 344.981445312 77.8759765625 313.153320312 13.388671875 313.153320312 13.388671875 c 1
 366.846679688 -13.3896484375 l 1
 367.397460938 -12.28515625 410 68.8330078125 410 140 c 0
 410 160 l 0
 410 172.875976562 398.159179688 190 380 190 c 0
 36.1142578125 190 l 1
 47.6728515625 220.083984375 70 271.602539062 70 300 c 1
EndSplineSet
Ligature2: "'liga' Standard Ligatures in Bopomofo lookup 0-2" uni310C uni3123
EndChar

StartChar: uni310C_uni3124
Encoding: 214 -1 193
Width: 500
VWidth: 0
Flags: W
HStem: 360.408 59.1836<204.932 328.474>
VStem: 170.302 59.3965<256.169 296.757> 190 60<614.679 680> 349.945 60.0547<422.001 550>
LayerCount: 2
Fore
SplineSet
88.4609375 670.512695312 m 5x90
 31.5390625 689.486328125 l 5
 10.5986328125 626.6640625 17.0595703125 639.485351562 -1.212890625 621.212890625 c 4
 -6.9453125 615.481445312 -10 606.607421875 -10 600 c 4
 -10 580 l 4
 -10 561.840820312 7.1240234375 550 20 550 c 4
 349.9453125 550 l 5
 349.045898438 475.870117188 335.821289062 429.083984375 328.953125 421.38671875 c 5
 319.514648438 415.052734375 259.54296875 410.490234375 204.931640625 419.591796875 c 5
 195.068359375 360.408203125 l 5
 254.350585938 350.52734375 334.260742188 341.833984375 371.212890625 378.787109375 c 4
 404.755859375 412.330078125 410 479.735351562 410 560 c 4
 410 580 l 4
 410 592.875976562 398.159179688 610 380 610 c 4
 66.0283203125 610 l 5
 73.0283203125 623.696289062 78.0517578125 639.286132812 88.4609375 670.512695312 c 5x90
250 680 m 5xb0
 190 680 l 5
 190 569.493164062 158.934570312 483.466796875 -12.1845703125 407.4140625 c 5
 12.1845703125 352.5859375 l 5
 201.065429688 436.533203125 250 550.506835938 250 680 c 5xb0
20 250 m 1
 20 190 l 1
 380 190 l 1
 380 250 l 1
 20 250 l 1
229.698242188 295.756835938 m 1xd0
 170.301757812 304.2421875 l 1
 150.805664062 167.768554688 116.09765625 82.39453125 -11.8173828125 27.57421875 c 1
 11.8173828125 -27.57421875 l 1
 163.90234375 37.6044921875 209.194335938 152.23046875 229.698242188 295.756835938 c 1xd0
290 220 m 1
 230 220 l 1
 230 40 l 0
 230 2.3134765625 262.465820312 -30 300 -30 c 0
 400 -30 l 1
 400 30 l 1
 300 30 l 0
 297.534179688 30 290 37.6865234375 290 40 c 0
 290 220 l 1
EndSplineSet
Ligature2: "'liga' Standard Ligatures in Bopomofo lookup 0-2" uni310C uni3124
EndChar

StartChar: uni310C_uni3125
Encoding: 215 -1 194
Width: 500
VWidth: 0
Flags: W
HStem: 360.408 59.1836<204.932 328.474>
VStem: 190 60<614.679 680> 349.945 60.0547<422.001 550>
LayerCount: 2
Fore
SplineSet
88.4609375 670.512695312 m 5
 31.5390625 689.486328125 l 5
 10.5986328125 626.6640625 17.0595703125 639.485351562 -1.212890625 621.212890625 c 4
 -6.9453125 615.481445312 -10 606.607421875 -10 600 c 4
 -10 580 l 4
 -10 561.840820312 7.1240234375 550 20 550 c 4
 349.9453125 550 l 5
 349.045898438 475.870117188 335.821289062 429.083984375 328.953125 421.38671875 c 5
 319.514648438 415.052734375 259.54296875 410.490234375 204.931640625 419.591796875 c 5
 195.068359375 360.408203125 l 5
 254.350585938 350.52734375 334.260742188 341.833984375 371.212890625 378.787109375 c 4
 404.755859375 412.330078125 410 479.735351562 410 560 c 4
 410 580 l 4
 410 592.875976562 398.159179688 610 380 610 c 4
 66.0283203125 610 l 5
 73.0283203125 623.696289062 78.0517578125 639.286132812 88.4609375 670.512695312 c 5
250 680 m 5
 190 680 l 5
 190 569.493164062 158.934570312 483.466796875 -12.1845703125 407.4140625 c 5
 12.1845703125 352.5859375 l 5
 201.065429688 436.533203125 250 550.506835938 250 680 c 5
226.833007812 286.583984375 m 1
 173.166992188 313.416015625 l 1
 134.076171875 235.235351562 75.9453125 138.372070312 -21.212890625 41.212890625 c 0
 -26.9453125 35.4814453125 -30 26.607421875 -30 20 c 0
 -30 0 l 0
 -30 -18.1591796875 -12.8759765625 -30 0 -30 c 0
 380 -30 l 1
 380 30 l 1
 51.205078125 30 l 1
 136.134765625 122.201171875 190.0625 213.04296875 226.833007812 286.583984375 c 1
EndSplineSet
Ligature2: "'liga' Standard Ligatures in Bopomofo lookup 0-2" uni310C uni3125
EndChar

StartChar: uni310C_uni3126
Encoding: 216 -1 195
Width: 500
VWidth: 0
Flags: W
HStem: 360.408 59.1836<204.932 328.474>
VStem: 90 60<125.867 300> 190 60<614.679 680> 349.945 60.0547<422.001 550>
LayerCount: 2
Fore
SplineSet
88.4609375 670.512695312 m 5
 31.5390625 689.486328125 l 5
 10.5986328125 626.6640625 17.0595703125 639.485351562 -1.212890625 621.212890625 c 4
 -6.9453125 615.481445312 -10 606.607421875 -10 600 c 4
 -10 580 l 4
 -10 561.840820312 7.1240234375 550 20 550 c 4
 349.9453125 550 l 5
 349.045898438 475.870117188 335.821289062 429.083984375 328.953125 421.38671875 c 5
 319.514648438 415.052734375 259.54296875 410.490234375 204.931640625 419.591796875 c 5
 195.068359375 360.408203125 l 5
 254.350585938 350.52734375 334.260742188 341.833984375 371.212890625 378.787109375 c 4
 404.755859375 412.330078125 410 479.735351562 410 560 c 4
 410 580 l 4
 410 592.875976562 398.159179688 610 380 610 c 4
 66.0283203125 610 l 5
 73.0283203125 623.696289062 78.0517578125 639.286132812 88.4609375 670.512695312 c 5
250 680 m 5
 190 680 l 5
 190 569.493164062 158.934570312 483.466796875 -12.1845703125 407.4140625 c 5
 12.1845703125 352.5859375 l 5
 201.065429688 436.533203125 250 550.506835938 250 680 c 5
150 300 m 1
 90 300 l 1
 90 105.37890625 58.72265625 82.2197265625 -35.4345703125 25.724609375 c 1
 -4.5654296875 -25.724609375 l 1
 101.27734375 37.7802734375 150 94.62109375 150 300 c 1
310 300 m 1
 250 300 l 1
 250 40 l 0
 250 2.3134765625 282.465820312 -30 320 -30 c 0
 420 -30 l 1
 420 30 l 1
 320 30 l 0
 317.534179688 30 310 37.6865234375 310 40 c 0
 310 300 l 1
EndSplineSet
Ligature2: "'liga' Standard Ligatures in Bopomofo lookup 0-2" uni310C uni3126
EndChar

StartChar: uni310C_uni3127
Encoding: 217 -1 196
Width: 500
VWidth: 0
Flags: W
HStem: 360.408 59.1836<204.932 328.474>
VStem: 190 60<614.679 680> 349.945 60.0547<422.001 550>
LayerCount: 2
Fore
SplineSet
88.4609375 670.512695312 m 5
 31.5390625 689.486328125 l 5
 10.5986328125 626.6640625 17.0595703125 639.485351562 -1.212890625 621.212890625 c 4
 -6.9453125 615.481445312 -10 606.607421875 -10 600 c 4
 -10 580 l 4
 -10 561.840820312 7.1240234375 550 20 550 c 4
 349.9453125 550 l 5
 349.045898438 475.870117188 335.821289062 429.083984375 328.953125 421.38671875 c 5
 319.514648438 415.052734375 259.54296875 410.490234375 204.931640625 419.591796875 c 5
 195.068359375 360.408203125 l 5
 254.350585938 350.52734375 334.260742188 341.833984375 371.212890625 378.787109375 c 4
 404.755859375 412.330078125 410 479.735351562 410 560 c 4
 410 580 l 4
 410 592.875976562 398.159179688 610 380 610 c 4
 66.0283203125 610 l 5
 73.0283203125 623.696289062 78.0517578125 639.286132812 88.4609375 670.512695312 c 5
250 680 m 5
 190 680 l 5
 190 569.493164062 158.934570312 483.466796875 -12.1845703125 407.4140625 c 5
 12.1845703125 352.5859375 l 5
 201.065429688 436.533203125 250 550.506835938 250 680 c 5
20 150 m 1
 20 120 l 1
 380 120 l 1
 380 150 l 1
 380 180 l 1
 20 180 l 1
 20 150 l 1
EndSplineSet
Ligature2: "'liga' Standard Ligatures in Bopomofo lookup 0-2" uni310C uni3127
EndChar

StartChar: uni310C_uni3128
Encoding: 218 -1 197
Width: 500
VWidth: 0
Flags: W
HStem: 360.408 59.1836<204.932 328.474>
VStem: 190 60<614.679 680> 349.945 60.0547<422.001 550>
LayerCount: 2
Fore
SplineSet
88.4609375 670.512695312 m 1
 31.5390625 689.486328125 l 1
 10.5986328125 626.6640625 17.0595703125 639.485351562 -1.212890625 621.212890625 c 0
 -6.9453125 615.481445312 -10 606.607421875 -10 600 c 0
 -10 580 l 0
 -10 561.840820312 7.1240234375 550 20 550 c 0
 349.9453125 550 l 1
 349.045898438 475.870117188 335.821289062 429.083984375 328.953125 421.38671875 c 1
 319.514648438 415.052734375 259.54296875 410.490234375 204.931640625 419.591796875 c 1
 195.068359375 360.408203125 l 1
 254.350585938 350.52734375 334.260742188 341.833984375 371.212890625 378.787109375 c 0
 404.755859375 412.330078125 410 479.735351562 410 560 c 0
 410 580 l 0
 410 592.875976562 398.159179688 610 380 610 c 0
 66.0283203125 610 l 1
 73.0283203125 623.696289062 78.0517578125 639.286132812 88.4609375 670.512695312 c 1
250 680 m 1
 190 680 l 1
 190 569.493164062 158.934570312 483.466796875 -12.1845703125 407.4140625 c 1
 12.1845703125 352.5859375 l 1
 201.065429688 436.533203125 250 550.506835938 250 680 c 1
364.961914062 290.40625 m 1
 315.038085938 323.6875 l 1
 237.208007812 206.94140625 164.775390625 133.268554688 -31.1416015625 54.9013671875 c 1
 -8.8583984375 -0.8076171875 l 1
 195.224609375 80.8251953125 282.791992188 167.15234375 364.961914062 290.40625 c 1
30.5341796875 295.13671875 m 1
 9.4658203125 238.95703125 l 1
 167.1484375 179.826171875 262.604492188 122.491210938 380.794921875 24 c 1
 419.205078125 70.09375 l 1
 297.395507812 171.602539062 192.8515625 234.267578125 30.5341796875 295.13671875 c 1
EndSplineSet
Ligature2: "'liga' Standard Ligatures in Bopomofo lookup 0-2" uni310C uni3128
EndChar

StartChar: uni3116_uni311A
Encoding: 219 -1 198
Width: 500
VWidth: 0
Flags: W
LayerCount: 2
Fore
SplineSet
70 685 m 5
 10 685 l 5
 10 354 l 5
 70 354 l 5
 70 685 l 5
60 670 m 5
 60 610 l 5
 330 610 l 5
 330 358 l 5
 390 358 l 5
 390 640 l 4
 390 652.875976562 378.159179688 670 360 670 c 4
 60 670 l 5
40 430 m 5
 40 370 l 5
 340 370 l 5
 340 430 l 5
 40 430 l 5
152.184570312 577.4140625 m 5
 127.815429688 522.5859375 l 5
 173.10546875 502.45703125 206.700195312 487.903320312 236.008789062 469.240234375 c 5
 268.235351562 519.8515625 l 5
 233.299804688 542.096679688 196.89453125 557.54296875 152.184570312 577.4140625 c 5
20 300 m 1
 3.359375 275.038085938 l 1
 64.2236328125 234.461914062 111.767578125 205.805664062 158.787109375 158.787109375 c 1
 180 180 l 1
 201.212890625 201.212890625 l 1
 148.232421875 254.194335938 95.7763671875 285.538085938 36.640625 324.9609375 c 1
 20 300 l 1
380 300 m 1
 358.787109375 321.212890625 l 1
 319.015625 281.442382812 293.138671875 254.829101562 183.893554688 185.309570312 c 0
 175.227539062 179.794921875 170 169.787109375 170 160 c 2
 170 0 l 1
 200 0 l 1
 230 0 l 1
 230 143.591796875 l 1
 328.04296875 206.875 363.16015625 240.733398438 401.212890625 278.787109375 c 1
 380 300 l 1
EndSplineSet
Ligature2: "'liga' Standard Ligatures in Bopomofo lookup 0-2" uni3116 uni311A
EndChar

StartChar: uni3116_uni311B
Encoding: 220 -1 199
Width: 500
VWidth: 0
Flags: W
HStem: 150.277 59.6738<101.524 190>
VStem: 10 60<58.1156 123.356>
LayerCount: 2
Fore
SplineSet
70 685 m 1
 10 685 l 1
 10 354 l 1
 70 354 l 1
 70 685 l 1
60 670 m 1
 60 610 l 1
 330 610 l 1
 330 358 l 1
 390 358 l 1
 390 640 l 0
 390 652.875976562 378.159179688 670 360 670 c 0
 60 670 l 1
40 430 m 1
 40 370 l 1
 340 370 l 1
 340 430 l 1
 40 430 l 1
152.184570312 577.4140625 m 1
 127.815429688 522.5859375 l 1
 173.10546875 502.45703125 206.700195312 487.903320312 236.008789062 469.240234375 c 1
 268.235351562 519.8515625 l 1
 233.299804688 542.096679688 196.89453125 557.54296875 152.184570312 577.4140625 c 1
0 310 m 1
 0 250 l 1
 400 250 l 1
 400 310 l 1
 0 310 l 1
381.212890625 18.787109375 m 1
 338.787109375 61.212890625 l 1
 326.290039062 48.7158203125 295.352539062 30 220 30 c 0
 219.616210938 30 218.885742188 29.9833984375 218.368164062 29.955078125 c 0
 202.06640625 29.103515625 70 32.375 70 90 c 0
 70 136.456054688 156.540039062 150.342773438 207.110351562 150.27734375 c 0
 214.157226562 150.268554688 218.368164062 150.043945312 218.368164062 150.043945312 c 1
 237.67578125 148.9921875 250 164.400390625 250 180 c 0
 250 280 l 1
 190 280 l 1
 190 209.951171875 l 1
 144.142578125 208.096679688 10 198.356445312 10 90 c 0
 10 -49.9384765625 220.766601562 -30 220.766601562 -30 c 1
 306.149414062 -29.7216796875 353.708984375 -8.7177734375 381.212890625 18.787109375 c 1
EndSplineSet
Ligature2: "'liga' Standard Ligatures in Bopomofo lookup 0-2" uni3116 uni311B
EndChar

StartChar: uni3116_uni311C
Encoding: 221 -1 200
Width: 500
VWidth: 0
Flags: W
HStem: 150.277 59.6738<101.524 190>
VStem: 10 60<58.1156 123.356>
LayerCount: 2
Fore
SplineSet
70 685 m 5
 10 685 l 5
 10 354 l 5
 70 354 l 5
 70 685 l 5
60 670 m 5
 60 610 l 5
 330 610 l 5
 330 358 l 5
 390 358 l 5
 390 640 l 4
 390 652.875976562 378.159179688 670 360 670 c 4
 60 670 l 5
40 430 m 5
 40 370 l 5
 340 370 l 5
 340 430 l 5
 40 430 l 5
152.184570312 577.4140625 m 5
 127.815429688 522.5859375 l 5
 173.10546875 502.45703125 206.700195312 487.903320312 236.008789062 469.240234375 c 5
 268.235351562 519.8515625 l 5
 233.299804688 542.096679688 196.89453125 557.54296875 152.184570312 577.4140625 c 5
0 310 m 1
 0 250 l 1
 400 250 l 1
 400 310 l 1
 0 310 l 1
381.212890625 18.787109375 m 1
 338.787109375 61.212890625 l 1
 326.290039062 48.7158203125 295.352539062 30 220 30 c 0
 219.616210938 30 218.885742188 29.9833984375 218.368164062 29.955078125 c 0
 202.06640625 29.103515625 70 32.375 70 90 c 0
 70 136.456054688 156.540039062 150.342773438 207.110351562 150.27734375 c 0
 214.157226562 150.268554688 218.368164062 150.043945312 218.368164062 150.043945312 c 1
 237.67578125 148.9921875 250 164.400390625 250 180 c 0
 250 340 l 1
 190 340 l 1
 190 209.951171875 l 1
 144.142578125 208.096679688 10 198.356445312 10 90 c 0
 10 -49.9384765625 220.766601562 -30 220.766601562 -30 c 1
 306.149414062 -29.7216796875 353.708984375 -8.7177734375 381.212890625 18.787109375 c 1
EndSplineSet
Ligature2: "'liga' Standard Ligatures in Bopomofo lookup 0-2" uni3116 uni311C
EndChar

StartChar: uni3116_uni311D
Encoding: 222 -1 201
Width: 500
VWidth: 0
Flags: W
VStem: 270 60<112.063 300>
LayerCount: 2
Fore
SplineSet
70 685 m 5
 10 685 l 5
 10 354 l 5
 70 354 l 5
 70 685 l 5
60 670 m 5
 60 610 l 5
 330 610 l 5
 330 358 l 5
 390 358 l 5
 390 640 l 4
 390 652.875976562 378.159179688 670 360 670 c 4
 60 670 l 5
40 430 m 5
 40 370 l 5
 340 370 l 5
 340 430 l 5
 40 430 l 5
152.184570312 577.4140625 m 5
 127.815429688 522.5859375 l 5
 173.10546875 502.45703125 206.700195312 487.903320312 236.008789062 469.240234375 c 5
 268.235351562 519.8515625 l 5
 233.299804688 542.096679688 196.89453125 557.54296875 152.184570312 577.4140625 c 5
0 250 m 1
 0 190 l 1
 400 190 l 1
 400 250 l 1
 0 250 l 1
110 300 m 1
 50 300 l 1
 50 40 l 0
 50 2.3134765625 82.4658203125 -30 120 -30 c 0
 360 -30 l 1
 360 30 l 1
 120 30 l 0
 117.534179688 30 110 37.6865234375 110 40 c 0
 110 300 l 1
330 300 m 1
 270 300 l 1
 270 199.073242188 269.971679688 164.784179688 251.5390625 109.486328125 c 1
 308.4609375 90.5126953125 l 1
 330.028320312 155.215820312 330 200.926757812 330 300 c 1
EndSplineSet
Ligature2: "'liga' Standard Ligatures in Bopomofo lookup 0-2" uni3116 uni311D
EndChar

StartChar: uni3116_uni311E
Encoding: 223 -1 202
Width: 500
VWidth: 0
Flags: W
VStem: 210 60<192.709 300>
LayerCount: 2
Fore
SplineSet
70 685 m 5
 10 685 l 5
 10 354 l 5
 70 354 l 5
 70 685 l 5
60 670 m 5
 60 610 l 5
 330 610 l 5
 330 358 l 5
 390 358 l 5
 390 640 l 4
 390 652.875976562 378.159179688 670 360 670 c 4
 60 670 l 5
40 430 m 5
 40 370 l 5
 340 370 l 5
 340 430 l 5
 40 430 l 5
152.184570312 577.4140625 m 5
 127.815429688 522.5859375 l 5
 173.10546875 502.45703125 206.700195312 487.903320312 236.008789062 469.240234375 c 5
 268.235351562 519.8515625 l 5
 233.299804688 542.096679688 196.89453125 557.54296875 152.184570312 577.4140625 c 5
0 330 m 1
 0 270 l 1
 400 270 l 1
 400 330 l 1
 0 330 l 1
86.8330078125 226.583984375 m 1
 33.1669921875 253.416015625 l 1
 -6.8330078125 173.416015625 l 0
 -8.9052734375 169.271484375 -10 164.329101562 -10 160 c 0
 -10 140 l 0
 -10 121.840820312 7.1240234375 110 20 110 c 0
 349.517578125 110 l 1
 345.3125 68.7177734375 293.555664062 15.9814453125 275 -2.57421875 c 1
 341.212890625 -21.212890625 l 1
 361.120117188 -1.3056640625 410 46.0234375 410 120 c 0
 410 140 l 0
 410 152.875976562 398.159179688 170 380 170 c 0
 58.541015625 170 l 1
 86.8330078125 226.583984375 l 1
270 300 m 1
 210 300 l 1
 210 174.21875 141.845703125 85.232421875 -10.5341796875 28.08984375 c 1
 10.5341796875 -28.08984375 l 1
 178.154296875 34.767578125 270 145.780273438 270 300 c 1
EndSplineSet
Ligature2: "'liga' Standard Ligatures in Bopomofo lookup 0-2" uni3116 uni311E
EndChar

StartChar: uni3116_uni311F
Encoding: 224 -1 203
Width: 500
VWidth: 0
Flags: W
HStem: -8.73535 57.4697<368.545 413.48>
LayerCount: 2
Fore
SplineSet
70 685 m 5
 10 685 l 5
 10 354 l 5
 70 354 l 5
 70 685 l 5
60 670 m 5
 60 610 l 5
 330 610 l 5
 330 358 l 5
 390 358 l 5
 390 640 l 4
 390 652.875976562 378.159179688 670 360 670 c 4
 60 670 l 5
40 430 m 5
 40 370 l 5
 340 370 l 5
 340 430 l 5
 40 430 l 5
152.184570312 577.4140625 m 5
 127.815429688 522.5859375 l 5
 173.10546875 502.45703125 206.700195312 487.903320312 236.008789062 469.240234375 c 5
 268.235351562 519.8515625 l 5
 233.299804688 542.096679688 196.89453125 557.54296875 152.184570312 577.4140625 c 5
-28.2412109375 268.845703125 m 1
 -11.7587890625 211.154296875 l 1
 102.995117188 243.940429688 l 1
 160.49609375 114.98828125 218.330078125 49.1796875 411.379882812 -8.7353515625 c 1
 428.620117188 48.734375 l 1
 234.470703125 106.979492188 206.141601562 155.16015625 147.57421875 291.817382812 c 0
 142.45703125 303.7578125 126.989257812 313.197265625 111.758789062 308.845703125 c 0
 -28.2412109375 268.845703125 l 1
EndSplineSet
Ligature2: "'liga' Standard Ligatures in Bopomofo lookup 0-2" uni3116 uni311F
EndChar

StartChar: uni3116_uni3120
Encoding: 225 -1 204
Width: 500
VWidth: 0
Flags: W
HStem: -29.6514 74.6123<45.3496 73.6856>
LayerCount: 2
Fore
SplineSet
70 685 m 5
 10 685 l 5
 10 354 l 5
 70 354 l 5
 70 685 l 5
60 670 m 5
 60 610 l 5
 330 610 l 5
 330 358 l 5
 390 358 l 5
 390 640 l 4
 390 652.875976562 378.159179688 670 360 670 c 4
 60 670 l 5
40 430 m 5
 40 370 l 5
 340 370 l 5
 340 430 l 5
 40 430 l 5
152.184570312 577.4140625 m 5
 127.815429688 522.5859375 l 5
 173.10546875 502.45703125 206.700195312 487.903320312 236.008789062 469.240234375 c 5
 268.235351562 519.8515625 l 5
 233.299804688 542.096679688 196.89453125 557.54296875 152.184570312 577.4140625 c 5
203.046875 280.793945312 m 1
 156.953125 319.205078125 l 1
 110.3203125 263.245117188 76.3935546875 246.77734375 5.1162109375 206.046875 c 0
 2.0048828125 204.26953125 -29.771484375 187.344726562 -1.212890625 158.787109375 c 0
 18.787109375 138.787109375 l 0
 24.5185546875 133.0546875 33.3916015625 130 40 130 c 0
 200 130 l 1
 200 190 l 1
 97.1953125 190 l 1
 133.94140625 212.520507812 167.775390625 238.46875 203.046875 280.793945312 c 1
378.154296875 265.822265625 m 1
 333 305.33203125 l 1
 264.750976562 227.333007812 131.231876847 103.525718206 43.359375 44.9609375 c 0
 36.583984375 40.4453125 14.986328125 22.5869140625 38.787109375 -1.212890625 c 0
 58.787109375 -21.212890625 l 0
 65.7177734375 -28.1435546875 76.5087890625 -30.8896484375 84.5615234375 -29.6513671875 c 0
 344.561523438 10.3486328125 l 1
 335.438476562 69.6513671875 l 1
 139.124023438 39.44921875 l 1
 205.552734375 89.7978515625 323.12109375 202.926757812 378.154296875 265.822265625 c 1
350.666015625 125.83203125 m 1
 297 99 l 1
 365 -35 l 1
 418.666015625 -8.16796875 l 1
 350.666015625 125.83203125 l 1
EndSplineSet
Ligature2: "'liga' Standard Ligatures in Bopomofo lookup 0-2" uni3116 uni3120
EndChar

StartChar: uni3116_uni3121
Encoding: 226 -1 205
Width: 500
VWidth: 0
Flags: W
LayerCount: 2
Fore
SplineSet
70 685 m 5
 10 685 l 5
 10 354 l 5
 70 354 l 5
 70 685 l 5
60 670 m 5
 60 610 l 5
 330 610 l 5
 330 358 l 5
 390 358 l 5
 390 640 l 4
 390 652.875976562 378.159179688 670 360 670 c 4
 60 670 l 5
40 430 m 5
 40 370 l 5
 340 370 l 5
 340 430 l 5
 40 430 l 5
152.184570312 577.4140625 m 5
 127.815429688 522.5859375 l 5
 173.10546875 502.45703125 206.700195312 487.903320312 236.008789062 469.240234375 c 5
 268.235351562 519.8515625 l 5
 233.299804688 542.096679688 196.89453125 557.54296875 152.184570312 577.4140625 c 5
20 330 m 1
 20 270 l 1
 300.484375 270 l 1
 241.1328125 168.415039062 133.057617188 81.9365234375 -10.5341796875 28.08984375 c 1
 10.5341796875 -28.08984375 l 1
 175.97265625 33.94921875 302.625 138.16796875 366.833007812 266.583984375 c 0
 368.768554688 270.456054688 370 275.365234375 370 280 c 0
 370 300 l 0
 370 312.875976562 358.159179688 330 340 330 c 0
 20 330 l 1
50.5341796875 228.08984375 m 1
 29.4658203125 171.91015625 l 1
 187.202148438 112.758789062 283.265625 54.96875 381.258789062 -23.42578125 c 1
 418.741210938 23.42578125 l 1
 316.734375 105.03125 212.797851562 167.240234375 50.5341796875 228.08984375 c 1
EndSplineSet
Ligature2: "'liga' Standard Ligatures in Bopomofo lookup 0-2" uni3116 uni3121
EndChar

StartChar: uni3116_uni3122
Encoding: 227 -1 206
Width: 500
VWidth: 0
Flags: W
LayerCount: 2
Fore
SplineSet
70 685 m 5
 10 685 l 5
 10 354 l 5
 70 354 l 5
 70 685 l 5
60 670 m 5
 60 610 l 5
 330 610 l 5
 330 358 l 5
 390 358 l 5
 390 640 l 4
 390 652.875976562 378.159179688 670 360 670 c 4
 60 670 l 5
40 430 m 5
 40 370 l 5
 340 370 l 5
 340 430 l 5
 40 430 l 5
152.184570312 577.4140625 m 5
 127.815429688 522.5859375 l 5
 173.10546875 502.45703125 206.700195312 487.903320312 236.008789062 469.240234375 c 5
 268.235351562 519.8515625 l 5
 233.299804688 542.096679688 196.89453125 557.54296875 152.184570312 577.4140625 c 5
0 330 m 1
 0 270 l 1
 309.497070312 270 l 1
 306.330078125 240.229492188 278.604492188 168.385742188 278.26953125 167.704101562 c 1
 332 141 l 1
 332.71484375 142.438476562 370 230.799804688 370 280 c 0
 370 300 l 0
 370 312.875976562 358.159179688 330 340 330 c 0
 0 330 l 1
106.833007812 226.583984375 m 1
 53.1669921875 253.416015625 l 1
 13.1669921875 173.416015625 l 0
 11.0947265625 169.271484375 10 164.329101562 10 160 c 0
 10 140 l 0
 10 121.840820312 27.1240234375 110 40 110 c 0
 369.232421875 110 l 1
 362.672851562 68.185546875 319.436523438 21.8701171875 318.749023438 21.1748046875 c 1
 361.250976562 -21.17578125 l 1
 361.50390625 -20.9208984375 430 42.5859375 430 120 c 0
 430 140 l 0
 430 152.875976562 418.159179688 170 400 170 c 0
 78.541015625 170 l 1
 106.833007812 226.583984375 l 1
EndSplineSet
Ligature2: "'liga' Standard Ligatures in Bopomofo lookup 0-2" uni3116 uni3122
EndChar

StartChar: uni3116_uni3123
Encoding: 228 -1 207
Width: 500
VWidth: 0
Flags: W
VStem: 10 60<233.173 300>
LayerCount: 2
Fore
SplineSet
70 685 m 5
 10 685 l 5
 10 354 l 5
 70 354 l 5
 70 685 l 5
60 670 m 5
 60 610 l 5
 330 610 l 5
 330 358 l 5
 390 358 l 5
 390 640 l 4
 390 652.875976562 378.159179688 670 360 670 c 4
 60 670 l 5
40 430 m 5
 40 370 l 5
 340 370 l 5
 340 430 l 5
 40 430 l 5
152.184570312 577.4140625 m 5
 127.815429688 522.5859375 l 5
 173.10546875 502.45703125 206.700195312 487.903320312 236.008789062 469.240234375 c 5
 268.235351562 519.8515625 l 5
 233.299804688 542.096679688 196.89453125 557.54296875 152.184570312 577.4140625 c 5
70 300 m 1
 10 300 l 1
 10 285.864257812 -27.857421875 191.133789062 -27.857421875 191.133789062 c 0
 -29.2568359375 187.631835938 -30 183.290039062 -30 180 c 0
 -30 160 l 0
 -30 141.840820312 -12.8759765625 130 0 130 c 0
 349.577148438 130 l 1
 344.981445312 77.8759765625 313.153320312 13.388671875 313.153320312 13.388671875 c 1
 366.846679688 -13.3896484375 l 1
 367.397460938 -12.28515625 410 68.8330078125 410 140 c 0
 410 160 l 0
 410 172.875976562 398.159179688 190 380 190 c 0
 36.1142578125 190 l 1
 47.6728515625 220.083984375 70 271.602539062 70 300 c 1
EndSplineSet
Ligature2: "'liga' Standard Ligatures in Bopomofo lookup 0-2" uni3116 uni3123
EndChar

